<?xml version="1.0" encoding="utf-8"?>
<!-- Generator: Adobe Illustrator 18.1.1, SVG Export Plug-In . SVG Version: 6.00 Build 0)  -->
<svg version="1.1" id="Layer_2" xmlns="http://www.w3.org/2000/svg" xmlns:xlink="http://www.w3.org/1999/xlink" x="0px" y="0px"
	 viewBox="0 0 10368 10368" enable-background="new 0 0 10368 10368" xml:space="preserve">
<g>
	<g>
		<g>
			<path fill="#FFFFFF" d="M10187.4,3122.9c-105.1,0-310.8,129.4-527.6,266.8c-181.3,113.2-367.4,230.6-488.8,267.2
				c-98.7,29.5-197,45.4-299.9,45.4c-115.6,0-220.9-17.8-331.5-37.2c-124.1-19.8-251.3-40.6-393.2-35.7
				c-256.3,9.9-514.6,169.4-765.6,322.5c-215.2,134-441.5,273.2-658.9,306.6c-70.2,11.8-136.9,16.7-202,16.7
				c-143.7,0-254.2-26.6-361-50.4c-95.6-23.6-188.3-44.4-293.9-44.4c-44.4,0-88,3-134,10.9c-164,28.6-342.4,158.6-532.5,296.8
				c-225.7,164-459.3,334.4-694,356.6c-52.4,5-105.9,8-155.2,8c-143.7,0-258.3-21.3-358.2-37.5c-86.9-15.9-170-31.1-258.3-31.1
				c-70.2,0-138.2,9.9-211,27.7c-160.9,43.6-318.5,144.2-483.1,253.5c-221.7,144.2-452,294.9-697.5,285
				c-390.5-15.9-770-348.3-968.9-845.6c-179.9-454.3,137.3-1163.6,288-1307.4c12.8-11.8,23.6-24.6,17.8-37.2c0-3.9-5-10.9-17.8-10.9
				c-66.1,0-514.6,262.7-663,725.6c-155.7,480.6-319.6,682.6-454.3,845.2c-188.3,229.6-324.4,396.7-296.8,1169.7
				c15.9,445.1,189,671.3,513.2,671.3c105.9,0,224.7-22.7,365.1-71.1c47-15.9,92.9-24.3,141.3-24.3c130.9,0,251.3,56.9,382.3,116.5
				c134.4,63.3,273.6,128.3,433.1,128.3c30.7,0,61.1-3.9,92.3-8c309.8-52.4,563.1-268.3,807.6-477.1
				c204.9-176.4,399.6-342.4,607.5-387.8c124.1-27.2,229.6-39.5,333.3-39.5c53.4,0,98.7,4.5,143.7,5.9c39.5,3.9,78.1,5.9,118.1,5.9
				c78.9,0,153.6-10.9,238.7-35.7c291.8-86.9,496-267.2,694.5-442.6c170.8-151.2,349.2-309.3,581.9-398.2
				c163.5-63.3,276.7-72.5,365.1-72.5c40.6,0,78.9,1.5,118.5,4.5c45.4,1.5,90,3.9,138.9,3.9c99.8,0,242.5-8,458.8-69.7
				c263.3-75.2,479.1-253.5,687-425.4c234.6-195.1,456.5-377.9,720.3-387.8l66.1-3.9c523.1-21.3,838.3-34.1,1193.2-303.6
				c66.1-50.4,129.4-100.2,189.7-147.7c264.1-205.3,472.1-367.4,581.9-367.4c8,0,13.7-1,18.6-1.5c14.4-5,14.9-13.7,14.9-16.7
				C10253,3126.3,10216.9,3122.9,10187.4,3122.9z"/>
		</g>
	</g>
</g>
</svg>
