<?xml version="1.0" encoding="utf-8"?>
<!-- Generator: Adobe Illustrator 18.1.1, SVG Export Plug-In . SVG Version: 6.00 Build 0)  -->
<svg version="1.1" id="Layer_2" xmlns="http://www.w3.org/2000/svg" xmlns:xlink="http://www.w3.org/1999/xlink" x="0px" y="0px"
	 viewBox="0 0 10368 10368" enable-background="new 0 0 10368 10368" xml:space="preserve">
<g>
	<g>
		<g>
			<path fill="#0000FF" d="M1429.3,596c-12.5,0-37.1,15.4-63,31.8c-21.6,13.5-43.8,27.5-58.3,31.9c-11.8,3.5-23.5,5.4-35.8,5.4
				c-13.8,0-26.4-2.1-39.6-4.4c-14.8-2.4-30-4.9-46.9-4.3c-30.6,1.2-61.4,20.2-91.3,38.5c-25.7,16-52.7,32.6-78.6,36.6
				c-8.4,1.4-16.3,2-24.1,2c-17.1,0-30.3-3.2-43.1-6c-11.4-2.8-22.5-5.3-35.1-5.3c-5.3,0-10.5,0.4-16,1.3
				c-19.6,3.4-40.9,18.9-63.5,35.4c-26.9,19.6-54.8,39.9-82.8,42.5c-6.3,0.6-12.6,1-18.5,1c-17.1,0-30.8-2.5-42.7-4.5
				c-10.4-1.9-20.3-3.7-30.8-3.7c-8.4,0-16.5,1.2-25.2,3.3c-19.2,5.2-38,17.2-57.6,30.3c-26.4,17.2-53.9,35.2-83.2,34
				c-46.6-1.9-91.9-41.6-115.6-100.9c-21.5-54.2,16.4-138.8,34.4-156c1.5-1.4,2.8-2.9,2.1-4.4c0-0.5-0.6-1.3-2.1-1.3
				c-7.9,0-61.4,31.3-79.1,86.6c-18.6,57.3-38.1,81.5-54.2,100.8c-22.5,27.4-38.7,47.3-35.4,139.6c1.9,53.1,22.6,80.1,61.2,80.1
				c12.6,0,26.8-2.7,43.6-8.5c5.6-1.9,11.1-2.9,16.9-2.9c15.6,0,30,6.8,45.6,13.9c16,7.6,32.6,15.3,51.7,15.3c3.7,0,7.3-0.5,11-1
				c37-6.3,67.2-32,96.4-56.9c24.4-21,47.7-40.9,72.5-46.3c14.8-3.2,27.4-4.7,39.8-4.7c6.4,0,11.8,0.5,17.1,0.7
				c4.7,0.5,9.3,0.7,14.1,0.7c9.4,0,18.3-1.3,28.5-4.3c34.8-10.4,59.2-31.9,82.9-52.8c20.4-18,41.7-36.9,69.4-47.5
				c19.5-7.6,33-8.7,43.6-8.7c4.9,0,9.4,0.2,14.1,0.5c5.4,0.2,10.7,0.5,16.6,0.5c11.9,0,28.9-1,54.7-8.3c31.4-9,57.2-30.3,82-50.8
				c28-23.3,54.5-45.1,85.9-46.3l7.9-0.5c62.4-2.5,100-4.1,142.4-36.2c7.9-6,15.4-12,22.6-17.6c31.5-24.5,56.3-43.8,69.4-43.8
				c1,0,1.6-0.1,2.2-0.2c1.7-0.6,1.8-1.6,1.8-2C1437.1,596.4,1432.8,596,1429.3,596z"/>
		</g>
	</g>
</g>
<g>
	<g>
		<g>
			<path fill="#0000FF" d="M3171.1,596c-12.5,0-37.1,15.4-63,31.8c-21.6,13.5-43.8,27.5-58.3,31.9c-11.8,3.5-23.5,5.4-35.8,5.4
				c-13.8,0-26.4-2.1-39.6-4.4c-14.8-2.4-30-4.9-46.9-4.3c-30.6,1.2-61.4,20.2-91.3,38.5c-25.7,16-52.7,32.6-78.6,36.6
				c-8.4,1.4-16.3,2-24.1,2c-17.1,0-30.3-3.2-43.1-6c-11.4-2.8-22.5-5.3-35.1-5.3c-5.3,0-10.5,0.4-16,1.3
				c-19.6,3.4-40.9,18.9-63.5,35.4c-26.9,19.6-54.8,39.9-82.8,42.5c-6.3,0.6-12.6,1-18.5,1c-17.1,0-30.8-2.5-42.7-4.5
				c-10.4-1.9-20.3-3.7-30.8-3.7c-8.4,0-16.5,1.2-25.2,3.3c-19.2,5.2-38,17.2-57.6,30.3c-26.4,17.2-53.9,35.2-83.2,34
				c-46.6-1.9-91.9-41.6-115.6-100.9c-21.5-54.2,16.4-138.8,34.4-156c1.5-1.4,2.8-2.9,2.1-4.4c0-0.5-0.6-1.3-2.1-1.3
				c-7.9,0-61.4,31.3-79.1,86.6c-18.6,57.3-38.1,81.5-54.2,100.8c-22.5,27.4-38.7,47.3-35.4,139.6c1.9,53.1,22.6,80.1,61.2,80.1
				c12.6,0,26.8-2.7,43.6-8.5c5.6-1.9,11.1-2.9,16.9-2.9c15.6,0,30,6.8,45.6,13.9c16,7.6,32.6,15.3,51.7,15.3c3.7,0,7.3-0.5,11-1
				c37-6.3,67.2-32,96.4-56.9c24.4-21,47.7-40.9,72.5-46.3c14.8-3.2,27.4-4.7,39.8-4.7c6.4,0,11.8,0.5,17.1,0.7
				c4.7,0.5,9.3,0.7,14.1,0.7c9.4,0,18.3-1.3,28.5-4.3c34.8-10.4,59.2-31.9,82.9-52.8c20.4-18,41.7-36.9,69.4-47.5
				c19.5-7.6,33-8.7,43.6-8.7c4.9,0,9.4,0.2,14.1,0.5c5.4,0.2,10.7,0.5,16.6,0.5c11.9,0,28.9-1,54.7-8.3c31.4-9,57.2-30.3,82-50.8
				c28-23.3,54.5-45.1,85.9-46.3l7.9-0.5c62.4-2.5,100-4.1,142.4-36.2c7.9-6,15.4-12,22.6-17.6c31.5-24.5,56.3-43.8,69.4-43.8
				c1,0,1.6-0.1,2.2-0.2c1.7-0.6,1.8-1.6,1.8-2C3178.9,596.4,3174.6,596,3171.1,596z"/>
		</g>
	</g>
</g>
<g>
	<g>
		<g>
			<path fill="#0000FF" d="M4912.8,596c-12.5,0-37.1,15.4-63,31.8c-21.6,13.5-43.8,27.5-58.3,31.9c-11.8,3.5-23.5,5.4-35.8,5.4
				c-13.8,0-26.4-2.1-39.6-4.4c-14.8-2.4-30-4.9-46.9-4.3c-30.6,1.2-61.4,20.2-91.3,38.5c-25.7,16-52.7,32.6-78.6,36.6
				c-8.4,1.4-16.3,2-24.1,2c-17.1,0-30.3-3.2-43.1-6c-11.4-2.8-22.5-5.3-35.1-5.3c-5.3,0-10.5,0.4-16,1.3
				c-19.6,3.4-40.9,18.9-63.5,35.4c-26.9,19.6-54.8,39.9-82.8,42.5c-6.3,0.6-12.6,1-18.5,1c-17.1,0-30.8-2.5-42.7-4.5
				c-10.4-1.9-20.3-3.7-30.8-3.7c-8.4,0-16.5,1.2-25.2,3.3c-19.2,5.2-38,17.2-57.6,30.3c-26.4,17.2-53.9,35.2-83.2,34
				c-46.6-1.9-91.9-41.6-115.6-100.9c-21.5-54.2,16.4-138.8,34.4-156c1.5-1.4,2.8-2.9,2.1-4.4c0-0.5-0.6-1.3-2.1-1.3
				c-7.9,0-61.4,31.3-79.1,86.6c-18.6,57.3-38.1,81.5-54.2,100.8c-22.5,27.4-38.7,47.3-35.4,139.6c1.9,53.1,22.6,80.1,61.2,80.1
				c12.6,0,26.8-2.7,43.6-8.5c5.6-1.9,11.1-2.9,16.9-2.9c15.6,0,30,6.8,45.6,13.9c16,7.6,32.6,15.3,51.7,15.3c3.7,0,7.3-0.5,11-1
				c37-6.3,67.2-32,96.4-56.9c24.4-21,47.7-40.9,72.5-46.3c14.8-3.2,27.4-4.7,39.8-4.7c6.4,0,11.8,0.5,17.1,0.7
				c4.7,0.5,9.3,0.7,14.1,0.7c9.4,0,18.3-1.3,28.5-4.3c34.8-10.4,59.2-31.9,82.9-52.8c20.4-18,41.7-36.9,69.4-47.5
				c19.5-7.6,33-8.7,43.6-8.7c4.9,0,9.4,0.2,14.1,0.5c5.4,0.2,10.7,0.5,16.6,0.5c11.9,0,28.9-1,54.7-8.3c31.4-9,57.2-30.3,82-50.8
				c28-23.3,54.5-45.1,85.9-46.3l7.9-0.5c62.4-2.5,100-4.1,142.4-36.2c7.9-6,15.4-12,22.6-17.6c31.5-24.5,56.3-43.8,69.4-43.8
				c1,0,1.6-0.1,2.2-0.2c1.7-0.6,1.8-1.6,1.8-2C4920.6,596.4,4916.3,596,4912.8,596z"/>
		</g>
	</g>
</g>
<g>
	<g>
		<g>
			<path fill="#0000FF" d="M6654.6,596c-12.5,0-37.1,15.4-63,31.8c-21.6,13.5-43.8,27.5-58.3,31.9c-11.8,3.5-23.5,5.4-35.8,5.4
				c-13.8,0-26.4-2.1-39.5-4.4c-14.8-2.4-30-4.9-46.9-4.3c-30.6,1.2-61.4,20.2-91.3,38.5c-25.7,16-52.7,32.6-78.6,36.6
				c-8.4,1.4-16.3,2-24.1,2c-17.1,0-30.3-3.2-43.1-6c-11.4-2.8-22.5-5.3-35.1-5.3c-5.3,0-10.5,0.4-16,1.3
				c-19.6,3.4-40.9,18.9-63.5,35.4c-26.9,19.6-54.8,39.9-82.8,42.5c-6.3,0.6-12.6,1-18.5,1c-17.1,0-30.8-2.5-42.7-4.5
				c-10.4-1.9-20.3-3.7-30.8-3.7c-8.4,0-16.5,1.2-25.2,3.3c-19.2,5.2-38,17.2-57.6,30.3c-26.4,17.2-53.9,35.2-83.2,34
				c-46.6-1.9-91.9-41.6-115.6-100.9c-21.5-54.2,16.4-138.8,34.4-156c1.5-1.4,2.8-2.9,2.1-4.4c0-0.5-0.6-1.3-2.1-1.3
				c-7.9,0-61.4,31.3-79.1,86.6c-18.6,57.3-38.1,81.5-54.2,100.8c-22.5,27.4-38.7,47.3-35.4,139.6c1.9,53.1,22.6,80.1,61.2,80.1
				c12.6,0,26.8-2.7,43.6-8.5c5.6-1.9,11.1-2.9,16.9-2.9c15.6,0,30,6.8,45.6,13.9c16,7.6,32.6,15.3,51.7,15.3c3.7,0,7.3-0.5,11-1
				c37-6.3,67.2-32,96.4-56.9c24.4-21,47.7-40.9,72.5-46.3c14.8-3.2,27.4-4.7,39.8-4.7c6.4,0,11.8,0.5,17.1,0.7
				c4.7,0.5,9.3,0.7,14.1,0.7c9.4,0,18.3-1.3,28.5-4.3c34.8-10.4,59.2-31.9,82.9-52.8c20.4-18,41.7-36.9,69.4-47.5
				c19.5-7.6,33-8.7,43.6-8.7c4.9,0,9.4,0.2,14.1,0.5c5.4,0.2,10.7,0.5,16.6,0.5c11.9,0,28.9-1,54.7-8.3c31.4-9,57.2-30.3,82-50.8
				c28-23.3,54.5-45.1,85.9-46.3l7.9-0.5c62.4-2.5,100-4.1,142.4-36.2c7.9-6,15.4-12,22.6-17.6c31.5-24.5,56.3-43.8,69.4-43.8
				c1,0,1.6-0.1,2.2-0.2c1.7-0.6,1.8-1.6,1.8-2C6662.4,596.4,6658.1,596,6654.6,596z"/>
		</g>
	</g>
</g>
<g>
	<g>
		<g>
			<path fill="#0000FF" d="M8396.3,596c-12.5,0-37.1,15.4-63,31.8c-21.6,13.5-43.8,27.5-58.3,31.9c-11.8,3.5-23.5,5.4-35.8,5.4
				c-13.8,0-26.4-2.1-39.5-4.4c-14.8-2.4-30-4.9-46.9-4.3c-30.6,1.2-61.4,20.2-91.3,38.5c-25.7,16-52.7,32.6-78.6,36.6
				c-8.4,1.4-16.3,2-24.1,2c-17.1,0-30.3-3.2-43.1-6c-11.4-2.8-22.5-5.3-35.1-5.3c-5.3,0-10.5,0.4-16,1.3
				c-19.6,3.4-40.9,18.9-63.5,35.4c-26.9,19.6-54.8,39.9-82.8,42.5c-6.3,0.6-12.6,1-18.5,1c-17.1,0-30.8-2.5-42.7-4.5
				c-10.4-1.9-20.3-3.7-30.8-3.7c-8.4,0-16.5,1.2-25.2,3.3c-19.2,5.2-38,17.2-57.6,30.3c-26.4,17.2-53.9,35.2-83.2,34
				c-46.6-1.9-91.9-41.6-115.6-100.9c-21.5-54.2,16.4-138.8,34.4-156c1.5-1.4,2.8-2.9,2.1-4.4c0-0.5-0.6-1.3-2.1-1.3
				c-7.9,0-61.4,31.3-79.1,86.6c-18.6,57.3-38.1,81.5-54.2,100.8c-22.5,27.4-38.7,47.3-35.4,139.6c1.9,53.1,22.6,80.1,61.2,80.1
				c12.6,0,26.8-2.7,43.6-8.5c5.6-1.9,11.1-2.9,16.9-2.9c15.6,0,30,6.8,45.6,13.9c16,7.6,32.6,15.3,51.7,15.3c3.7,0,7.3-0.5,11-1
				c37-6.3,67.2-32,96.4-56.9c24.4-21,47.7-40.9,72.5-46.3c14.8-3.2,27.4-4.7,39.8-4.7c6.4,0,11.8,0.5,17.1,0.7
				c4.7,0.5,9.3,0.7,14.1,0.7c9.4,0,18.3-1.3,28.5-4.3c34.8-10.4,59.2-31.9,82.9-52.8c20.4-18,41.7-36.9,69.4-47.5
				c19.5-7.6,33-8.7,43.6-8.7c4.9,0,9.4,0.2,14.1,0.5c5.4,0.2,10.7,0.5,16.6,0.5c11.9,0,28.9-1,54.7-8.3c31.4-9,57.2-30.3,82-50.8
				c28-23.3,54.5-45.1,85.9-46.3l7.9-0.5c62.4-2.5,100-4.1,142.4-36.2c7.9-6,15.4-12,22.6-17.6c31.5-24.5,56.3-43.8,69.4-43.8
				c1,0,1.6-0.1,2.2-0.2c1.7-0.6,1.8-1.6,1.8-2C8404.2,596.4,8399.8,596,8396.3,596z"/>
		</g>
	</g>
</g>
<g>
	<g>
		<g>
			<path fill="#0000FF" d="M10138.1,596c-12.5,0-37.1,15.4-63,31.8c-21.6,13.5-43.8,27.5-58.3,31.9c-11.8,3.5-23.5,5.4-35.8,5.4
				c-13.8,0-26.4-2.1-39.5-4.4c-14.8-2.4-30-4.9-46.9-4.3c-30.6,1.2-61.4,20.2-91.3,38.5c-25.7,16-52.7,32.6-78.6,36.6
				c-8.4,1.4-16.3,2-24.1,2c-17.1,0-30.3-3.2-43.1-6c-11.4-2.8-22.5-5.3-35.1-5.3c-5.3,0-10.5,0.4-16,1.3
				c-19.6,3.4-40.9,18.9-63.5,35.4c-26.9,19.6-54.8,39.9-82.8,42.5c-6.3,0.6-12.6,1-18.5,1c-17.1,0-30.8-2.5-42.7-4.5
				c-10.4-1.9-20.3-3.7-30.8-3.7c-8.4,0-16.5,1.2-25.2,3.3c-19.2,5.2-38,17.2-57.6,30.3c-26.4,17.2-53.9,35.2-83.2,34
				c-46.6-1.9-91.9-41.6-115.6-100.9c-21.5-54.2,16.4-138.8,34.4-156c1.5-1.4,2.8-2.9,2.1-4.4c0-0.5-0.6-1.3-2.1-1.3
				c-7.9,0-61.4,31.3-79.1,86.6c-18.6,57.3-38.1,81.5-54.2,100.8c-22.5,27.4-38.7,47.3-35.4,139.6c1.9,53.1,22.6,80.1,61.2,80.1
				c12.6,0,26.8-2.7,43.6-8.5c5.6-1.9,11.1-2.9,16.9-2.9c15.6,0,30,6.8,45.6,13.9c16,7.6,32.6,15.3,51.7,15.3c3.7,0,7.3-0.5,11-1
				c37-6.3,67.2-32,96.4-56.9c24.4-21,47.7-40.9,72.5-46.3c14.8-3.2,27.4-4.7,39.8-4.7c6.4,0,11.8,0.5,17.1,0.7
				c4.7,0.5,9.3,0.7,14.1,0.7c9.4,0,18.3-1.3,28.5-4.3c34.8-10.4,59.2-31.9,82.9-52.8c20.4-18,41.7-36.9,69.4-47.5
				c19.5-7.6,33-8.7,43.6-8.7c4.9,0,9.4,0.2,14.1,0.5c5.4,0.2,10.7,0.5,16.6,0.5c11.9,0,28.9-1,54.7-8.3c31.4-9,57.2-30.3,82-50.8
				c28-23.3,54.5-45.1,85.9-46.3l7.9-0.5c62.4-2.5,100-4.1,142.4-36.2c7.9-6,15.4-12,22.6-17.6c31.5-24.5,56.3-43.8,69.4-43.8
				c1,0,1.6-0.1,2.2-0.2c1.7-0.6,1.8-1.6,1.8-2C10145.9,596.4,10141.6,596,10138.1,596z"/>
		</g>
	</g>
</g>
<g>
	<g>
		<g>
			<path fill="#0000FF" d="M1429.3,2260.2c-12.5,0-37.1,15.4-63,31.8c-21.6,13.5-43.8,27.5-58.3,31.9c-11.8,3.5-23.5,5.4-35.8,5.4
				c-13.8,0-26.4-2.1-39.6-4.4c-14.8-2.4-30-4.9-46.9-4.3c-30.6,1.2-61.4,20.2-91.3,38.5c-25.7,16-52.7,32.6-78.6,36.6
				c-8.4,1.4-16.3,2-24.1,2c-17.1,0-30.3-3.2-43.1-6c-11.4-2.8-22.5-5.3-35.1-5.3c-5.3,0-10.5,0.4-16,1.3
				c-19.6,3.4-40.9,18.9-63.5,35.4c-26.9,19.6-54.8,39.9-82.8,42.5c-6.3,0.6-12.6,1-18.5,1c-17.1,0-30.8-2.5-42.7-4.5
				c-10.4-1.9-20.3-3.7-30.8-3.7c-8.4,0-16.5,1.2-25.2,3.3c-19.2,5.2-38,17.2-57.6,30.3c-26.4,17.2-53.9,35.2-83.2,34
				c-46.6-1.9-91.9-41.6-115.6-100.9c-21.5-54.2,16.4-138.8,34.4-156c1.5-1.4,2.8-2.9,2.1-4.4c0-0.5-0.6-1.3-2.1-1.3
				c-7.9,0-61.4,31.3-79.1,86.6c-18.6,57.3-38.1,81.5-54.2,100.8c-22.5,27.4-38.7,47.3-35.4,139.6c1.9,53.1,22.6,80.1,61.2,80.1
				c12.6,0,26.8-2.7,43.6-8.5c5.6-1.9,11.1-2.9,16.9-2.9c15.6,0,30,6.8,45.6,13.9c16,7.6,32.6,15.3,51.7,15.3c3.7,0,7.3-0.5,11-1
				c37-6.3,67.2-32,96.4-56.9c24.4-21,47.7-40.9,72.5-46.3c14.8-3.2,27.4-4.7,39.8-4.7c6.4,0,11.8,0.5,17.1,0.7
				c4.7,0.5,9.3,0.7,14.1,0.7c9.4,0,18.3-1.3,28.5-4.3c34.8-10.4,59.2-31.9,82.9-52.8c20.4-18,41.7-36.9,69.4-47.5
				c19.5-7.6,33-8.7,43.6-8.7c4.9,0,9.4,0.2,14.1,0.5c5.4,0.2,10.7,0.5,16.6,0.5c11.9,0,28.9-1,54.7-8.3c31.4-9,57.2-30.3,82-50.8
				c28-23.3,54.5-45.1,85.9-46.3l7.9-0.5c62.4-2.5,100-4.1,142.4-36.2c7.9-6,15.4-12,22.6-17.6c31.5-24.5,56.3-43.8,69.4-43.8
				c1,0,1.6-0.1,2.2-0.2c1.7-0.6,1.8-1.6,1.8-2C1437.1,2260.6,1432.8,2260.2,1429.3,2260.2z"/>
		</g>
	</g>
</g>
<g>
	<g>
		<g>
			<path fill="#0000FF" d="M3171.1,2260.2c-12.5,0-37.1,15.4-63,31.8c-21.6,13.5-43.8,27.5-58.3,31.9c-11.8,3.5-23.5,5.4-35.8,5.4
				c-13.8,0-26.4-2.1-39.6-4.4c-14.8-2.4-30-4.9-46.9-4.3c-30.6,1.2-61.4,20.2-91.3,38.5c-25.7,16-52.7,32.6-78.6,36.6
				c-8.4,1.4-16.3,2-24.1,2c-17.1,0-30.3-3.2-43.1-6c-11.4-2.8-22.5-5.3-35.1-5.3c-5.3,0-10.5,0.4-16,1.3
				c-19.6,3.4-40.9,18.9-63.5,35.4c-26.9,19.6-54.8,39.9-82.8,42.5c-6.3,0.6-12.6,1-18.5,1c-17.1,0-30.8-2.5-42.7-4.5
				c-10.4-1.9-20.3-3.7-30.8-3.7c-8.4,0-16.5,1.2-25.2,3.3c-19.2,5.2-38,17.2-57.6,30.3c-26.4,17.2-53.9,35.2-83.2,34
				c-46.6-1.9-91.9-41.6-115.6-100.9c-21.5-54.2,16.4-138.8,34.4-156c1.5-1.4,2.8-2.9,2.1-4.4c0-0.5-0.6-1.3-2.1-1.3
				c-7.9,0-61.4,31.3-79.1,86.6c-18.6,57.3-38.1,81.5-54.2,100.8c-22.5,27.4-38.7,47.3-35.4,139.6c1.9,53.1,22.6,80.1,61.2,80.1
				c12.6,0,26.8-2.7,43.6-8.5c5.6-1.9,11.1-2.9,16.9-2.9c15.6,0,30,6.8,45.6,13.9c16,7.6,32.6,15.3,51.7,15.3c3.7,0,7.3-0.5,11-1
				c37-6.3,67.2-32,96.4-56.9c24.4-21,47.7-40.9,72.5-46.3c14.8-3.2,27.4-4.7,39.8-4.7c6.4,0,11.8,0.5,17.1,0.7
				c4.7,0.5,9.3,0.7,14.1,0.7c9.4,0,18.3-1.3,28.5-4.3c34.8-10.4,59.2-31.9,82.9-52.8c20.4-18,41.7-36.9,69.4-47.5
				c19.5-7.6,33-8.7,43.6-8.7c4.9,0,9.4,0.2,14.1,0.5c5.4,0.2,10.7,0.5,16.6,0.5c11.9,0,28.9-1,54.7-8.3c31.4-9,57.2-30.3,82-50.8
				c28-23.3,54.5-45.1,85.9-46.3l7.9-0.5c62.4-2.5,100-4.1,142.4-36.2c7.9-6,15.4-12,22.6-17.6c31.5-24.5,56.3-43.8,69.4-43.8
				c1,0,1.6-0.1,2.2-0.2c1.7-0.6,1.8-1.6,1.8-2C3178.9,2260.6,3174.6,2260.2,3171.1,2260.2z"/>
		</g>
	</g>
</g>
<g>
	<g>
		<g>
			<path fill="#0000FF" d="M4912.8,2260.2c-12.5,0-37.1,15.4-63,31.8c-21.6,13.5-43.8,27.5-58.3,31.9c-11.8,3.5-23.5,5.4-35.8,5.4
				c-13.8,0-26.4-2.1-39.6-4.4c-14.8-2.4-30-4.9-46.9-4.3c-30.6,1.2-61.4,20.2-91.3,38.5c-25.7,16-52.7,32.6-78.6,36.6
				c-8.4,1.4-16.3,2-24.1,2c-17.1,0-30.3-3.2-43.1-6c-11.4-2.8-22.5-5.3-35.1-5.3c-5.3,0-10.5,0.4-16,1.3
				c-19.6,3.4-40.9,18.9-63.5,35.4c-26.9,19.6-54.8,39.9-82.8,42.5c-6.3,0.6-12.6,1-18.5,1c-17.1,0-30.8-2.5-42.7-4.5
				c-10.4-1.9-20.3-3.7-30.8-3.7c-8.4,0-16.5,1.2-25.2,3.3c-19.2,5.2-38,17.2-57.6,30.3c-26.4,17.2-53.9,35.2-83.2,34
				c-46.6-1.9-91.9-41.6-115.6-100.9c-21.5-54.2,16.4-138.8,34.4-156c1.5-1.4,2.8-2.9,2.1-4.4c0-0.5-0.6-1.3-2.1-1.3
				c-7.9,0-61.4,31.3-79.1,86.6c-18.6,57.3-38.1,81.5-54.2,100.8c-22.5,27.4-38.7,47.3-35.4,139.6c1.9,53.1,22.6,80.1,61.2,80.1
				c12.6,0,26.8-2.7,43.6-8.5c5.6-1.9,11.1-2.9,16.9-2.9c15.6,0,30,6.8,45.6,13.9c16,7.6,32.6,15.3,51.7,15.3c3.7,0,7.3-0.5,11-1
				c37-6.3,67.2-32,96.4-56.9c24.4-21,47.7-40.9,72.5-46.3c14.8-3.2,27.4-4.7,39.8-4.7c6.4,0,11.8,0.5,17.1,0.7
				c4.7,0.5,9.3,0.7,14.1,0.7c9.4,0,18.3-1.3,28.5-4.3c34.8-10.4,59.2-31.9,82.9-52.8c20.4-18,41.7-36.9,69.4-47.5
				c19.5-7.6,33-8.7,43.6-8.7c4.9,0,9.4,0.2,14.1,0.5c5.4,0.2,10.7,0.5,16.6,0.5c11.9,0,28.9-1,54.7-8.3c31.4-9,57.2-30.3,82-50.8
				c28-23.3,54.5-45.1,85.9-46.3l7.9-0.5c62.4-2.5,100-4.1,142.4-36.2c7.9-6,15.4-12,22.6-17.6c31.5-24.5,56.3-43.8,69.4-43.8
				c1,0,1.6-0.1,2.2-0.2c1.7-0.6,1.8-1.6,1.8-2C4920.6,2260.6,4916.3,2260.2,4912.8,2260.2z"/>
		</g>
	</g>
</g>
<g>
	<g>
		<g>
			<path fill="#0000FF" d="M6654.6,2260.2c-12.5,0-37.1,15.4-63,31.8c-21.6,13.5-43.8,27.5-58.3,31.9c-11.8,3.5-23.5,5.4-35.8,5.4
				c-13.8,0-26.4-2.1-39.5-4.4c-14.8-2.4-30-4.9-46.9-4.3c-30.6,1.2-61.4,20.2-91.3,38.5c-25.7,16-52.7,32.6-78.6,36.6
				c-8.4,1.4-16.3,2-24.1,2c-17.1,0-30.3-3.2-43.1-6c-11.4-2.8-22.5-5.3-35.1-5.3c-5.3,0-10.5,0.4-16,1.3
				c-19.6,3.4-40.9,18.9-63.5,35.4c-26.9,19.6-54.8,39.9-82.8,42.5c-6.3,0.6-12.6,1-18.5,1c-17.1,0-30.8-2.5-42.7-4.5
				c-10.4-1.9-20.3-3.7-30.8-3.7c-8.4,0-16.5,1.2-25.2,3.3c-19.2,5.2-38,17.2-57.6,30.3c-26.4,17.2-53.9,35.2-83.2,34
				c-46.6-1.9-91.9-41.6-115.6-100.9c-21.5-54.2,16.4-138.8,34.4-156c1.5-1.4,2.8-2.9,2.1-4.4c0-0.5-0.6-1.3-2.1-1.3
				c-7.9,0-61.4,31.3-79.1,86.6c-18.6,57.3-38.1,81.5-54.2,100.8c-22.5,27.4-38.7,47.3-35.4,139.6c1.9,53.1,22.6,80.1,61.2,80.1
				c12.6,0,26.8-2.7,43.6-8.5c5.6-1.9,11.1-2.9,16.9-2.9c15.6,0,30,6.8,45.6,13.9c16,7.6,32.6,15.3,51.7,15.3c3.7,0,7.3-0.5,11-1
				c37-6.3,67.2-32,96.4-56.9c24.4-21,47.7-40.9,72.5-46.3c14.8-3.2,27.4-4.7,39.8-4.7c6.4,0,11.8,0.5,17.1,0.7
				c4.7,0.5,9.3,0.7,14.1,0.7c9.4,0,18.3-1.3,28.5-4.3c34.8-10.4,59.2-31.9,82.9-52.8c20.4-18,41.7-36.9,69.4-47.5
				c19.5-7.6,33-8.7,43.6-8.7c4.9,0,9.4,0.2,14.1,0.5c5.4,0.2,10.7,0.5,16.6,0.5c11.9,0,28.9-1,54.7-8.3c31.4-9,57.2-30.3,82-50.8
				c28-23.3,54.5-45.1,85.9-46.3l7.9-0.5c62.4-2.5,100-4.1,142.4-36.2c7.9-6,15.4-12,22.6-17.6c31.5-24.5,56.3-43.8,69.4-43.8
				c1,0,1.6-0.1,2.2-0.2c1.7-0.6,1.8-1.6,1.8-2C6662.4,2260.6,6658.1,2260.2,6654.6,2260.2z"/>
		</g>
	</g>
</g>
<g>
	<g>
		<g>
			<path fill="#0000FF" d="M8396.3,2260.2c-12.5,0-37.1,15.4-63,31.8c-21.6,13.5-43.8,27.5-58.3,31.9c-11.8,3.5-23.5,5.4-35.8,5.4
				c-13.8,0-26.4-2.1-39.5-4.4c-14.8-2.4-30-4.9-46.9-4.3c-30.6,1.2-61.4,20.2-91.3,38.5c-25.7,16-52.7,32.6-78.6,36.6
				c-8.4,1.4-16.3,2-24.1,2c-17.1,0-30.3-3.2-43.1-6c-11.4-2.8-22.5-5.3-35.1-5.3c-5.3,0-10.5,0.4-16,1.3
				c-19.6,3.4-40.9,18.9-63.5,35.4c-26.9,19.6-54.8,39.9-82.8,42.5c-6.3,0.6-12.6,1-18.5,1c-17.1,0-30.8-2.5-42.7-4.5
				c-10.4-1.9-20.3-3.7-30.8-3.7c-8.4,0-16.5,1.2-25.2,3.3c-19.2,5.2-38,17.2-57.6,30.3c-26.4,17.2-53.9,35.2-83.2,34
				c-46.6-1.9-91.9-41.6-115.6-100.9c-21.5-54.2,16.4-138.8,34.4-156c1.5-1.4,2.8-2.9,2.1-4.4c0-0.5-0.6-1.3-2.1-1.3
				c-7.9,0-61.4,31.3-79.1,86.6c-18.6,57.3-38.1,81.5-54.2,100.8c-22.5,27.4-38.7,47.3-35.4,139.6c1.9,53.1,22.6,80.1,61.2,80.1
				c12.6,0,26.8-2.7,43.6-8.5c5.6-1.9,11.1-2.9,16.9-2.9c15.6,0,30,6.8,45.6,13.9c16,7.6,32.6,15.3,51.7,15.3c3.7,0,7.3-0.5,11-1
				c37-6.3,67.2-32,96.4-56.9c24.4-21,47.7-40.9,72.5-46.3c14.8-3.2,27.4-4.7,39.8-4.7c6.4,0,11.8,0.5,17.1,0.7
				c4.7,0.5,9.3,0.7,14.1,0.7c9.4,0,18.3-1.3,28.5-4.3c34.8-10.4,59.2-31.9,82.9-52.8c20.4-18,41.7-36.9,69.4-47.5
				c19.5-7.6,33-8.7,43.6-8.7c4.9,0,9.4,0.2,14.1,0.5c5.4,0.2,10.7,0.5,16.6,0.5c11.9,0,28.9-1,54.7-8.3c31.4-9,57.2-30.3,82-50.8
				c28-23.3,54.5-45.1,85.9-46.3l7.9-0.5c62.4-2.5,100-4.1,142.4-36.2c7.9-6,15.4-12,22.6-17.6c31.5-24.5,56.3-43.8,69.4-43.8
				c1,0,1.6-0.1,2.2-0.2c1.7-0.6,1.8-1.6,1.8-2C8404.2,2260.6,8399.8,2260.2,8396.3,2260.2z"/>
		</g>
	</g>
</g>
<g>
	<g>
		<g>
			<path fill="#0000FF" d="M10138.1,2260.2c-12.5,0-37.1,15.4-63,31.8c-21.6,13.5-43.8,27.5-58.3,31.9c-11.8,3.5-23.5,5.4-35.8,5.4
				c-13.8,0-26.4-2.1-39.5-4.4c-14.8-2.4-30-4.9-46.9-4.3c-30.6,1.2-61.4,20.2-91.3,38.5c-25.7,16-52.7,32.6-78.6,36.6
				c-8.4,1.4-16.3,2-24.1,2c-17.1,0-30.3-3.2-43.1-6c-11.4-2.8-22.5-5.3-35.1-5.3c-5.3,0-10.5,0.4-16,1.3
				c-19.6,3.4-40.9,18.9-63.5,35.4c-26.9,19.6-54.8,39.9-82.8,42.5c-6.3,0.6-12.6,1-18.5,1c-17.1,0-30.8-2.5-42.7-4.5
				c-10.4-1.9-20.3-3.7-30.8-3.7c-8.4,0-16.5,1.2-25.2,3.3c-19.2,5.2-38,17.2-57.6,30.3c-26.4,17.2-53.9,35.2-83.2,34
				c-46.6-1.9-91.9-41.6-115.6-100.9c-21.5-54.2,16.4-138.8,34.4-156c1.5-1.4,2.8-2.9,2.1-4.4c0-0.5-0.6-1.3-2.1-1.3
				c-7.9,0-61.4,31.3-79.1,86.6c-18.6,57.3-38.1,81.5-54.2,100.8c-22.5,27.4-38.7,47.3-35.4,139.6c1.9,53.1,22.6,80.1,61.2,80.1
				c12.6,0,26.8-2.7,43.6-8.5c5.6-1.9,11.1-2.9,16.9-2.9c15.6,0,30,6.8,45.6,13.9c16,7.6,32.6,15.3,51.7,15.3c3.7,0,7.3-0.5,11-1
				c37-6.3,67.2-32,96.4-56.9c24.4-21,47.7-40.9,72.5-46.3c14.8-3.2,27.4-4.7,39.8-4.7c6.4,0,11.8,0.5,17.1,0.7
				c4.7,0.5,9.3,0.7,14.1,0.7c9.4,0,18.3-1.3,28.5-4.3c34.8-10.4,59.2-31.9,82.9-52.8c20.4-18,41.7-36.9,69.4-47.5
				c19.5-7.6,33-8.7,43.6-8.7c4.9,0,9.4,0.2,14.1,0.5c5.4,0.2,10.7,0.5,16.6,0.5c11.9,0,28.9-1,54.7-8.3c31.4-9,57.2-30.3,82-50.8
				c28-23.3,54.5-45.1,85.9-46.3l7.9-0.5c62.4-2.5,100-4.1,142.4-36.2c7.9-6,15.4-12,22.6-17.6c31.5-24.5,56.3-43.8,69.4-43.8
				c1,0,1.6-0.1,2.2-0.2c1.7-0.6,1.8-1.6,1.8-2C10145.9,2260.6,10141.6,2260.2,10138.1,2260.2z"/>
		</g>
	</g>
</g>
<g>
	<g>
		<g>
			<path fill="#0000FF" d="M2114.5,1446.7c-12.5,0-37.1,15.4-63,31.8c-21.6,13.5-43.8,27.5-58.3,31.9c-11.8,3.5-23.5,5.4-35.8,5.4
				c-13.8,0-26.4-2.1-39.6-4.4c-14.8-2.4-30-4.9-46.9-4.3c-30.6,1.2-61.4,20.2-91.3,38.5c-25.7,16-52.7,32.6-78.6,36.6
				c-8.4,1.4-16.3,2-24.1,2c-17.1,0-30.3-3.2-43.1-6c-11.4-2.8-22.5-5.3-35.1-5.3c-5.3,0-10.5,0.4-16,1.3
				c-19.6,3.4-40.9,18.9-63.5,35.4c-26.9,19.6-54.8,39.9-82.8,42.5c-6.3,0.6-12.6,1-18.5,1c-17.1,0-30.8-2.5-42.7-4.5
				c-10.4-1.9-20.3-3.7-30.8-3.7c-8.4,0-16.5,1.2-25.2,3.3c-19.2,5.2-38,17.2-57.6,30.3c-26.4,17.2-53.9,35.2-83.2,34
				c-46.6-1.9-91.9-41.6-115.6-100.9c-21.5-54.2,16.4-138.8,34.4-156c1.5-1.4,2.8-2.9,2.1-4.4c0-0.5-0.6-1.3-2.1-1.3
				c-7.9,0-61.4,31.3-79.1,86.6c-18.6,57.3-38.1,81.5-54.2,100.8c-22.5,27.4-38.7,47.3-35.4,139.6c1.9,53.1,22.6,80.1,61.2,80.1
				c12.6,0,26.8-2.7,43.6-8.5c5.6-1.9,11.1-2.9,16.9-2.9c15.6,0,30,6.8,45.6,13.9c16,7.6,32.6,15.3,51.7,15.3c3.7,0,7.3-0.5,11-1
				c37-6.3,67.2-32,96.4-56.9c24.4-21,47.7-40.9,72.5-46.3c14.8-3.2,27.4-4.7,39.8-4.7c6.4,0,11.8,0.5,17.1,0.7
				c4.7,0.5,9.3,0.7,14.1,0.7c9.4,0,18.3-1.3,28.5-4.3c34.8-10.4,59.2-31.9,82.9-52.8c20.4-18,41.7-36.9,69.4-47.5
				c19.5-7.6,33-8.7,43.6-8.7c4.9,0,9.4,0.2,14.1,0.5c5.4,0.2,10.7,0.5,16.6,0.5c11.9,0,28.9-1,54.7-8.3c31.4-9,57.2-30.3,82-50.8
				c28-23.3,54.5-45.1,85.9-46.3l7.9-0.5c62.4-2.5,100-4.1,142.4-36.2c7.9-6,15.4-12,22.6-17.6c31.5-24.5,56.3-43.8,69.4-43.8
				c1,0,1.6-0.1,2.2-0.2c1.7-0.6,1.8-1.6,1.8-2C2122.3,1447.1,2118,1446.7,2114.5,1446.7z"/>
		</g>
	</g>
</g>
<g>
	<g>
		<g>
			<path fill="#0000FF" d="M3856.2,1446.7c-12.5,0-37.1,15.4-63,31.8c-21.6,13.5-43.8,27.5-58.3,31.9c-11.8,3.5-23.5,5.4-35.8,5.4
				c-13.8,0-26.4-2.1-39.6-4.4c-14.8-2.4-30-4.9-46.9-4.3c-30.6,1.2-61.4,20.2-91.3,38.5c-25.7,16-52.7,32.6-78.6,36.6
				c-8.4,1.4-16.3,2-24.1,2c-17.1,0-30.3-3.2-43.1-6c-11.4-2.8-22.5-5.3-35.1-5.3c-5.3,0-10.5,0.4-16,1.3
				c-19.6,3.4-40.9,18.9-63.5,35.4c-26.9,19.6-54.8,39.9-82.8,42.5c-6.3,0.6-12.6,1-18.5,1c-17.1,0-30.8-2.5-42.7-4.5
				c-10.4-1.9-20.3-3.7-30.8-3.7c-8.4,0-16.5,1.2-25.2,3.3c-19.2,5.2-38,17.2-57.6,30.3c-26.4,17.2-53.9,35.2-83.2,34
				c-46.6-1.9-91.9-41.6-115.6-100.9c-21.5-54.2,16.4-138.8,34.4-156c1.5-1.4,2.8-2.9,2.1-4.4c0-0.5-0.6-1.3-2.1-1.3
				c-7.9,0-61.4,31.3-79.1,86.6c-18.6,57.3-38.1,81.5-54.2,100.8c-22.5,27.4-38.7,47.3-35.4,139.6c1.9,53.1,22.6,80.1,61.2,80.1
				c12.6,0,26.8-2.7,43.6-8.5c5.6-1.9,11.1-2.9,16.9-2.9c15.6,0,30,6.8,45.6,13.9c16,7.6,32.6,15.3,51.7,15.3c3.7,0,7.3-0.5,11-1
				c37-6.3,67.2-32,96.4-56.9c24.4-21,47.7-40.9,72.5-46.3c14.8-3.2,27.4-4.7,39.8-4.7c6.4,0,11.8,0.5,17.1,0.7
				c4.7,0.5,9.3,0.7,14.1,0.7c9.4,0,18.3-1.3,28.5-4.3c34.8-10.4,59.2-31.9,82.9-52.8c20.4-18,41.7-36.9,69.4-47.5
				c19.5-7.6,33-8.7,43.6-8.7c4.9,0,9.4,0.2,14.1,0.5c5.4,0.2,10.7,0.5,16.6,0.5c11.9,0,28.9-1,54.7-8.3c31.4-9,57.2-30.3,82-50.8
				c28-23.3,54.5-45.1,85.9-46.3l7.9-0.5c62.4-2.5,100-4.1,142.4-36.2c7.9-6,15.4-12,22.6-17.6c31.5-24.5,56.3-43.8,69.4-43.8
				c1,0,1.6-0.1,2.2-0.2c1.7-0.6,1.8-1.6,1.8-2C3864,1447.1,3859.7,1446.7,3856.2,1446.7z"/>
		</g>
	</g>
</g>
<g>
	<g>
		<g>
			<path fill="#0000FF" d="M5598,1446.7c-12.5,0-37.1,15.4-63,31.8c-21.6,13.5-43.8,27.5-58.3,31.9c-11.8,3.5-23.5,5.4-35.8,5.4
				c-13.8,0-26.4-2.1-39.6-4.4c-14.8-2.4-30-4.9-46.9-4.3c-30.6,1.2-61.4,20.2-91.3,38.5c-25.7,16-52.7,32.6-78.6,36.6
				c-8.4,1.4-16.3,2-24.1,2c-17.1,0-30.3-3.2-43.1-6c-11.4-2.8-22.5-5.3-35.1-5.3c-5.3,0-10.5,0.4-16,1.3
				c-19.6,3.4-40.9,18.9-63.5,35.4c-26.9,19.6-54.8,39.9-82.8,42.5c-6.3,0.6-12.6,1-18.5,1c-17.1,0-30.8-2.5-42.7-4.5
				c-10.4-1.9-20.3-3.7-30.8-3.7c-8.4,0-16.5,1.2-25.2,3.3c-19.2,5.2-38,17.2-57.6,30.3c-26.4,17.2-53.9,35.2-83.2,34
				c-46.6-1.9-91.9-41.6-115.6-100.9c-21.5-54.2,16.4-138.8,34.4-156c1.5-1.4,2.8-2.9,2.1-4.4c0-0.5-0.6-1.3-2.1-1.3
				c-7.9,0-61.4,31.3-79.1,86.6c-18.6,57.3-38.1,81.5-54.2,100.8c-22.5,27.4-38.7,47.3-35.4,139.6c1.9,53.1,22.6,80.1,61.2,80.1
				c12.6,0,26.8-2.7,43.6-8.5c5.6-1.9,11.1-2.9,16.9-2.9c15.6,0,30,6.8,45.6,13.9c16,7.6,32.6,15.3,51.7,15.3c3.7,0,7.3-0.5,11-1
				c37-6.3,67.2-32,96.4-56.9c24.4-21,47.7-40.9,72.5-46.3c14.8-3.2,27.4-4.7,39.8-4.7c6.4,0,11.8,0.5,17.1,0.7
				c4.7,0.5,9.3,0.7,14.1,0.7c9.4,0,18.3-1.3,28.5-4.3c34.8-10.4,59.2-31.9,82.9-52.8c20.4-18,41.7-36.9,69.4-47.5
				c19.5-7.6,33-8.7,43.6-8.7c4.9,0,9.4,0.2,14.1,0.5c5.4,0.2,10.7,0.5,16.6,0.5c11.9,0,28.9-1,54.7-8.3c31.4-9,57.2-30.3,82-50.8
				c28-23.3,54.5-45.1,85.9-46.3l7.9-0.5c62.4-2.5,100-4.1,142.4-36.2c7.9-6,15.4-12,22.6-17.6c31.5-24.5,56.3-43.8,69.4-43.8
				c1,0,1.6-0.1,2.2-0.2c1.7-0.6,1.8-1.6,1.8-2C5605.8,1447.1,5601.5,1446.7,5598,1446.7z"/>
		</g>
	</g>
</g>
<g>
	<g>
		<g>
			<path fill="#0000FF" d="M7339.7,1446.7c-12.5,0-37.1,15.4-63,31.8c-21.6,13.5-43.8,27.5-58.3,31.9c-11.8,3.5-23.5,5.4-35.8,5.4
				c-13.8,0-26.4-2.1-39.5-4.4c-14.8-2.4-30-4.9-46.9-4.3c-30.6,1.2-61.4,20.2-91.3,38.5c-25.7,16-52.7,32.6-78.6,36.6
				c-8.4,1.4-16.3,2-24.1,2c-17.1,0-30.3-3.2-43.1-6c-11.4-2.8-22.5-5.3-35.1-5.3c-5.3,0-10.5,0.4-16,1.3
				c-19.6,3.4-40.9,18.9-63.5,35.4c-26.9,19.6-54.8,39.9-82.8,42.5c-6.3,0.6-12.6,1-18.5,1c-17.1,0-30.8-2.5-42.7-4.5
				c-10.4-1.9-20.3-3.7-30.8-3.7c-8.4,0-16.5,1.2-25.2,3.3c-19.2,5.2-38,17.2-57.6,30.3c-26.4,17.2-53.9,35.2-83.2,34
				c-46.6-1.9-91.9-41.6-115.6-100.9c-21.5-54.2,16.4-138.8,34.4-156c1.5-1.4,2.8-2.9,2.1-4.4c0-0.5-0.6-1.3-2.1-1.3
				c-7.9,0-61.4,31.3-79.1,86.6c-18.6,57.3-38.1,81.5-54.2,100.8c-22.5,27.4-38.7,47.3-35.4,139.6c1.9,53.1,22.6,80.1,61.2,80.1
				c12.6,0,26.8-2.7,43.6-8.5c5.6-1.9,11.1-2.9,16.9-2.9c15.6,0,30,6.8,45.6,13.9c16,7.6,32.6,15.3,51.7,15.3c3.7,0,7.3-0.5,11-1
				c37-6.3,67.2-32,96.4-56.9c24.4-21,47.7-40.9,72.5-46.3c14.8-3.2,27.4-4.7,39.8-4.7c6.4,0,11.8,0.5,17.1,0.7
				c4.7,0.5,9.3,0.7,14.1,0.7c9.4,0,18.3-1.3,28.5-4.3c34.8-10.4,59.2-31.9,82.9-52.8c20.4-18,41.7-36.9,69.4-47.5
				c19.5-7.6,33-8.7,43.6-8.7c4.9,0,9.4,0.2,14.1,0.5c5.4,0.2,10.7,0.5,16.6,0.5c11.9,0,28.9-1,54.7-8.3c31.4-9,57.2-30.3,82-50.8
				c28-23.3,54.5-45.1,85.9-46.3l7.9-0.5c62.4-2.5,100-4.1,142.4-36.2c7.9-6,15.4-12,22.6-17.6c31.5-24.5,56.3-43.8,69.4-43.8
				c1,0,1.6-0.1,2.2-0.2c1.7-0.6,1.8-1.6,1.8-2C7347.6,1447.1,7343.2,1446.7,7339.7,1446.7z"/>
		</g>
	</g>
</g>
<g>
	<g>
		<g>
			<path fill="#0000FF" d="M9081.5,1446.7c-12.5,0-37.1,15.4-63,31.8c-21.6,13.5-43.8,27.5-58.3,31.9c-11.8,3.5-23.5,5.4-35.8,5.4
				c-13.8,0-26.4-2.1-39.5-4.4c-14.8-2.4-30-4.9-46.9-4.3c-30.6,1.2-61.4,20.2-91.3,38.5c-25.7,16-52.7,32.6-78.6,36.6
				c-8.4,1.4-16.3,2-24.1,2c-17.1,0-30.3-3.2-43.1-6c-11.4-2.8-22.5-5.3-35.1-5.3c-5.3,0-10.5,0.4-16,1.3
				c-19.6,3.4-40.9,18.9-63.5,35.4c-26.9,19.6-54.8,39.9-82.8,42.5c-6.3,0.6-12.6,1-18.5,1c-17.1,0-30.8-2.5-42.7-4.5
				c-10.4-1.9-20.3-3.7-30.8-3.7c-8.4,0-16.5,1.2-25.2,3.3c-19.2,5.2-38,17.2-57.6,30.3c-26.4,17.2-53.9,35.2-83.2,34
				c-46.6-1.9-91.9-41.6-115.6-100.9c-21.5-54.2,16.4-138.8,34.4-156c1.5-1.4,2.8-2.9,2.1-4.4c0-0.5-0.6-1.3-2.1-1.3
				c-7.9,0-61.4,31.3-79.1,86.6c-18.6,57.3-38.1,81.5-54.2,100.8c-22.5,27.4-38.7,47.3-35.4,139.6c1.9,53.1,22.6,80.1,61.2,80.1
				c12.6,0,26.8-2.7,43.6-8.5c5.6-1.9,11.1-2.9,16.9-2.9c15.6,0,30,6.8,45.6,13.9c16,7.6,32.6,15.3,51.7,15.3c3.7,0,7.3-0.5,11-1
				c37-6.3,67.2-32,96.4-56.9c24.4-21,47.7-40.9,72.5-46.3c14.8-3.2,27.4-4.7,39.8-4.7c6.4,0,11.8,0.5,17.1,0.7
				c4.7,0.5,9.3,0.7,14.1,0.7c9.4,0,18.3-1.3,28.5-4.3c34.8-10.4,59.2-31.9,82.9-52.8c20.4-18,41.7-36.9,69.4-47.5
				c19.5-7.6,33-8.7,43.6-8.7c4.8,0,9.4,0.2,14.1,0.5c5.4,0.2,10.7,0.5,16.6,0.5c11.9,0,28.9-1,54.7-8.3c31.4-9,57.2-30.3,82-50.8
				c28-23.3,54.5-45.1,85.9-46.3l7.9-0.5c62.4-2.5,100-4.1,142.4-36.2c7.9-6,15.4-12,22.6-17.6c31.5-24.5,56.3-43.8,69.4-43.8
				c1,0,1.6-0.1,2.2-0.2c1.7-0.6,1.8-1.6,1.8-2C9089.3,1447.1,9085,1446.7,9081.5,1446.7z"/>
		</g>
	</g>
</g>
<g>
	<g>
		<g>
			<path fill="#0000FF" d="M1429.3,3994.8c-12.5,0-37.1,15.4-63,31.8c-21.6,13.5-43.8,27.5-58.3,31.9c-11.8,3.5-23.5,5.4-35.8,5.4
				c-13.8,0-26.4-2.1-39.6-4.4c-14.8-2.4-30-4.9-46.9-4.3c-30.6,1.2-61.4,20.2-91.3,38.5c-25.7,16-52.7,32.6-78.6,36.6
				c-8.4,1.4-16.3,2-24.1,2c-17.1,0-30.3-3.2-43.1-6c-11.4-2.8-22.5-5.3-35.1-5.3c-5.3,0-10.5,0.4-16,1.3
				c-19.6,3.4-40.9,18.9-63.5,35.4c-26.9,19.6-54.8,39.9-82.8,42.5c-6.3,0.6-12.6,1-18.5,1c-17.1,0-30.8-2.5-42.7-4.5
				c-10.4-1.9-20.3-3.7-30.8-3.7c-8.4,0-16.5,1.2-25.2,3.3c-19.2,5.2-38,17.2-57.6,30.3c-26.4,17.2-53.9,35.2-83.2,34
				c-46.6-1.9-91.9-41.6-115.6-100.9c-21.5-54.2,16.4-138.8,34.4-156c1.5-1.4,2.8-2.9,2.1-4.4c0-0.5-0.6-1.3-2.1-1.3
				c-7.9,0-61.4,31.3-79.1,86.6c-18.6,57.3-38.1,81.5-54.2,100.8c-22.5,27.4-38.7,47.3-35.4,139.6c1.9,53.1,22.6,80.1,61.2,80.1
				c12.6,0,26.8-2.7,43.6-8.5c5.6-1.9,11.1-2.9,16.9-2.9c15.6,0,30,6.8,45.6,13.9c16,7.6,32.6,15.3,51.7,15.3c3.7,0,7.3-0.5,11-1
				c37-6.3,67.2-32,96.4-56.9c24.4-21,47.7-40.9,72.5-46.3c14.8-3.2,27.4-4.7,39.8-4.7c6.4,0,11.8,0.5,17.1,0.7
				c4.7,0.5,9.3,0.7,14.1,0.7c9.4,0,18.3-1.3,28.5-4.3c34.8-10.4,59.2-31.9,82.9-52.8c20.4-18,41.7-36.9,69.4-47.5
				c19.5-7.6,33-8.7,43.6-8.7c4.9,0,9.4,0.2,14.1,0.5c5.4,0.2,10.7,0.5,16.6,0.5c11.9,0,28.9-1,54.7-8.3c31.4-9,57.2-30.3,82-50.8
				c28-23.3,54.5-45.1,85.9-46.3l7.9-0.5c62.4-2.5,100-4.1,142.4-36.2c7.9-6,15.4-12,22.6-17.6c31.5-24.5,56.3-43.8,69.4-43.8
				c1,0,1.6-0.1,2.2-0.2c1.7-0.6,1.8-1.6,1.8-2C1437.1,3995.2,1432.8,3994.8,1429.3,3994.8z"/>
		</g>
	</g>
</g>
<g>
	<g>
		<g>
			<path fill="#0000FF" d="M3171.1,3994.8c-12.5,0-37.1,15.4-63,31.8c-21.6,13.5-43.8,27.5-58.3,31.9c-11.8,3.5-23.5,5.4-35.8,5.4
				c-13.8,0-26.4-2.1-39.6-4.4c-14.8-2.4-30-4.9-46.9-4.3c-30.6,1.2-61.4,20.2-91.3,38.5c-25.7,16-52.7,32.6-78.6,36.6
				c-8.4,1.4-16.3,2-24.1,2c-17.1,0-30.3-3.2-43.1-6c-11.4-2.8-22.5-5.3-35.1-5.3c-5.3,0-10.5,0.4-16,1.3
				c-19.6,3.4-40.9,18.9-63.5,35.4c-26.9,19.6-54.8,39.9-82.8,42.5c-6.3,0.6-12.6,1-18.5,1c-17.1,0-30.8-2.5-42.7-4.5
				c-10.4-1.9-20.3-3.7-30.8-3.7c-8.4,0-16.5,1.2-25.2,3.3c-19.2,5.2-38,17.2-57.6,30.3c-26.4,17.2-53.9,35.2-83.2,34
				c-46.6-1.9-91.9-41.6-115.6-100.9c-21.5-54.2,16.4-138.8,34.4-156c1.5-1.4,2.8-2.9,2.1-4.4c0-0.5-0.6-1.3-2.1-1.3
				c-7.9,0-61.4,31.3-79.1,86.6c-18.6,57.3-38.1,81.5-54.2,100.8c-22.5,27.4-38.7,47.3-35.4,139.6c1.9,53.1,22.6,80.1,61.2,80.1
				c12.6,0,26.8-2.7,43.6-8.5c5.6-1.9,11.1-2.9,16.9-2.9c15.6,0,30,6.8,45.6,13.9c16,7.6,32.6,15.3,51.7,15.3c3.7,0,7.3-0.5,11-1
				c37-6.3,67.2-32,96.4-56.9c24.4-21,47.7-40.9,72.5-46.3c14.8-3.2,27.4-4.7,39.8-4.7c6.4,0,11.8,0.5,17.1,0.7
				c4.7,0.5,9.3,0.7,14.1,0.7c9.4,0,18.3-1.3,28.5-4.3c34.8-10.4,59.2-31.9,82.9-52.8c20.4-18,41.7-36.9,69.4-47.5
				c19.5-7.6,33-8.7,43.6-8.7c4.9,0,9.4,0.2,14.1,0.5c5.4,0.2,10.7,0.5,16.6,0.5c11.9,0,28.9-1,54.7-8.3c31.4-9,57.2-30.3,82-50.8
				c28-23.3,54.5-45.1,85.9-46.3l7.9-0.5c62.4-2.5,100-4.1,142.4-36.2c7.9-6,15.4-12,22.6-17.6c31.5-24.5,56.3-43.8,69.4-43.8
				c1,0,1.6-0.1,2.2-0.2c1.7-0.6,1.8-1.6,1.8-2C3178.9,3995.2,3174.6,3994.8,3171.1,3994.8z"/>
		</g>
	</g>
</g>
<g>
	<g>
		<g>
			<path fill="#0000FF" d="M4912.8,3994.8c-12.5,0-37.1,15.4-63,31.8c-21.6,13.5-43.8,27.5-58.3,31.9c-11.8,3.5-23.5,5.4-35.8,5.4
				c-13.8,0-26.4-2.1-39.6-4.4c-14.8-2.4-30-4.9-46.9-4.3c-30.6,1.2-61.4,20.2-91.3,38.5c-25.7,16-52.7,32.6-78.6,36.6
				c-8.4,1.4-16.3,2-24.1,2c-17.1,0-30.3-3.2-43.1-6c-11.4-2.8-22.5-5.3-35.1-5.3c-5.3,0-10.5,0.4-16,1.3
				c-19.6,3.4-40.9,18.9-63.5,35.4c-26.9,19.6-54.8,39.9-82.8,42.5c-6.3,0.6-12.6,1-18.5,1c-17.1,0-30.8-2.5-42.7-4.5
				c-10.4-1.9-20.3-3.7-30.8-3.7c-8.4,0-16.5,1.2-25.2,3.3c-19.2,5.2-38,17.2-57.6,30.3c-26.4,17.2-53.9,35.2-83.2,34
				c-46.6-1.9-91.9-41.6-115.6-100.9c-21.5-54.2,16.4-138.8,34.4-156c1.5-1.4,2.8-2.9,2.1-4.4c0-0.5-0.6-1.3-2.1-1.3
				c-7.9,0-61.4,31.3-79.1,86.6c-18.6,57.3-38.1,81.5-54.2,100.8c-22.5,27.4-38.7,47.3-35.4,139.6c1.9,53.1,22.6,80.1,61.2,80.1
				c12.6,0,26.8-2.7,43.6-8.5c5.6-1.9,11.1-2.9,16.9-2.9c15.6,0,30,6.8,45.6,13.9c16,7.6,32.6,15.3,51.7,15.3c3.7,0,7.3-0.5,11-1
				c37-6.3,67.2-32,96.4-56.9c24.4-21,47.7-40.9,72.5-46.3c14.8-3.2,27.4-4.7,39.8-4.7c6.4,0,11.8,0.5,17.1,0.7
				c4.7,0.5,9.3,0.7,14.1,0.7c9.4,0,18.3-1.3,28.5-4.3c34.8-10.4,59.2-31.9,82.9-52.8c20.4-18,41.7-36.9,69.4-47.5
				c19.5-7.6,33-8.7,43.6-8.7c4.9,0,9.4,0.2,14.1,0.5c5.4,0.2,10.7,0.5,16.6,0.5c11.9,0,28.9-1,54.7-8.3c31.4-9,57.2-30.3,82-50.8
				c28-23.3,54.5-45.1,85.9-46.3l7.9-0.5c62.4-2.5,100-4.1,142.4-36.2c7.9-6,15.4-12,22.6-17.6c31.5-24.5,56.3-43.8,69.4-43.8
				c1,0,1.6-0.1,2.2-0.2c1.7-0.6,1.8-1.6,1.8-2C4920.6,3995.2,4916.3,3994.8,4912.8,3994.8z"/>
		</g>
	</g>
</g>
<g>
	<g>
		<g>
			<path fill="#0000FF" d="M6654.6,3994.8c-12.5,0-37.1,15.4-63,31.8c-21.6,13.5-43.8,27.5-58.3,31.9c-11.8,3.5-23.5,5.4-35.8,5.4
				c-13.8,0-26.4-2.1-39.5-4.4c-14.8-2.4-30-4.9-46.9-4.3c-30.6,1.2-61.4,20.2-91.3,38.5c-25.7,16-52.7,32.6-78.6,36.6
				c-8.4,1.4-16.3,2-24.1,2c-17.1,0-30.3-3.2-43.1-6c-11.4-2.8-22.5-5.3-35.1-5.3c-5.3,0-10.5,0.4-16,1.3
				c-19.6,3.4-40.9,18.9-63.5,35.4c-26.9,19.6-54.8,39.9-82.8,42.5c-6.3,0.6-12.6,1-18.5,1c-17.1,0-30.8-2.5-42.7-4.5
				c-10.4-1.9-20.3-3.7-30.8-3.7c-8.4,0-16.5,1.2-25.2,3.3c-19.2,5.2-38,17.2-57.6,30.3c-26.4,17.2-53.9,35.2-83.2,34
				c-46.6-1.9-91.9-41.6-115.6-100.9c-21.5-54.2,16.4-138.8,34.4-156c1.5-1.4,2.8-2.9,2.1-4.4c0-0.5-0.6-1.3-2.1-1.3
				c-7.9,0-61.4,31.3-79.1,86.6c-18.6,57.3-38.1,81.5-54.2,100.8c-22.5,27.4-38.7,47.3-35.4,139.6c1.9,53.1,22.6,80.1,61.2,80.1
				c12.6,0,26.8-2.7,43.6-8.5c5.6-1.9,11.1-2.9,16.9-2.9c15.6,0,30,6.8,45.6,13.9c16,7.6,32.6,15.3,51.7,15.3c3.7,0,7.3-0.5,11-1
				c37-6.3,67.2-32,96.4-56.9c24.4-21,47.7-40.9,72.5-46.3c14.8-3.2,27.4-4.7,39.8-4.7c6.4,0,11.8,0.5,17.1,0.7
				c4.7,0.5,9.3,0.7,14.1,0.7c9.4,0,18.3-1.3,28.5-4.3c34.8-10.4,59.2-31.9,82.9-52.8c20.4-18,41.7-36.9,69.4-47.5
				c19.5-7.6,33-8.7,43.6-8.7c4.9,0,9.4,0.2,14.1,0.5c5.4,0.2,10.7,0.5,16.6,0.5c11.9,0,28.9-1,54.7-8.3c31.4-9,57.2-30.3,82-50.8
				c28-23.3,54.5-45.1,85.9-46.3l7.9-0.5c62.4-2.5,100-4.1,142.4-36.2c7.9-6,15.4-12,22.6-17.6c31.5-24.5,56.3-43.8,69.4-43.8
				c1,0,1.6-0.1,2.2-0.2c1.7-0.6,1.8-1.6,1.8-2C6662.4,3995.2,6658.1,3994.8,6654.6,3994.8z"/>
		</g>
	</g>
</g>
<g>
	<g>
		<g>
			<path fill="#0000FF" d="M8396.3,3994.8c-12.5,0-37.1,15.4-63,31.8c-21.6,13.5-43.8,27.5-58.3,31.9c-11.8,3.5-23.5,5.4-35.8,5.4
				c-13.8,0-26.4-2.1-39.5-4.4c-14.8-2.4-30-4.9-46.9-4.3c-30.6,1.2-61.4,20.2-91.3,38.5c-25.7,16-52.7,32.6-78.6,36.6
				c-8.4,1.4-16.3,2-24.1,2c-17.1,0-30.3-3.2-43.1-6c-11.4-2.8-22.5-5.3-35.1-5.3c-5.3,0-10.5,0.4-16,1.3
				c-19.6,3.4-40.9,18.9-63.5,35.4c-26.9,19.6-54.8,39.9-82.8,42.5c-6.3,0.6-12.6,1-18.5,1c-17.1,0-30.8-2.5-42.7-4.5
				c-10.4-1.9-20.3-3.7-30.8-3.7c-8.4,0-16.5,1.2-25.2,3.3c-19.2,5.2-38,17.2-57.6,30.3c-26.4,17.2-53.9,35.2-83.2,34
				c-46.6-1.9-91.9-41.6-115.6-100.9c-21.5-54.2,16.4-138.8,34.4-156c1.5-1.4,2.8-2.9,2.1-4.4c0-0.5-0.6-1.3-2.1-1.3
				c-7.9,0-61.4,31.3-79.1,86.6c-18.6,57.3-38.1,81.5-54.2,100.8c-22.5,27.4-38.7,47.3-35.4,139.6c1.9,53.1,22.6,80.1,61.2,80.1
				c12.6,0,26.8-2.7,43.6-8.5c5.6-1.9,11.1-2.9,16.9-2.9c15.6,0,30,6.8,45.6,13.9c16,7.6,32.6,15.3,51.7,15.3c3.7,0,7.3-0.5,11-1
				c37-6.3,67.2-32,96.4-56.9c24.4-21,47.7-40.9,72.5-46.3c14.8-3.2,27.4-4.7,39.8-4.7c6.4,0,11.8,0.5,17.1,0.7
				c4.7,0.5,9.3,0.7,14.1,0.7c9.4,0,18.3-1.3,28.5-4.3c34.8-10.4,59.2-31.9,82.9-52.8c20.4-18,41.7-36.9,69.4-47.5
				c19.5-7.6,33-8.7,43.6-8.7c4.9,0,9.4,0.2,14.1,0.5c5.4,0.2,10.7,0.5,16.6,0.5c11.9,0,28.9-1,54.7-8.3c31.4-9,57.2-30.3,82-50.8
				c28-23.3,54.5-45.1,85.9-46.3l7.9-0.5c62.4-2.5,100-4.1,142.4-36.2c7.9-6,15.4-12,22.6-17.6c31.5-24.5,56.3-43.8,69.4-43.8
				c1,0,1.6-0.1,2.2-0.2c1.7-0.6,1.8-1.6,1.8-2C8404.2,3995.2,8399.8,3994.8,8396.3,3994.8z"/>
		</g>
	</g>
</g>
<g>
	<g>
		<g>
			<path fill="#0000FF" d="M10138.1,3994.8c-12.5,0-37.1,15.4-63,31.8c-21.6,13.5-43.8,27.5-58.3,31.9c-11.8,3.5-23.5,5.4-35.8,5.4
				c-13.8,0-26.4-2.1-39.5-4.4c-14.8-2.4-30-4.9-46.9-4.3c-30.6,1.2-61.4,20.2-91.3,38.5c-25.7,16-52.7,32.6-78.6,36.6
				c-8.4,1.4-16.3,2-24.1,2c-17.1,0-30.3-3.2-43.1-6c-11.4-2.8-22.5-5.3-35.1-5.3c-5.3,0-10.5,0.4-16,1.3
				c-19.6,3.4-40.9,18.9-63.5,35.4c-26.9,19.6-54.8,39.9-82.8,42.5c-6.3,0.6-12.6,1-18.5,1c-17.1,0-30.8-2.5-42.7-4.5
				c-10.4-1.9-20.3-3.7-30.8-3.7c-8.4,0-16.5,1.2-25.2,3.3c-19.2,5.2-38,17.2-57.6,30.3c-26.4,17.2-53.9,35.2-83.2,34
				c-46.6-1.9-91.9-41.6-115.6-100.9c-21.5-54.2,16.4-138.8,34.4-156c1.5-1.4,2.8-2.9,2.1-4.4c0-0.5-0.6-1.3-2.1-1.3
				c-7.9,0-61.4,31.3-79.1,86.6c-18.6,57.3-38.1,81.5-54.2,100.8c-22.5,27.4-38.7,47.3-35.4,139.6c1.9,53.1,22.6,80.1,61.2,80.1
				c12.6,0,26.8-2.7,43.6-8.5c5.6-1.9,11.1-2.9,16.9-2.9c15.6,0,30,6.8,45.6,13.9c16,7.6,32.6,15.3,51.7,15.3c3.7,0,7.3-0.5,11-1
				c37-6.3,67.2-32,96.4-56.9c24.4-21,47.7-40.9,72.5-46.3c14.8-3.2,27.4-4.7,39.8-4.7c6.4,0,11.8,0.5,17.1,0.7
				c4.7,0.5,9.3,0.7,14.1,0.7c9.4,0,18.3-1.3,28.5-4.3c34.8-10.4,59.2-31.9,82.9-52.8c20.4-18,41.7-36.9,69.4-47.5
				c19.5-7.6,33-8.7,43.6-8.7c4.9,0,9.4,0.2,14.1,0.5c5.4,0.2,10.7,0.5,16.6,0.5c11.9,0,28.9-1,54.7-8.3c31.4-9,57.2-30.3,82-50.8
				c28-23.3,54.5-45.1,85.9-46.3l7.9-0.5c62.4-2.5,100-4.1,142.4-36.2c7.9-6,15.4-12,22.6-17.6c31.5-24.5,56.3-43.8,69.4-43.8
				c1,0,1.6-0.1,2.2-0.2c1.7-0.6,1.8-1.6,1.8-2C10145.9,3995.2,10141.6,3994.8,10138.1,3994.8z"/>
		</g>
	</g>
</g>
<g>
	<g>
		<g>
			<path fill="#0000FF" d="M2114.5,3151.4c-12.5,0-37.1,15.4-63,31.8c-21.6,13.5-43.8,27.5-58.3,31.9c-11.8,3.5-23.5,5.4-35.8,5.4
				c-13.8,0-26.4-2.1-39.6-4.4c-14.8-2.4-30-4.9-46.9-4.3c-30.6,1.2-61.4,20.2-91.3,38.5c-25.7,16-52.7,32.6-78.6,36.6
				c-8.4,1.4-16.3,2-24.1,2c-17.1,0-30.3-3.2-43.1-6c-11.4-2.8-22.5-5.3-35.1-5.3c-5.3,0-10.5,0.4-16,1.3
				c-19.6,3.4-40.9,18.9-63.5,35.4c-26.9,19.6-54.8,39.9-82.8,42.5c-6.3,0.6-12.6,1-18.5,1c-17.1,0-30.8-2.5-42.7-4.5
				c-10.4-1.9-20.3-3.7-30.8-3.7c-8.4,0-16.5,1.2-25.2,3.3c-19.2,5.2-38,17.2-57.6,30.3c-26.4,17.2-53.9,35.2-83.2,34
				c-46.6-1.9-91.9-41.6-115.6-100.9c-21.5-54.2,16.4-138.8,34.4-156c1.5-1.4,2.8-2.9,2.1-4.4c0-0.5-0.6-1.3-2.1-1.3
				c-7.9,0-61.4,31.3-79.1,86.6c-18.6,57.3-38.1,81.5-54.2,100.8c-22.5,27.4-38.7,47.3-35.4,139.6c1.9,53.1,22.6,80.1,61.2,80.1
				c12.6,0,26.8-2.7,43.6-8.5c5.6-1.9,11.1-2.9,16.9-2.9c15.6,0,30,6.8,45.6,13.9c16,7.6,32.6,15.3,51.7,15.3c3.7,0,7.3-0.5,11-1
				c37-6.3,67.2-32,96.4-56.9c24.4-21,47.7-40.9,72.5-46.3c14.8-3.2,27.4-4.7,39.8-4.7c6.4,0,11.8,0.5,17.1,0.7
				c4.7,0.5,9.3,0.7,14.1,0.7c9.4,0,18.3-1.3,28.5-4.3c34.8-10.4,59.2-31.9,82.9-52.8c20.4-18,41.7-36.9,69.4-47.5
				c19.5-7.6,33-8.7,43.6-8.7c4.9,0,9.4,0.2,14.1,0.5c5.4,0.2,10.7,0.5,16.6,0.5c11.9,0,28.9-1,54.7-8.3c31.4-9,57.2-30.3,82-50.8
				c28-23.3,54.5-45.1,85.9-46.3l7.9-0.5c62.4-2.5,100-4.1,142.4-36.2c7.9-6,15.4-12,22.6-17.6c31.5-24.5,56.3-43.8,69.4-43.8
				c1,0,1.6-0.1,2.2-0.2c1.7-0.6,1.8-1.6,1.8-2C2122.3,3151.8,2118,3151.4,2114.5,3151.4z"/>
		</g>
	</g>
</g>
<g>
	<g>
		<g>
			<path fill="#0000FF" d="M3856.2,3151.4c-12.5,0-37.1,15.4-63,31.8c-21.6,13.5-43.8,27.5-58.3,31.9c-11.8,3.5-23.5,5.4-35.8,5.4
				c-13.8,0-26.4-2.1-39.6-4.4c-14.8-2.4-30-4.9-46.9-4.3c-30.6,1.2-61.4,20.2-91.3,38.5c-25.7,16-52.7,32.6-78.6,36.6
				c-8.4,1.4-16.3,2-24.1,2c-17.1,0-30.3-3.2-43.1-6c-11.4-2.8-22.5-5.3-35.1-5.3c-5.3,0-10.5,0.4-16,1.3
				c-19.6,3.4-40.9,18.9-63.5,35.4c-26.9,19.6-54.8,39.9-82.8,42.5c-6.3,0.6-12.6,1-18.5,1c-17.1,0-30.8-2.5-42.7-4.5
				c-10.4-1.9-20.3-3.7-30.8-3.7c-8.4,0-16.5,1.2-25.2,3.3c-19.2,5.2-38,17.2-57.6,30.3c-26.4,17.2-53.9,35.2-83.2,34
				c-46.6-1.9-91.9-41.6-115.6-100.9c-21.5-54.2,16.4-138.8,34.4-156c1.5-1.4,2.8-2.9,2.1-4.4c0-0.5-0.6-1.3-2.1-1.3
				c-7.9,0-61.4,31.3-79.1,86.6c-18.6,57.3-38.1,81.5-54.2,100.8c-22.5,27.4-38.7,47.3-35.4,139.6c1.9,53.1,22.6,80.1,61.2,80.1
				c12.6,0,26.8-2.7,43.6-8.5c5.6-1.9,11.1-2.9,16.9-2.9c15.6,0,30,6.8,45.6,13.9c16,7.6,32.6,15.3,51.7,15.3c3.7,0,7.3-0.5,11-1
				c37-6.3,67.2-32,96.4-56.9c24.4-21,47.7-40.9,72.5-46.3c14.8-3.2,27.4-4.7,39.8-4.7c6.4,0,11.8,0.5,17.1,0.7
				c4.7,0.5,9.3,0.7,14.1,0.7c9.4,0,18.3-1.3,28.5-4.3c34.8-10.4,59.2-31.9,82.9-52.8c20.4-18,41.7-36.9,69.4-47.5
				c19.5-7.6,33-8.7,43.6-8.7c4.9,0,9.4,0.2,14.1,0.5c5.4,0.2,10.7,0.5,16.6,0.5c11.9,0,28.9-1,54.7-8.3c31.4-9,57.2-30.3,82-50.8
				c28-23.3,54.5-45.1,85.9-46.3l7.9-0.5c62.4-2.5,100-4.1,142.4-36.2c7.9-6,15.4-12,22.6-17.6c31.5-24.5,56.3-43.8,69.4-43.8
				c1,0,1.6-0.1,2.2-0.2c1.7-0.6,1.8-1.6,1.8-2C3864,3151.8,3859.7,3151.4,3856.2,3151.4z"/>
		</g>
	</g>
</g>
<g>
	<g>
		<g>
			<path fill="#0000FF" d="M5598,3151.4c-12.5,0-37.1,15.4-63,31.8c-21.6,13.5-43.8,27.5-58.3,31.9c-11.8,3.5-23.5,5.4-35.8,5.4
				c-13.8,0-26.4-2.1-39.6-4.4c-14.8-2.4-30-4.9-46.9-4.3c-30.6,1.2-61.4,20.2-91.3,38.5c-25.7,16-52.7,32.6-78.6,36.6
				c-8.4,1.4-16.3,2-24.1,2c-17.1,0-30.3-3.2-43.1-6c-11.4-2.8-22.5-5.3-35.1-5.3c-5.3,0-10.5,0.4-16,1.3
				c-19.6,3.4-40.9,18.9-63.5,35.4c-26.9,19.6-54.8,39.9-82.8,42.5c-6.3,0.6-12.6,1-18.5,1c-17.1,0-30.8-2.5-42.7-4.5
				c-10.4-1.9-20.3-3.7-30.8-3.7c-8.4,0-16.5,1.2-25.2,3.3c-19.2,5.2-38,17.2-57.6,30.3c-26.4,17.2-53.9,35.2-83.2,34
				c-46.6-1.9-91.9-41.6-115.6-100.9c-21.5-54.2,16.4-138.8,34.4-156c1.5-1.4,2.8-2.9,2.1-4.4c0-0.5-0.6-1.3-2.1-1.3
				c-7.9,0-61.4,31.3-79.1,86.6c-18.6,57.3-38.1,81.5-54.2,100.8c-22.5,27.4-38.7,47.3-35.4,139.6c1.9,53.1,22.6,80.1,61.2,80.1
				c12.6,0,26.8-2.7,43.6-8.5c5.6-1.9,11.1-2.9,16.9-2.9c15.6,0,30,6.8,45.6,13.9c16,7.6,32.6,15.3,51.7,15.3c3.7,0,7.3-0.5,11-1
				c37-6.3,67.2-32,96.4-56.9c24.4-21,47.7-40.9,72.5-46.3c14.8-3.2,27.4-4.7,39.8-4.7c6.4,0,11.8,0.5,17.1,0.7
				c4.7,0.5,9.3,0.7,14.1,0.7c9.4,0,18.3-1.3,28.5-4.3c34.8-10.4,59.2-31.9,82.9-52.8c20.4-18,41.7-36.9,69.4-47.5
				c19.5-7.6,33-8.7,43.6-8.7c4.9,0,9.4,0.2,14.1,0.5c5.4,0.2,10.7,0.5,16.6,0.5c11.9,0,28.9-1,54.7-8.3c31.4-9,57.2-30.3,82-50.8
				c28-23.3,54.5-45.1,85.9-46.3l7.9-0.5c62.4-2.5,100-4.1,142.4-36.2c7.9-6,15.4-12,22.6-17.6c31.5-24.5,56.3-43.8,69.4-43.8
				c1,0,1.6-0.1,2.2-0.2c1.7-0.6,1.8-1.6,1.8-2C5605.8,3151.8,5601.5,3151.4,5598,3151.4z"/>
		</g>
	</g>
</g>
<g>
	<g>
		<g>
			<path fill="#0000FF" d="M7339.7,3151.4c-12.5,0-37.1,15.4-63,31.8c-21.6,13.5-43.8,27.5-58.3,31.9c-11.8,3.5-23.5,5.4-35.8,5.4
				c-13.8,0-26.4-2.1-39.5-4.4c-14.8-2.4-30-4.9-46.9-4.3c-30.6,1.2-61.4,20.2-91.3,38.5c-25.7,16-52.7,32.6-78.6,36.6
				c-8.4,1.4-16.3,2-24.1,2c-17.1,0-30.3-3.2-43.1-6c-11.4-2.8-22.5-5.3-35.1-5.3c-5.3,0-10.5,0.4-16,1.3
				c-19.6,3.4-40.9,18.9-63.5,35.4c-26.9,19.6-54.8,39.9-82.8,42.5c-6.3,0.6-12.6,1-18.5,1c-17.1,0-30.8-2.5-42.7-4.5
				c-10.4-1.9-20.3-3.7-30.8-3.7c-8.4,0-16.5,1.2-25.2,3.3c-19.2,5.2-38,17.2-57.6,30.3c-26.4,17.2-53.9,35.2-83.2,34
				c-46.6-1.9-91.9-41.6-115.6-100.9c-21.5-54.2,16.4-138.8,34.4-156c1.5-1.4,2.8-2.9,2.1-4.4c0-0.5-0.6-1.3-2.1-1.3
				c-7.9,0-61.4,31.3-79.1,86.6c-18.6,57.3-38.1,81.5-54.2,100.8c-22.5,27.4-38.7,47.3-35.4,139.6c1.9,53.1,22.6,80.1,61.2,80.1
				c12.6,0,26.8-2.7,43.6-8.5c5.6-1.9,11.1-2.9,16.9-2.9c15.6,0,30,6.8,45.6,13.9c16,7.6,32.6,15.3,51.7,15.3c3.7,0,7.3-0.5,11-1
				c37-6.3,67.2-32,96.4-56.9c24.4-21,47.7-40.9,72.5-46.3c14.8-3.2,27.4-4.7,39.8-4.7c6.4,0,11.8,0.5,17.1,0.7
				c4.7,0.5,9.3,0.7,14.1,0.7c9.4,0,18.3-1.3,28.5-4.3c34.8-10.4,59.2-31.9,82.9-52.8c20.4-18,41.7-36.9,69.4-47.5
				c19.5-7.6,33-8.7,43.6-8.7c4.9,0,9.4,0.2,14.1,0.5c5.4,0.2,10.7,0.5,16.6,0.5c11.9,0,28.9-1,54.7-8.3c31.4-9,57.2-30.3,82-50.8
				c28-23.3,54.5-45.1,85.9-46.3l7.9-0.5c62.4-2.5,100-4.1,142.4-36.2c7.9-6,15.4-12,22.6-17.6c31.5-24.5,56.3-43.8,69.4-43.8
				c1,0,1.6-0.1,2.2-0.2c1.7-0.6,1.8-1.6,1.8-2C7347.6,3151.8,7343.2,3151.4,7339.7,3151.4z"/>
		</g>
	</g>
</g>
<g>
	<g>
		<g>
			<path fill="#0000FF" d="M9081.5,3151.4c-12.5,0-37.1,15.4-63,31.8c-21.6,13.5-43.8,27.5-58.3,31.9c-11.8,3.5-23.5,5.4-35.8,5.4
				c-13.8,0-26.4-2.1-39.5-4.4c-14.8-2.4-30-4.9-46.9-4.3c-30.6,1.2-61.4,20.2-91.3,38.5c-25.7,16-52.7,32.6-78.6,36.6
				c-8.4,1.4-16.3,2-24.1,2c-17.1,0-30.3-3.2-43.1-6c-11.4-2.8-22.5-5.3-35.1-5.3c-5.3,0-10.5,0.4-16,1.3
				c-19.6,3.4-40.9,18.9-63.5,35.4c-26.9,19.6-54.8,39.9-82.8,42.5c-6.3,0.6-12.6,1-18.5,1c-17.1,0-30.8-2.5-42.7-4.5
				c-10.4-1.9-20.3-3.7-30.8-3.7c-8.4,0-16.5,1.2-25.2,3.3c-19.2,5.2-38,17.2-57.6,30.3c-26.4,17.2-53.9,35.2-83.2,34
				c-46.6-1.9-91.9-41.6-115.6-100.9c-21.5-54.2,16.4-138.8,34.4-156c1.5-1.4,2.8-2.9,2.1-4.4c0-0.5-0.6-1.3-2.1-1.3
				c-7.9,0-61.4,31.3-79.1,86.6c-18.6,57.3-38.1,81.5-54.2,100.8c-22.5,27.4-38.7,47.3-35.4,139.6c1.9,53.1,22.6,80.1,61.2,80.1
				c12.6,0,26.8-2.7,43.6-8.5c5.6-1.9,11.1-2.9,16.9-2.9c15.6,0,30,6.8,45.6,13.9c16,7.6,32.6,15.3,51.7,15.3c3.7,0,7.3-0.5,11-1
				c37-6.3,67.2-32,96.4-56.9c24.4-21,47.7-40.9,72.5-46.3c14.8-3.2,27.4-4.7,39.8-4.7c6.4,0,11.8,0.5,17.1,0.7
				c4.7,0.5,9.3,0.7,14.1,0.7c9.4,0,18.3-1.3,28.5-4.3c34.8-10.4,59.2-31.9,82.9-52.8c20.4-18,41.7-36.9,69.4-47.5
				c19.5-7.6,33-8.7,43.6-8.7c4.8,0,9.4,0.2,14.1,0.5c5.4,0.2,10.7,0.5,16.6,0.5c11.9,0,28.9-1,54.7-8.3c31.4-9,57.2-30.3,82-50.8
				c28-23.3,54.5-45.1,85.9-46.3l7.9-0.5c62.4-2.5,100-4.1,142.4-36.2c7.9-6,15.4-12,22.6-17.6c31.5-24.5,56.3-43.8,69.4-43.8
				c1,0,1.6-0.1,2.2-0.2c1.7-0.6,1.8-1.6,1.8-2C9089.3,3151.8,9085,3151.4,9081.5,3151.4z"/>
		</g>
	</g>
</g>
<g>
	<g>
		<g>
			<path fill="#0000FF" d="M1429.3,5585.5c-12.5,0-37.1,15.4-63,31.8c-21.6,13.5-43.8,27.5-58.3,31.9c-11.8,3.5-23.5,5.4-35.8,5.4
				c-13.8,0-26.4-2.1-39.6-4.4c-14.8-2.4-30-4.9-46.9-4.3c-30.6,1.2-61.4,20.2-91.3,38.5c-25.7,16-52.7,32.6-78.6,36.6
				c-8.4,1.4-16.3,2-24.1,2c-17.1,0-30.3-3.2-43.1-6c-11.4-2.8-22.5-5.3-35.1-5.3c-5.3,0-10.5,0.4-16,1.3
				c-19.6,3.4-40.9,18.9-63.5,35.4c-26.9,19.6-54.8,39.9-82.8,42.5c-6.3,0.6-12.6,1-18.5,1c-17.1,0-30.8-2.5-42.7-4.5
				c-10.4-1.9-20.3-3.7-30.8-3.7c-8.4,0-16.5,1.2-25.2,3.3c-19.2,5.2-38,17.2-57.6,30.3c-26.4,17.2-53.9,35.2-83.2,34
				c-46.6-1.9-91.9-41.6-115.6-100.9c-21.5-54.2,16.4-138.8,34.4-156c1.5-1.4,2.8-2.9,2.1-4.4c0-0.5-0.6-1.3-2.1-1.3
				c-7.9,0-61.4,31.3-79.1,86.6c-18.6,57.3-38.1,81.5-54.2,100.8c-22.5,27.4-38.7,47.3-35.4,139.6c1.9,53.1,22.6,80.1,61.2,80.1
				c12.6,0,26.8-2.7,43.6-8.5c5.6-1.9,11.1-2.9,16.9-2.9c15.6,0,30,6.8,45.6,13.9c16,7.6,32.6,15.3,51.7,15.3c3.7,0,7.3-0.5,11-1
				c37-6.3,67.2-32,96.4-56.9c24.4-21,47.7-40.9,72.5-46.3c14.8-3.2,27.4-4.7,39.8-4.7c6.4,0,11.8,0.5,17.1,0.7
				c4.7,0.5,9.3,0.7,14.1,0.7c9.4,0,18.3-1.3,28.5-4.3c34.8-10.4,59.2-31.9,82.9-52.8c20.4-18,41.7-36.9,69.4-47.5
				c19.5-7.6,33-8.7,43.6-8.7c4.9,0,9.4,0.2,14.1,0.5c5.4,0.2,10.7,0.5,16.6,0.5c11.9,0,28.9-1,54.7-8.3c31.4-9,57.2-30.3,82-50.8
				c28-23.3,54.5-45.1,85.9-46.3l7.9-0.5c62.4-2.5,100-4.1,142.4-36.2c7.9-6,15.4-12,22.6-17.6c31.5-24.5,56.3-43.8,69.4-43.8
				c1,0,1.6-0.1,2.2-0.2c1.7-0.6,1.8-1.6,1.8-2C1437.1,5585.9,1432.8,5585.5,1429.3,5585.5z"/>
		</g>
	</g>
</g>
<g>
	<g>
		<g>
			<path fill="#0000FF" d="M3171.1,5585.5c-12.5,0-37.1,15.4-63,31.8c-21.6,13.5-43.8,27.5-58.3,31.9c-11.8,3.5-23.5,5.4-35.8,5.4
				c-13.8,0-26.4-2.1-39.6-4.4c-14.8-2.4-30-4.9-46.9-4.3c-30.6,1.2-61.4,20.2-91.3,38.5c-25.7,16-52.7,32.6-78.6,36.6
				c-8.4,1.4-16.3,2-24.1,2c-17.1,0-30.3-3.2-43.1-6c-11.4-2.8-22.5-5.3-35.1-5.3c-5.3,0-10.5,0.4-16,1.3
				c-19.6,3.4-40.9,18.9-63.5,35.4c-26.9,19.6-54.8,39.9-82.8,42.5c-6.3,0.6-12.6,1-18.5,1c-17.1,0-30.8-2.5-42.7-4.5
				c-10.4-1.9-20.3-3.7-30.8-3.7c-8.4,0-16.5,1.2-25.2,3.3c-19.2,5.2-38,17.2-57.6,30.3c-26.4,17.2-53.9,35.2-83.2,34
				c-46.6-1.9-91.9-41.6-115.6-100.9c-21.5-54.2,16.4-138.8,34.4-156c1.5-1.4,2.8-2.9,2.1-4.4c0-0.5-0.6-1.3-2.1-1.3
				c-7.9,0-61.4,31.3-79.1,86.6c-18.6,57.3-38.1,81.5-54.2,100.8c-22.5,27.4-38.7,47.3-35.4,139.6c1.9,53.1,22.6,80.1,61.2,80.1
				c12.6,0,26.8-2.7,43.6-8.5c5.6-1.9,11.1-2.9,16.9-2.9c15.6,0,30,6.8,45.6,13.9c16,7.6,32.6,15.3,51.7,15.3c3.7,0,7.3-0.5,11-1
				c37-6.3,67.2-32,96.4-56.9c24.4-21,47.7-40.9,72.5-46.3c14.8-3.2,27.4-4.7,39.8-4.7c6.4,0,11.8,0.5,17.1,0.7
				c4.7,0.5,9.3,0.7,14.1,0.7c9.4,0,18.3-1.3,28.5-4.3c34.8-10.4,59.2-31.9,82.9-52.8c20.4-18,41.7-36.9,69.4-47.5
				c19.5-7.6,33-8.7,43.6-8.7c4.9,0,9.4,0.2,14.1,0.5c5.4,0.2,10.7,0.5,16.6,0.5c11.9,0,28.9-1,54.7-8.3c31.4-9,57.2-30.3,82-50.8
				c28-23.3,54.5-45.1,85.9-46.3l7.9-0.5c62.4-2.5,100-4.1,142.4-36.2c7.9-6,15.4-12,22.6-17.6c31.5-24.5,56.3-43.8,69.4-43.8
				c1,0,1.6-0.1,2.2-0.2c1.7-0.6,1.8-1.6,1.8-2C3178.9,5585.9,3174.6,5585.5,3171.1,5585.5z"/>
		</g>
	</g>
</g>
<g>
	<g>
		<g>
			<path fill="#0000FF" d="M4912.8,5585.5c-12.5,0-37.1,15.4-63,31.8c-21.6,13.5-43.8,27.5-58.3,31.9c-11.8,3.5-23.5,5.4-35.8,5.4
				c-13.8,0-26.4-2.1-39.6-4.4c-14.8-2.4-30-4.9-46.9-4.3c-30.6,1.2-61.4,20.2-91.3,38.5c-25.7,16-52.7,32.6-78.6,36.6
				c-8.4,1.4-16.3,2-24.1,2c-17.1,0-30.3-3.2-43.1-6c-11.4-2.8-22.5-5.3-35.1-5.3c-5.3,0-10.5,0.4-16,1.3
				c-19.6,3.4-40.9,18.9-63.5,35.4c-26.9,19.6-54.8,39.9-82.8,42.5c-6.3,0.6-12.6,1-18.5,1c-17.1,0-30.8-2.5-42.7-4.5
				c-10.4-1.9-20.3-3.7-30.8-3.7c-8.4,0-16.5,1.2-25.2,3.3c-19.2,5.2-38,17.2-57.6,30.3c-26.4,17.2-53.9,35.2-83.2,34
				c-46.6-1.9-91.9-41.6-115.6-100.9c-21.5-54.2,16.4-138.8,34.4-156c1.5-1.4,2.8-2.9,2.1-4.4c0-0.5-0.6-1.3-2.1-1.3
				c-7.9,0-61.4,31.3-79.1,86.6c-18.6,57.3-38.1,81.5-54.2,100.8c-22.5,27.4-38.7,47.3-35.4,139.6c1.9,53.1,22.6,80.1,61.2,80.1
				c12.6,0,26.8-2.7,43.6-8.5c5.6-1.9,11.1-2.9,16.9-2.9c15.6,0,30,6.8,45.6,13.9c16,7.6,32.6,15.3,51.7,15.3c3.7,0,7.3-0.5,11-1
				c37-6.3,67.2-32,96.4-56.9c24.4-21,47.7-40.9,72.5-46.3c14.8-3.2,27.4-4.7,39.8-4.7c6.4,0,11.8,0.5,17.1,0.7
				c4.7,0.5,9.3,0.7,14.1,0.7c9.4,0,18.3-1.3,28.5-4.3c34.8-10.4,59.2-31.9,82.9-52.8c20.4-18,41.7-36.9,69.4-47.5
				c19.5-7.6,33-8.7,43.6-8.7c4.9,0,9.4,0.2,14.1,0.5c5.4,0.2,10.7,0.5,16.6,0.5c11.9,0,28.9-1,54.7-8.3c31.4-9,57.2-30.3,82-50.8
				c28-23.3,54.5-45.1,85.9-46.3l7.9-0.5c62.4-2.5,100-4.1,142.4-36.2c7.9-6,15.4-12,22.6-17.6c31.5-24.5,56.3-43.8,69.4-43.8
				c1,0,1.6-0.1,2.2-0.2c1.7-0.6,1.8-1.6,1.8-2C4920.6,5585.9,4916.3,5585.5,4912.8,5585.5z"/>
		</g>
	</g>
</g>
<g>
	<g>
		<g>
			<path fill="#0000FF" d="M6654.6,5585.5c-12.5,0-37.1,15.4-63,31.8c-21.6,13.5-43.8,27.5-58.3,31.9c-11.8,3.5-23.5,5.4-35.8,5.4
				c-13.8,0-26.4-2.1-39.5-4.4c-14.8-2.4-30-4.9-46.9-4.3c-30.6,1.2-61.4,20.2-91.3,38.5c-25.7,16-52.7,32.6-78.6,36.6
				c-8.4,1.4-16.3,2-24.1,2c-17.1,0-30.3-3.2-43.1-6c-11.4-2.8-22.5-5.3-35.1-5.3c-5.3,0-10.5,0.4-16,1.3
				c-19.6,3.4-40.9,18.9-63.5,35.4c-26.9,19.6-54.8,39.9-82.8,42.5c-6.3,0.6-12.6,1-18.5,1c-17.1,0-30.8-2.5-42.7-4.5
				c-10.4-1.9-20.3-3.7-30.8-3.7c-8.4,0-16.5,1.2-25.2,3.3c-19.2,5.2-38,17.2-57.6,30.3c-26.4,17.2-53.9,35.2-83.2,34
				c-46.6-1.9-91.9-41.6-115.6-100.9c-21.5-54.2,16.4-138.8,34.4-156c1.5-1.4,2.8-2.9,2.1-4.4c0-0.5-0.6-1.3-2.1-1.3
				c-7.9,0-61.4,31.3-79.1,86.6c-18.6,57.3-38.1,81.5-54.2,100.8c-22.5,27.4-38.7,47.3-35.4,139.6c1.9,53.1,22.6,80.1,61.2,80.1
				c12.6,0,26.8-2.7,43.6-8.5c5.6-1.9,11.1-2.9,16.9-2.9c15.6,0,30,6.8,45.6,13.9c16,7.6,32.6,15.3,51.7,15.3c3.7,0,7.3-0.5,11-1
				c37-6.3,67.2-32,96.4-56.9c24.4-21,47.7-40.9,72.5-46.3c14.8-3.2,27.4-4.7,39.8-4.7c6.4,0,11.8,0.5,17.1,0.7
				c4.7,0.5,9.3,0.7,14.1,0.7c9.4,0,18.3-1.3,28.5-4.3c34.8-10.4,59.2-31.9,82.9-52.8c20.4-18,41.7-36.9,69.4-47.5
				c19.5-7.6,33-8.7,43.6-8.7c4.9,0,9.4,0.2,14.1,0.5c5.4,0.2,10.7,0.5,16.6,0.5c11.9,0,28.9-1,54.7-8.3c31.4-9,57.2-30.3,82-50.8
				c28-23.3,54.5-45.1,85.9-46.3l7.9-0.5c62.4-2.5,100-4.1,142.4-36.2c7.9-6,15.4-12,22.6-17.6c31.5-24.5,56.3-43.8,69.4-43.8
				c1,0,1.6-0.1,2.2-0.2c1.7-0.6,1.8-1.6,1.8-2C6662.4,5585.9,6658.1,5585.5,6654.6,5585.5z"/>
		</g>
	</g>
</g>
<g>
	<g>
		<g>
			<path fill="#0000FF" d="M8396.3,5585.5c-12.5,0-37.1,15.4-63,31.8c-21.6,13.5-43.8,27.5-58.3,31.9c-11.8,3.5-23.5,5.4-35.8,5.4
				c-13.8,0-26.4-2.1-39.5-4.4c-14.8-2.4-30-4.9-46.9-4.3c-30.6,1.2-61.4,20.2-91.3,38.5c-25.7,16-52.7,32.6-78.6,36.6
				c-8.4,1.4-16.3,2-24.1,2c-17.1,0-30.3-3.2-43.1-6c-11.4-2.8-22.5-5.3-35.1-5.3c-5.3,0-10.5,0.4-16,1.3
				c-19.6,3.4-40.9,18.9-63.5,35.4c-26.9,19.6-54.8,39.9-82.8,42.5c-6.3,0.6-12.6,1-18.5,1c-17.1,0-30.8-2.5-42.7-4.5
				c-10.4-1.9-20.3-3.7-30.8-3.7c-8.4,0-16.5,1.2-25.2,3.3c-19.2,5.2-38,17.2-57.6,30.3c-26.4,17.2-53.9,35.2-83.2,34
				c-46.6-1.9-91.9-41.6-115.6-100.9c-21.5-54.2,16.4-138.8,34.4-156c1.5-1.4,2.8-2.9,2.1-4.4c0-0.5-0.6-1.3-2.1-1.3
				c-7.9,0-61.4,31.3-79.1,86.6c-18.6,57.3-38.1,81.5-54.2,100.8c-22.5,27.4-38.7,47.3-35.4,139.6c1.9,53.1,22.6,80.1,61.2,80.1
				c12.6,0,26.8-2.7,43.6-8.5c5.6-1.9,11.1-2.9,16.9-2.9c15.6,0,30,6.8,45.6,13.9c16,7.6,32.6,15.3,51.7,15.3c3.7,0,7.3-0.5,11-1
				c37-6.3,67.2-32,96.4-56.9c24.4-21,47.7-40.9,72.5-46.3c14.8-3.2,27.4-4.7,39.8-4.7c6.4,0,11.8,0.5,17.1,0.7
				c4.7,0.5,9.3,0.7,14.1,0.7c9.4,0,18.3-1.3,28.5-4.3c34.8-10.4,59.2-31.9,82.9-52.8c20.4-18,41.7-36.9,69.4-47.5
				c19.5-7.6,33-8.7,43.6-8.7c4.9,0,9.4,0.2,14.1,0.5c5.4,0.2,10.7,0.5,16.6,0.5c11.9,0,28.9-1,54.7-8.3c31.4-9,57.2-30.3,82-50.8
				c28-23.3,54.5-45.1,85.9-46.3l7.9-0.5c62.4-2.5,100-4.1,142.4-36.2c7.9-6,15.4-12,22.6-17.6c31.5-24.5,56.3-43.8,69.4-43.8
				c1,0,1.6-0.1,2.2-0.2c1.7-0.6,1.8-1.6,1.8-2C8404.2,5585.9,8399.8,5585.5,8396.3,5585.5z"/>
		</g>
	</g>
</g>
<g>
	<g>
		<g>
			<path fill="#0000FF" d="M10138.1,5585.5c-12.5,0-37.1,15.4-63,31.8c-21.6,13.5-43.8,27.5-58.3,31.9c-11.8,3.5-23.5,5.4-35.8,5.4
				c-13.8,0-26.4-2.1-39.5-4.4c-14.8-2.4-30-4.9-46.9-4.3c-30.6,1.2-61.4,20.2-91.3,38.5c-25.7,16-52.7,32.6-78.6,36.6
				c-8.4,1.4-16.3,2-24.1,2c-17.1,0-30.3-3.2-43.1-6c-11.4-2.8-22.5-5.3-35.1-5.3c-5.3,0-10.5,0.4-16,1.3
				c-19.6,3.4-40.9,18.9-63.5,35.4c-26.9,19.6-54.8,39.9-82.8,42.5c-6.3,0.6-12.6,1-18.5,1c-17.1,0-30.8-2.5-42.7-4.5
				c-10.4-1.9-20.3-3.7-30.8-3.7c-8.4,0-16.5,1.2-25.2,3.3c-19.2,5.2-38,17.2-57.6,30.3c-26.4,17.2-53.9,35.2-83.2,34
				c-46.6-1.9-91.9-41.6-115.6-100.9c-21.5-54.2,16.4-138.8,34.4-156c1.5-1.4,2.8-2.9,2.1-4.4c0-0.5-0.6-1.3-2.1-1.3
				c-7.9,0-61.4,31.3-79.1,86.6c-18.6,57.3-38.1,81.5-54.2,100.8c-22.5,27.4-38.7,47.3-35.4,139.6c1.9,53.1,22.6,80.1,61.2,80.1
				c12.6,0,26.8-2.7,43.6-8.5c5.6-1.9,11.1-2.9,16.9-2.9c15.6,0,30,6.8,45.6,13.9c16,7.6,32.6,15.3,51.7,15.3c3.7,0,7.3-0.5,11-1
				c37-6.3,67.2-32,96.4-56.9c24.4-21,47.7-40.9,72.5-46.3c14.8-3.2,27.4-4.7,39.8-4.7c6.4,0,11.8,0.5,17.1,0.7
				c4.7,0.5,9.3,0.7,14.1,0.7c9.4,0,18.3-1.3,28.5-4.3c34.8-10.4,59.2-31.9,82.9-52.8c20.4-18,41.7-36.9,69.4-47.5
				c19.5-7.6,33-8.7,43.6-8.7c4.9,0,9.4,0.2,14.1,0.5c5.4,0.2,10.7,0.5,16.6,0.5c11.9,0,28.9-1,54.7-8.3c31.4-9,57.2-30.3,82-50.8
				c28-23.3,54.5-45.1,85.9-46.3l7.9-0.5c62.4-2.5,100-4.1,142.4-36.2c7.9-6,15.4-12,22.6-17.6c31.5-24.5,56.3-43.8,69.4-43.8
				c1,0,1.6-0.1,2.2-0.2c1.7-0.6,1.8-1.6,1.8-2C10145.9,5585.9,10141.6,5585.5,10138.1,5585.5z"/>
		</g>
	</g>
</g>
<g>
	<g>
		<g>
			<path fill="#0000FF" d="M2114.5,4772c-12.5,0-37.1,15.4-63,31.8c-21.6,13.5-43.8,27.5-58.3,31.9c-11.8,3.5-23.5,5.4-35.8,5.4
				c-13.8,0-26.4-2.1-39.6-4.4c-14.8-2.4-30-4.9-46.9-4.3c-30.6,1.2-61.4,20.2-91.3,38.5c-25.7,16-52.7,32.6-78.6,36.6
				c-8.4,1.4-16.3,2-24.1,2c-17.1,0-30.3-3.2-43.1-6c-11.4-2.8-22.5-5.3-35.1-5.3c-5.3,0-10.5,0.4-16,1.3
				c-19.6,3.4-40.9,18.9-63.5,35.4c-26.9,19.6-54.8,39.9-82.8,42.5c-6.3,0.6-12.6,1-18.5,1c-17.1,0-30.8-2.5-42.7-4.5
				c-10.4-1.9-20.3-3.7-30.8-3.7c-8.4,0-16.5,1.2-25.2,3.3c-19.2,5.2-38,17.2-57.6,30.3c-26.4,17.2-53.9,35.2-83.2,34
				c-46.6-1.9-91.9-41.6-115.6-100.9c-21.5-54.2,16.4-138.8,34.4-156c1.5-1.4,2.8-2.9,2.1-4.4c0-0.5-0.6-1.3-2.1-1.3
				c-7.9,0-61.4,31.3-79.1,86.6c-18.6,57.3-38.1,81.5-54.2,100.8c-22.5,27.4-38.7,47.3-35.4,139.6c1.9,53.1,22.6,80.1,61.2,80.1
				c12.6,0,26.8-2.7,43.6-8.5c5.6-1.9,11.1-2.9,16.9-2.9c15.6,0,30,6.8,45.6,13.9c16,7.6,32.6,15.3,51.7,15.3c3.7,0,7.3-0.5,11-1
				c37-6.3,67.2-32,96.4-56.9c24.4-21,47.7-40.9,72.5-46.3c14.8-3.2,27.4-4.7,39.8-4.7c6.4,0,11.8,0.5,17.1,0.7
				c4.7,0.5,9.3,0.7,14.1,0.7c9.4,0,18.3-1.3,28.5-4.3c34.8-10.4,59.2-31.9,82.9-52.8c20.4-18,41.7-36.9,69.4-47.5
				c19.5-7.6,33-8.7,43.6-8.7c4.9,0,9.4,0.2,14.1,0.5c5.4,0.2,10.7,0.5,16.6,0.5c11.9,0,28.9-1,54.7-8.3c31.4-9,57.2-30.3,82-50.8
				c28-23.3,54.5-45.1,85.9-46.3l7.9-0.5c62.4-2.5,100-4.1,142.4-36.2c7.9-6,15.4-12,22.6-17.6c31.5-24.5,56.3-43.8,69.4-43.8
				c1,0,1.6-0.1,2.2-0.2c1.7-0.6,1.8-1.6,1.8-2C2122.3,4772.4,2118,4772,2114.5,4772z"/>
		</g>
	</g>
</g>
<g>
	<g>
		<g>
			<path fill="#0000FF" d="M3856.2,4772c-12.5,0-37.1,15.4-63,31.8c-21.6,13.5-43.8,27.5-58.3,31.9c-11.8,3.5-23.5,5.4-35.8,5.4
				c-13.8,0-26.4-2.1-39.6-4.4c-14.8-2.4-30-4.9-46.9-4.3c-30.6,1.2-61.4,20.2-91.3,38.5c-25.7,16-52.7,32.6-78.6,36.6
				c-8.4,1.4-16.3,2-24.1,2c-17.1,0-30.3-3.2-43.1-6c-11.4-2.8-22.5-5.3-35.1-5.3c-5.3,0-10.5,0.4-16,1.3
				c-19.6,3.4-40.9,18.9-63.5,35.4c-26.9,19.6-54.8,39.9-82.8,42.5c-6.3,0.6-12.6,1-18.5,1c-17.1,0-30.8-2.5-42.7-4.5
				c-10.4-1.9-20.3-3.7-30.8-3.7c-8.4,0-16.5,1.2-25.2,3.3c-19.2,5.2-38,17.2-57.6,30.3c-26.4,17.2-53.9,35.2-83.2,34
				c-46.6-1.9-91.9-41.6-115.6-100.9c-21.5-54.2,16.4-138.8,34.4-156c1.5-1.4,2.8-2.9,2.1-4.4c0-0.5-0.6-1.3-2.1-1.3
				c-7.9,0-61.4,31.3-79.1,86.6c-18.6,57.3-38.1,81.5-54.2,100.8c-22.5,27.4-38.7,47.3-35.4,139.6c1.9,53.1,22.6,80.1,61.2,80.1
				c12.6,0,26.8-2.7,43.6-8.5c5.6-1.9,11.1-2.9,16.9-2.9c15.6,0,30,6.8,45.6,13.9c16,7.6,32.6,15.3,51.7,15.3c3.7,0,7.3-0.5,11-1
				c37-6.3,67.2-32,96.4-56.9c24.4-21,47.7-40.9,72.5-46.3c14.8-3.2,27.4-4.7,39.8-4.7c6.4,0,11.8,0.5,17.1,0.7
				c4.7,0.5,9.3,0.7,14.1,0.7c9.4,0,18.3-1.3,28.5-4.3c34.8-10.4,59.2-31.9,82.9-52.8c20.4-18,41.7-36.9,69.4-47.5
				c19.5-7.6,33-8.7,43.6-8.7c4.9,0,9.4,0.2,14.1,0.5c5.4,0.2,10.7,0.5,16.6,0.5c11.9,0,28.9-1,54.7-8.3c31.4-9,57.2-30.3,82-50.8
				c28-23.3,54.5-45.1,85.9-46.3l7.9-0.5c62.4-2.5,100-4.1,142.4-36.2c7.9-6,15.4-12,22.6-17.6c31.5-24.5,56.3-43.8,69.4-43.8
				c1,0,1.6-0.1,2.2-0.2c1.7-0.6,1.8-1.6,1.8-2C3864,4772.4,3859.7,4772,3856.2,4772z"/>
		</g>
	</g>
</g>
<g>
	<g>
		<g>
			<path fill="#0000FF" d="M5598,4772c-12.5,0-37.1,15.4-63,31.8c-21.6,13.5-43.8,27.5-58.3,31.9c-11.8,3.5-23.5,5.4-35.8,5.4
				c-13.8,0-26.4-2.1-39.6-4.4c-14.8-2.4-30-4.9-46.9-4.3c-30.6,1.2-61.4,20.2-91.3,38.5c-25.7,16-52.7,32.6-78.6,36.6
				c-8.4,1.4-16.3,2-24.1,2c-17.1,0-30.3-3.2-43.1-6c-11.4-2.8-22.5-5.3-35.1-5.3c-5.3,0-10.5,0.4-16,1.3
				c-19.6,3.4-40.9,18.9-63.5,35.4c-26.9,19.6-54.8,39.9-82.8,42.5c-6.3,0.6-12.6,1-18.5,1c-17.1,0-30.8-2.5-42.7-4.5
				c-10.4-1.9-20.3-3.7-30.8-3.7c-8.4,0-16.5,1.2-25.2,3.3c-19.2,5.2-38,17.2-57.6,30.3c-26.4,17.2-53.9,35.2-83.2,34
				c-46.6-1.9-91.9-41.6-115.6-100.9c-21.5-54.2,16.4-138.8,34.4-156c1.5-1.4,2.8-2.9,2.1-4.4c0-0.5-0.6-1.3-2.1-1.3
				c-7.9,0-61.4,31.3-79.1,86.6c-18.6,57.3-38.1,81.5-54.2,100.8c-22.5,27.4-38.7,47.3-35.4,139.6c1.9,53.1,22.6,80.1,61.2,80.1
				c12.6,0,26.8-2.7,43.6-8.5c5.6-1.9,11.1-2.9,16.9-2.9c15.6,0,30,6.8,45.6,13.9c16,7.6,32.6,15.3,51.7,15.3c3.7,0,7.3-0.5,11-1
				c37-6.3,67.2-32,96.4-56.9c24.4-21,47.7-40.9,72.5-46.3c14.8-3.2,27.4-4.7,39.8-4.7c6.4,0,11.8,0.5,17.1,0.7
				c4.7,0.5,9.3,0.7,14.1,0.7c9.4,0,18.3-1.3,28.5-4.3c34.8-10.4,59.2-31.9,82.9-52.8c20.4-18,41.7-36.9,69.4-47.5
				c19.5-7.6,33-8.7,43.6-8.7c4.9,0,9.4,0.2,14.1,0.5c5.4,0.2,10.7,0.5,16.6,0.5c11.9,0,28.9-1,54.7-8.3c31.4-9,57.2-30.3,82-50.8
				c28-23.3,54.5-45.1,85.9-46.3l7.9-0.5c62.4-2.5,100-4.1,142.4-36.2c7.9-6,15.4-12,22.6-17.6c31.5-24.5,56.3-43.8,69.4-43.8
				c1,0,1.6-0.1,2.2-0.2c1.7-0.6,1.8-1.6,1.8-2C5605.8,4772.4,5601.5,4772,5598,4772z"/>
		</g>
	</g>
</g>
<g>
	<g>
		<g>
			<path fill="#0000FF" d="M7339.7,4772c-12.5,0-37.1,15.4-63,31.8c-21.6,13.5-43.8,27.5-58.3,31.9c-11.8,3.5-23.5,5.4-35.8,5.4
				c-13.8,0-26.4-2.1-39.5-4.4c-14.8-2.4-30-4.9-46.9-4.3c-30.6,1.2-61.4,20.2-91.3,38.5c-25.7,16-52.7,32.6-78.6,36.6
				c-8.4,1.4-16.3,2-24.1,2c-17.1,0-30.3-3.2-43.1-6c-11.4-2.8-22.5-5.3-35.1-5.3c-5.3,0-10.5,0.4-16,1.3
				c-19.6,3.4-40.9,18.9-63.5,35.4c-26.9,19.6-54.8,39.9-82.8,42.5c-6.3,0.6-12.6,1-18.5,1c-17.1,0-30.8-2.5-42.7-4.5
				c-10.4-1.9-20.3-3.7-30.8-3.7c-8.4,0-16.5,1.2-25.2,3.3c-19.2,5.2-38,17.2-57.6,30.3c-26.4,17.2-53.9,35.2-83.2,34
				c-46.6-1.9-91.9-41.6-115.6-100.9c-21.5-54.2,16.4-138.8,34.4-156c1.5-1.4,2.8-2.9,2.1-4.4c0-0.5-0.6-1.3-2.1-1.3
				c-7.9,0-61.4,31.3-79.1,86.6c-18.6,57.3-38.1,81.5-54.2,100.8c-22.5,27.4-38.7,47.3-35.4,139.6c1.9,53.1,22.6,80.1,61.2,80.1
				c12.6,0,26.8-2.7,43.6-8.5c5.6-1.9,11.1-2.9,16.9-2.9c15.6,0,30,6.8,45.6,13.9c16,7.6,32.6,15.3,51.7,15.3c3.7,0,7.3-0.5,11-1
				c37-6.3,67.2-32,96.4-56.9c24.4-21,47.7-40.9,72.5-46.3c14.8-3.2,27.4-4.7,39.8-4.7c6.4,0,11.8,0.5,17.1,0.7
				c4.7,0.5,9.3,0.7,14.1,0.7c9.4,0,18.3-1.3,28.5-4.3c34.8-10.4,59.2-31.9,82.9-52.8c20.4-18,41.7-36.9,69.4-47.5
				c19.5-7.6,33-8.7,43.6-8.7c4.9,0,9.4,0.2,14.1,0.5c5.4,0.2,10.7,0.5,16.6,0.5c11.9,0,28.9-1,54.7-8.3c31.4-9,57.2-30.3,82-50.8
				c28-23.3,54.5-45.1,85.9-46.3l7.9-0.5c62.4-2.5,100-4.1,142.4-36.2c7.9-6,15.4-12,22.6-17.6c31.5-24.5,56.3-43.8,69.4-43.8
				c1,0,1.6-0.1,2.2-0.2c1.7-0.6,1.8-1.6,1.8-2C7347.6,4772.4,7343.2,4772,7339.7,4772z"/>
		</g>
	</g>
</g>
<g>
	<g>
		<g>
			<path fill="#0000FF" d="M9081.5,4772c-12.5,0-37.1,15.4-63,31.8c-21.6,13.5-43.8,27.5-58.3,31.9c-11.8,3.5-23.5,5.4-35.8,5.4
				c-13.8,0-26.4-2.1-39.5-4.4c-14.8-2.4-30-4.9-46.9-4.3c-30.6,1.2-61.4,20.2-91.3,38.5c-25.7,16-52.7,32.6-78.6,36.6
				c-8.4,1.4-16.3,2-24.1,2c-17.1,0-30.3-3.2-43.1-6c-11.4-2.8-22.5-5.3-35.1-5.3c-5.3,0-10.5,0.4-16,1.3
				c-19.6,3.4-40.9,18.9-63.5,35.4c-26.9,19.6-54.8,39.9-82.8,42.5c-6.3,0.6-12.6,1-18.5,1c-17.1,0-30.8-2.5-42.7-4.5
				c-10.4-1.9-20.3-3.7-30.8-3.7c-8.4,0-16.5,1.2-25.2,3.3c-19.2,5.2-38,17.2-57.6,30.3c-26.4,17.2-53.9,35.2-83.2,34
				c-46.6-1.9-91.9-41.6-115.6-100.9c-21.5-54.2,16.4-138.8,34.4-156c1.5-1.4,2.8-2.9,2.1-4.4c0-0.5-0.6-1.3-2.1-1.3
				c-7.9,0-61.4,31.3-79.1,86.6c-18.6,57.3-38.1,81.5-54.2,100.8c-22.5,27.4-38.7,47.3-35.4,139.6c1.9,53.1,22.6,80.1,61.2,80.1
				c12.6,0,26.8-2.7,43.6-8.5c5.6-1.9,11.1-2.9,16.9-2.9c15.6,0,30,6.8,45.6,13.9c16,7.6,32.6,15.3,51.7,15.3c3.7,0,7.3-0.5,11-1
				c37-6.3,67.2-32,96.4-56.9c24.4-21,47.7-40.9,72.5-46.3c14.8-3.2,27.4-4.7,39.8-4.7c6.4,0,11.8,0.5,17.1,0.7
				c4.7,0.5,9.3,0.7,14.1,0.7c9.4,0,18.3-1.3,28.5-4.3c34.8-10.4,59.2-31.9,82.9-52.8c20.4-18,41.7-36.9,69.4-47.5
				c19.5-7.6,33-8.7,43.6-8.7c4.8,0,9.4,0.2,14.1,0.5c5.4,0.2,10.7,0.5,16.6,0.5c11.9,0,28.9-1,54.7-8.3c31.4-9,57.2-30.3,82-50.8
				c28-23.3,54.5-45.1,85.9-46.3l7.9-0.5c62.4-2.5,100-4.1,142.4-36.2c7.9-6,15.4-12,22.6-17.6c31.5-24.5,56.3-43.8,69.4-43.8
				c1,0,1.6-0.1,2.2-0.2c1.7-0.6,1.8-1.6,1.8-2C9089.3,4772.4,9085,4772,9081.5,4772z"/>
		</g>
	</g>
</g>
<g>
	<g>
		<g>
			<path fill="#0000FF" d="M1429.3,7320.2c-12.5,0-37.1,15.4-63,31.8c-21.6,13.5-43.8,27.5-58.3,31.9c-11.8,3.5-23.5,5.4-35.8,5.4
				c-13.8,0-26.4-2.1-39.6-4.4c-14.8-2.4-30-4.9-46.9-4.3c-30.6,1.2-61.4,20.2-91.3,38.5c-25.7,16-52.7,32.6-78.6,36.6
				c-8.4,1.4-16.3,2-24.1,2c-17.1,0-30.3-3.2-43.1-6c-11.4-2.8-22.5-5.3-35.1-5.3c-5.3,0-10.5,0.4-16,1.3
				c-19.6,3.4-40.9,18.9-63.5,35.4c-26.9,19.6-54.8,39.9-82.8,42.5c-6.3,0.6-12.6,1-18.5,1c-17.1,0-30.8-2.5-42.7-4.5
				c-10.4-1.9-20.3-3.7-30.8-3.7c-8.4,0-16.5,1.2-25.2,3.3c-19.2,5.2-38,17.2-57.6,30.3c-26.4,17.2-53.9,35.2-83.2,34
				c-46.6-1.9-91.9-41.6-115.6-100.9c-21.5-54.2,16.4-138.8,34.4-156c1.5-1.4,2.8-2.9,2.1-4.4c0-0.5-0.6-1.3-2.1-1.3
				c-7.9,0-61.4,31.3-79.1,86.6c-18.6,57.3-38.1,81.5-54.2,100.8c-22.5,27.4-38.7,47.3-35.4,139.6c1.9,53.1,22.6,80.1,61.2,80.1
				c12.6,0,26.8-2.7,43.6-8.5c5.6-1.9,11.1-2.9,16.9-2.9c15.6,0,30,6.8,45.6,13.9c16,7.6,32.6,15.3,51.7,15.3c3.7,0,7.3-0.5,11-1
				c37-6.3,67.2-32,96.4-56.9c24.4-21,47.7-40.9,72.5-46.3c14.8-3.2,27.4-4.7,39.8-4.7c6.4,0,11.8,0.5,17.1,0.7
				c4.7,0.5,9.3,0.7,14.1,0.7c9.4,0,18.3-1.3,28.5-4.3c34.8-10.4,59.2-31.9,82.9-52.8c20.4-18,41.7-36.9,69.4-47.5
				c19.5-7.6,33-8.7,43.6-8.7c4.9,0,9.4,0.2,14.1,0.5c5.4,0.2,10.7,0.5,16.6,0.5c11.9,0,28.9-1,54.7-8.3c31.4-9,57.2-30.3,82-50.8
				c28-23.3,54.5-45.1,85.9-46.3l7.9-0.5c62.4-2.5,100-4.1,142.4-36.2c7.9-6,15.4-12,22.6-17.6c31.5-24.5,56.3-43.8,69.4-43.8
				c1,0,1.6-0.1,2.2-0.2c1.7-0.6,1.8-1.6,1.8-2C1437.1,7320.6,1432.8,7320.2,1429.3,7320.2z"/>
		</g>
	</g>
</g>
<g>
	<g>
		<g>
			<path fill="#0000FF" d="M3171.1,7320.2c-12.5,0-37.1,15.4-63,31.8c-21.6,13.5-43.8,27.5-58.3,31.9c-11.8,3.5-23.5,5.4-35.8,5.4
				c-13.8,0-26.4-2.1-39.6-4.4c-14.8-2.4-30-4.9-46.9-4.3c-30.6,1.2-61.4,20.2-91.3,38.5c-25.7,16-52.7,32.6-78.6,36.6
				c-8.4,1.4-16.3,2-24.1,2c-17.1,0-30.3-3.2-43.1-6c-11.4-2.8-22.5-5.3-35.1-5.3c-5.3,0-10.5,0.4-16,1.3
				c-19.6,3.4-40.9,18.9-63.5,35.4c-26.9,19.6-54.8,39.9-82.8,42.5c-6.3,0.6-12.6,1-18.5,1c-17.1,0-30.8-2.5-42.7-4.5
				c-10.4-1.9-20.3-3.7-30.8-3.7c-8.4,0-16.5,1.2-25.2,3.3c-19.2,5.2-38,17.2-57.6,30.3c-26.4,17.2-53.9,35.2-83.2,34
				c-46.6-1.9-91.9-41.6-115.6-100.9c-21.5-54.2,16.4-138.8,34.4-156c1.5-1.4,2.8-2.9,2.1-4.4c0-0.5-0.6-1.3-2.1-1.3
				c-7.9,0-61.4,31.3-79.1,86.6c-18.6,57.3-38.1,81.5-54.2,100.8c-22.5,27.4-38.7,47.3-35.4,139.6c1.9,53.1,22.6,80.1,61.2,80.1
				c12.6,0,26.8-2.7,43.6-8.5c5.6-1.9,11.1-2.9,16.9-2.9c15.6,0,30,6.8,45.6,13.9c16,7.6,32.6,15.3,51.7,15.3c3.7,0,7.3-0.5,11-1
				c37-6.3,67.2-32,96.4-56.9c24.4-21,47.7-40.9,72.5-46.3c14.8-3.2,27.4-4.7,39.8-4.7c6.4,0,11.8,0.5,17.1,0.7
				c4.7,0.5,9.3,0.7,14.1,0.7c9.4,0,18.3-1.3,28.5-4.3c34.8-10.4,59.2-31.9,82.9-52.8c20.4-18,41.7-36.9,69.4-47.5
				c19.5-7.6,33-8.7,43.6-8.7c4.9,0,9.4,0.2,14.1,0.5c5.4,0.2,10.7,0.5,16.6,0.5c11.9,0,28.9-1,54.7-8.3c31.4-9,57.2-30.3,82-50.8
				c28-23.3,54.5-45.1,85.9-46.3l7.9-0.5c62.4-2.5,100-4.1,142.4-36.2c7.9-6,15.4-12,22.6-17.6c31.5-24.5,56.3-43.8,69.4-43.8
				c1,0,1.6-0.1,2.2-0.2c1.7-0.6,1.8-1.6,1.8-2C3178.9,7320.6,3174.6,7320.2,3171.1,7320.2z"/>
		</g>
	</g>
</g>
<g>
	<g>
		<g>
			<path fill="#0000FF" d="M4912.8,7320.2c-12.5,0-37.1,15.4-63,31.8c-21.6,13.5-43.8,27.5-58.3,31.9c-11.8,3.5-23.5,5.4-35.8,5.4
				c-13.8,0-26.4-2.1-39.6-4.4c-14.8-2.4-30-4.9-46.9-4.3c-30.6,1.2-61.4,20.2-91.3,38.5c-25.7,16-52.7,32.6-78.6,36.6
				c-8.4,1.4-16.3,2-24.1,2c-17.1,0-30.3-3.2-43.1-6c-11.4-2.8-22.5-5.3-35.1-5.3c-5.3,0-10.5,0.4-16,1.3
				c-19.6,3.4-40.9,18.9-63.5,35.4c-26.9,19.6-54.8,39.9-82.8,42.5c-6.3,0.6-12.6,1-18.5,1c-17.1,0-30.8-2.5-42.7-4.5
				c-10.4-1.9-20.3-3.7-30.8-3.7c-8.4,0-16.5,1.2-25.2,3.3c-19.2,5.2-38,17.2-57.6,30.3c-26.4,17.2-53.9,35.2-83.2,34
				c-46.6-1.9-91.9-41.6-115.6-100.9c-21.5-54.2,16.4-138.8,34.4-156c1.5-1.4,2.8-2.9,2.1-4.4c0-0.5-0.6-1.3-2.1-1.3
				c-7.9,0-61.4,31.3-79.1,86.6c-18.6,57.3-38.1,81.5-54.2,100.8c-22.5,27.4-38.7,47.3-35.4,139.6c1.9,53.1,22.6,80.1,61.2,80.1
				c12.6,0,26.8-2.7,43.6-8.5c5.6-1.9,11.1-2.9,16.9-2.9c15.6,0,30,6.8,45.6,13.9c16,7.6,32.6,15.3,51.7,15.3c3.7,0,7.3-0.5,11-1
				c37-6.3,67.2-32,96.4-56.9c24.4-21,47.7-40.9,72.5-46.3c14.8-3.2,27.4-4.7,39.8-4.7c6.4,0,11.8,0.5,17.1,0.7
				c4.7,0.5,9.3,0.7,14.1,0.7c9.4,0,18.3-1.3,28.5-4.3c34.8-10.4,59.2-31.9,82.9-52.8c20.4-18,41.7-36.9,69.4-47.5
				c19.5-7.6,33-8.7,43.6-8.7c4.9,0,9.4,0.2,14.1,0.5c5.4,0.2,10.7,0.5,16.6,0.5c11.9,0,28.9-1,54.7-8.3c31.4-9,57.2-30.3,82-50.8
				c28-23.3,54.5-45.1,85.9-46.3l7.9-0.5c62.4-2.5,100-4.1,142.4-36.2c7.9-6,15.4-12,22.6-17.6c31.5-24.5,56.3-43.8,69.4-43.8
				c1,0,1.6-0.1,2.2-0.2c1.7-0.6,1.8-1.6,1.8-2C4920.6,7320.6,4916.3,7320.2,4912.8,7320.2z"/>
		</g>
	</g>
</g>
<g>
	<g>
		<g>
			<path fill="#0000FF" d="M6654.6,7320.2c-12.5,0-37.1,15.4-63,31.8c-21.6,13.5-43.8,27.5-58.3,31.9c-11.8,3.5-23.5,5.4-35.8,5.4
				c-13.8,0-26.4-2.1-39.5-4.4c-14.8-2.4-30-4.9-46.9-4.3c-30.6,1.2-61.4,20.2-91.3,38.5c-25.7,16-52.7,32.6-78.6,36.6
				c-8.4,1.4-16.3,2-24.1,2c-17.1,0-30.3-3.2-43.1-6c-11.4-2.8-22.5-5.3-35.1-5.3c-5.3,0-10.5,0.4-16,1.3
				c-19.6,3.4-40.9,18.9-63.5,35.4c-26.9,19.6-54.8,39.9-82.8,42.5c-6.3,0.6-12.6,1-18.5,1c-17.1,0-30.8-2.5-42.7-4.5
				c-10.4-1.9-20.3-3.7-30.8-3.7c-8.4,0-16.5,1.2-25.2,3.3c-19.2,5.2-38,17.2-57.6,30.3c-26.4,17.2-53.9,35.2-83.2,34
				c-46.6-1.9-91.9-41.6-115.6-100.9c-21.5-54.2,16.4-138.8,34.4-156c1.5-1.4,2.8-2.9,2.1-4.4c0-0.5-0.6-1.3-2.1-1.3
				c-7.9,0-61.4,31.3-79.1,86.6c-18.6,57.3-38.1,81.5-54.2,100.8c-22.5,27.4-38.7,47.3-35.4,139.6c1.9,53.1,22.6,80.1,61.2,80.1
				c12.6,0,26.8-2.7,43.6-8.5c5.6-1.9,11.1-2.9,16.9-2.9c15.6,0,30,6.8,45.6,13.9c16,7.6,32.6,15.3,51.7,15.3c3.7,0,7.3-0.5,11-1
				c37-6.3,67.2-32,96.4-56.9c24.4-21,47.7-40.9,72.5-46.3c14.8-3.2,27.4-4.7,39.8-4.7c6.4,0,11.8,0.5,17.1,0.7
				c4.7,0.5,9.3,0.7,14.1,0.7c9.4,0,18.3-1.3,28.5-4.3c34.8-10.4,59.2-31.9,82.9-52.8c20.4-18,41.7-36.9,69.4-47.5
				c19.5-7.6,33-8.7,43.6-8.7c4.9,0,9.4,0.2,14.1,0.5c5.4,0.2,10.7,0.5,16.6,0.5c11.9,0,28.9-1,54.7-8.3c31.4-9,57.2-30.3,82-50.8
				c28-23.3,54.5-45.1,85.9-46.3l7.9-0.5c62.4-2.5,100-4.1,142.4-36.2c7.9-6,15.4-12,22.6-17.6c31.5-24.5,56.3-43.8,69.4-43.8
				c1,0,1.6-0.1,2.2-0.2c1.7-0.6,1.8-1.6,1.8-2C6662.4,7320.6,6658.1,7320.2,6654.6,7320.2z"/>
		</g>
	</g>
</g>
<g>
	<g>
		<g>
			<path fill="#0000FF" d="M8396.3,7320.2c-12.5,0-37.1,15.4-63,31.8c-21.6,13.5-43.8,27.5-58.3,31.9c-11.8,3.5-23.5,5.4-35.8,5.4
				c-13.8,0-26.4-2.1-39.5-4.4c-14.8-2.4-30-4.9-46.9-4.3c-30.6,1.2-61.4,20.2-91.3,38.5c-25.7,16-52.7,32.6-78.6,36.6
				c-8.4,1.4-16.3,2-24.1,2c-17.1,0-30.3-3.2-43.1-6c-11.4-2.8-22.5-5.3-35.1-5.3c-5.3,0-10.5,0.4-16,1.3
				c-19.6,3.4-40.9,18.9-63.5,35.4c-26.9,19.6-54.8,39.9-82.8,42.5c-6.3,0.6-12.6,1-18.5,1c-17.1,0-30.8-2.5-42.7-4.5
				c-10.4-1.9-20.3-3.7-30.8-3.7c-8.4,0-16.5,1.2-25.2,3.3c-19.2,5.2-38,17.2-57.6,30.3c-26.4,17.2-53.9,35.2-83.2,34
				c-46.6-1.9-91.9-41.6-115.6-100.9c-21.5-54.2,16.4-138.8,34.4-156c1.5-1.4,2.8-2.9,2.1-4.4c0-0.5-0.6-1.3-2.1-1.3
				c-7.9,0-61.4,31.3-79.1,86.6c-18.6,57.3-38.1,81.5-54.2,100.8c-22.5,27.4-38.7,47.3-35.4,139.6c1.9,53.1,22.6,80.1,61.2,80.1
				c12.6,0,26.8-2.7,43.6-8.5c5.6-1.9,11.1-2.9,16.9-2.9c15.6,0,30,6.8,45.6,13.9c16,7.6,32.6,15.3,51.7,15.3c3.7,0,7.3-0.5,11-1
				c37-6.3,67.2-32,96.4-56.9c24.4-21,47.7-40.9,72.5-46.3c14.8-3.2,27.4-4.7,39.8-4.7c6.4,0,11.8,0.5,17.1,0.7
				c4.7,0.5,9.3,0.7,14.1,0.7c9.4,0,18.3-1.3,28.5-4.3c34.8-10.4,59.2-31.9,82.9-52.8c20.4-18,41.7-36.9,69.4-47.5
				c19.5-7.6,33-8.7,43.6-8.7c4.9,0,9.4,0.2,14.1,0.5c5.4,0.2,10.7,0.5,16.6,0.5c11.9,0,28.9-1,54.7-8.3c31.4-9,57.2-30.3,82-50.8
				c28-23.3,54.5-45.1,85.9-46.3l7.9-0.5c62.4-2.5,100-4.1,142.4-36.2c7.9-6,15.4-12,22.6-17.6c31.5-24.5,56.3-43.8,69.4-43.8
				c1,0,1.6-0.1,2.2-0.2c1.7-0.6,1.8-1.6,1.8-2C8404.2,7320.6,8399.8,7320.2,8396.3,7320.2z"/>
		</g>
	</g>
</g>
<g>
	<g>
		<g>
			<path fill="#0000FF" d="M10138.1,7320.2c-12.5,0-37.1,15.4-63,31.8c-21.6,13.5-43.8,27.5-58.3,31.9c-11.8,3.5-23.5,5.4-35.8,5.4
				c-13.8,0-26.4-2.1-39.5-4.4c-14.8-2.4-30-4.9-46.9-4.3c-30.6,1.2-61.4,20.2-91.3,38.5c-25.7,16-52.7,32.6-78.6,36.6
				c-8.4,1.4-16.3,2-24.1,2c-17.1,0-30.3-3.2-43.1-6c-11.4-2.8-22.5-5.3-35.1-5.3c-5.3,0-10.5,0.4-16,1.3
				c-19.6,3.4-40.9,18.9-63.5,35.4c-26.9,19.6-54.8,39.9-82.8,42.5c-6.3,0.6-12.6,1-18.5,1c-17.1,0-30.8-2.5-42.7-4.5
				c-10.4-1.9-20.3-3.7-30.8-3.7c-8.4,0-16.5,1.2-25.2,3.3c-19.2,5.2-38,17.2-57.6,30.3c-26.4,17.2-53.9,35.2-83.2,34
				c-46.6-1.9-91.9-41.6-115.6-100.9c-21.5-54.2,16.4-138.8,34.4-156c1.5-1.4,2.8-2.9,2.1-4.4c0-0.5-0.6-1.3-2.1-1.3
				c-7.9,0-61.4,31.3-79.1,86.6c-18.6,57.3-38.1,81.5-54.2,100.8c-22.5,27.4-38.7,47.3-35.4,139.6c1.9,53.1,22.6,80.1,61.2,80.1
				c12.6,0,26.8-2.7,43.6-8.5c5.6-1.9,11.1-2.9,16.9-2.9c15.6,0,30,6.8,45.6,13.9c16,7.6,32.6,15.3,51.7,15.3c3.7,0,7.3-0.5,11-1
				c37-6.3,67.2-32,96.4-56.9c24.4-21,47.7-40.9,72.5-46.3c14.8-3.2,27.4-4.7,39.8-4.7c6.4,0,11.8,0.5,17.1,0.7
				c4.7,0.5,9.3,0.7,14.1,0.7c9.4,0,18.3-1.3,28.5-4.3c34.8-10.4,59.2-31.9,82.9-52.8c20.4-18,41.7-36.9,69.4-47.5
				c19.5-7.6,33-8.7,43.6-8.7c4.9,0,9.4,0.2,14.1,0.5c5.4,0.2,10.7,0.5,16.6,0.5c11.9,0,28.9-1,54.7-8.3c31.4-9,57.2-30.3,82-50.8
				c28-23.3,54.5-45.1,85.9-46.3l7.9-0.5c62.4-2.5,100-4.1,142.4-36.2c7.9-6,15.4-12,22.6-17.6c31.5-24.5,56.3-43.8,69.4-43.8
				c1,0,1.6-0.1,2.2-0.2c1.7-0.6,1.8-1.6,1.8-2C10145.9,7320.6,10141.6,7320.2,10138.1,7320.2z"/>
		</g>
	</g>
</g>
<g>
	<g>
		<g>
			<path fill="#0000FF" d="M2114.5,6476.7c-12.5,0-37.1,15.4-63,31.8c-21.6,13.5-43.8,27.5-58.3,31.9c-11.8,3.5-23.5,5.4-35.8,5.4
				c-13.8,0-26.4-2.1-39.6-4.4c-14.8-2.4-30-4.9-46.9-4.3c-30.6,1.2-61.4,20.2-91.3,38.5c-25.7,16-52.7,32.6-78.6,36.6
				c-8.4,1.4-16.3,2-24.1,2c-17.1,0-30.3-3.2-43.1-6c-11.4-2.8-22.5-5.3-35.1-5.3c-5.3,0-10.5,0.4-16,1.3
				c-19.6,3.4-40.9,18.9-63.5,35.4c-26.9,19.6-54.8,39.9-82.8,42.5c-6.3,0.6-12.6,1-18.5,1c-17.1,0-30.8-2.5-42.7-4.5
				c-10.4-1.9-20.3-3.7-30.8-3.7c-8.4,0-16.5,1.2-25.2,3.3c-19.2,5.2-38,17.2-57.6,30.3c-26.4,17.2-53.9,35.2-83.2,34
				c-46.6-1.9-91.9-41.6-115.6-100.9c-21.5-54.2,16.4-138.8,34.4-156c1.5-1.4,2.8-2.9,2.1-4.4c0-0.5-0.6-1.3-2.1-1.3
				c-7.9,0-61.4,31.3-79.1,86.6c-18.6,57.3-38.1,81.5-54.2,100.8c-22.5,27.4-38.7,47.3-35.4,139.6c1.9,53.1,22.6,80.1,61.2,80.1
				c12.6,0,26.8-2.7,43.6-8.5c5.6-1.9,11.1-2.9,16.9-2.9c15.6,0,30,6.8,45.6,13.9c16,7.6,32.6,15.3,51.7,15.3c3.7,0,7.3-0.5,11-1
				c37-6.3,67.2-32,96.4-56.9c24.4-21,47.7-40.9,72.5-46.3c14.8-3.2,27.4-4.7,39.8-4.7c6.4,0,11.8,0.5,17.1,0.7
				c4.7,0.5,9.3,0.7,14.1,0.7c9.4,0,18.3-1.3,28.5-4.3c34.8-10.4,59.2-31.9,82.9-52.8c20.4-18,41.7-36.9,69.4-47.5
				c19.5-7.6,33-8.7,43.6-8.7c4.9,0,9.4,0.2,14.1,0.5c5.4,0.2,10.7,0.5,16.6,0.5c11.9,0,28.9-1,54.7-8.3c31.4-9,57.2-30.3,82-50.8
				c28-23.3,54.5-45.1,85.9-46.3l7.9-0.5c62.4-2.5,100-4.1,142.4-36.2c7.9-6,15.4-12,22.6-17.6c31.5-24.5,56.3-43.8,69.4-43.8
				c1,0,1.6-0.1,2.2-0.2c1.7-0.6,1.8-1.6,1.8-2C2122.3,6477.1,2118,6476.7,2114.5,6476.7z"/>
		</g>
	</g>
</g>
<g>
	<g>
		<g>
			<path fill="#0000FF" d="M3856.2,6476.7c-12.5,0-37.1,15.4-63,31.8c-21.6,13.5-43.8,27.5-58.3,31.9c-11.8,3.5-23.5,5.4-35.8,5.4
				c-13.8,0-26.4-2.1-39.6-4.4c-14.8-2.4-30-4.9-46.9-4.3c-30.6,1.2-61.4,20.2-91.3,38.5c-25.7,16-52.7,32.6-78.6,36.6
				c-8.4,1.4-16.3,2-24.1,2c-17.1,0-30.3-3.2-43.1-6c-11.4-2.8-22.5-5.3-35.1-5.3c-5.3,0-10.5,0.4-16,1.3
				c-19.6,3.4-40.9,18.9-63.5,35.4c-26.9,19.6-54.8,39.9-82.8,42.5c-6.3,0.6-12.6,1-18.5,1c-17.1,0-30.8-2.5-42.7-4.5
				c-10.4-1.9-20.3-3.7-30.8-3.7c-8.4,0-16.5,1.2-25.2,3.3c-19.2,5.2-38,17.2-57.6,30.3c-26.4,17.2-53.9,35.2-83.2,34
				c-46.6-1.9-91.9-41.6-115.6-100.9c-21.5-54.2,16.4-138.8,34.4-156c1.5-1.4,2.8-2.9,2.1-4.4c0-0.5-0.6-1.3-2.1-1.3
				c-7.9,0-61.4,31.3-79.1,86.6c-18.6,57.3-38.1,81.5-54.2,100.8c-22.5,27.4-38.7,47.3-35.4,139.6c1.9,53.1,22.6,80.1,61.2,80.1
				c12.6,0,26.8-2.7,43.6-8.5c5.6-1.9,11.1-2.9,16.9-2.9c15.6,0,30,6.8,45.6,13.9c16,7.6,32.6,15.3,51.7,15.3c3.7,0,7.3-0.5,11-1
				c37-6.3,67.2-32,96.4-56.9c24.4-21,47.7-40.9,72.5-46.3c14.8-3.2,27.4-4.7,39.8-4.7c6.4,0,11.8,0.5,17.1,0.7
				c4.7,0.5,9.3,0.7,14.1,0.7c9.4,0,18.3-1.3,28.5-4.3c34.8-10.4,59.2-31.9,82.9-52.8c20.4-18,41.7-36.9,69.4-47.5
				c19.5-7.6,33-8.7,43.6-8.7c4.9,0,9.4,0.2,14.1,0.5c5.4,0.2,10.7,0.5,16.6,0.5c11.9,0,28.9-1,54.7-8.3c31.4-9,57.2-30.3,82-50.8
				c28-23.3,54.5-45.1,85.9-46.3l7.9-0.5c62.4-2.5,100-4.1,142.4-36.2c7.9-6,15.4-12,22.6-17.6c31.5-24.5,56.3-43.8,69.4-43.8
				c1,0,1.6-0.1,2.2-0.2c1.7-0.6,1.8-1.6,1.8-2C3864,6477.1,3859.7,6476.7,3856.2,6476.7z"/>
		</g>
	</g>
</g>
<g>
	<g>
		<g>
			<path fill="#0000FF" d="M5598,6476.7c-12.5,0-37.1,15.4-63,31.8c-21.6,13.5-43.8,27.5-58.3,31.9c-11.8,3.5-23.5,5.4-35.8,5.4
				c-13.8,0-26.4-2.1-39.6-4.4c-14.8-2.4-30-4.9-46.9-4.3c-30.6,1.2-61.4,20.2-91.3,38.5c-25.7,16-52.7,32.6-78.6,36.6
				c-8.4,1.4-16.3,2-24.1,2c-17.1,0-30.3-3.2-43.1-6c-11.4-2.8-22.5-5.3-35.1-5.3c-5.3,0-10.5,0.4-16,1.3
				c-19.6,3.4-40.9,18.9-63.5,35.4c-26.9,19.6-54.8,39.9-82.8,42.5c-6.3,0.6-12.6,1-18.5,1c-17.1,0-30.8-2.5-42.7-4.5
				c-10.4-1.9-20.3-3.7-30.8-3.7c-8.4,0-16.5,1.2-25.2,3.3c-19.2,5.2-38,17.2-57.6,30.3c-26.4,17.2-53.9,35.2-83.2,34
				c-46.6-1.9-91.9-41.6-115.6-100.9c-21.5-54.2,16.4-138.8,34.4-156c1.5-1.4,2.8-2.9,2.1-4.4c0-0.5-0.6-1.3-2.1-1.3
				c-7.9,0-61.4,31.3-79.1,86.6c-18.6,57.3-38.1,81.5-54.2,100.8c-22.5,27.4-38.7,47.3-35.4,139.6c1.9,53.1,22.6,80.1,61.2,80.1
				c12.6,0,26.8-2.7,43.6-8.5c5.6-1.9,11.1-2.9,16.9-2.9c15.6,0,30,6.8,45.6,13.9c16,7.6,32.6,15.3,51.7,15.3c3.7,0,7.3-0.5,11-1
				c37-6.3,67.2-32,96.4-56.9c24.4-21,47.7-40.9,72.5-46.3c14.8-3.2,27.4-4.7,39.8-4.7c6.4,0,11.8,0.5,17.1,0.7
				c4.7,0.5,9.3,0.7,14.1,0.7c9.4,0,18.3-1.3,28.5-4.3c34.8-10.4,59.2-31.9,82.9-52.8c20.4-18,41.7-36.9,69.4-47.5
				c19.5-7.6,33-8.7,43.6-8.7c4.9,0,9.4,0.2,14.1,0.5c5.4,0.2,10.7,0.5,16.6,0.5c11.9,0,28.9-1,54.7-8.3c31.4-9,57.2-30.3,82-50.8
				c28-23.3,54.5-45.1,85.9-46.3l7.9-0.5c62.4-2.5,100-4.1,142.4-36.2c7.9-6,15.4-12,22.6-17.6c31.5-24.5,56.3-43.8,69.4-43.8
				c1,0,1.6-0.1,2.2-0.2c1.7-0.6,1.8-1.6,1.8-2C5605.8,6477.1,5601.5,6476.7,5598,6476.7z"/>
		</g>
	</g>
</g>
<g>
	<g>
		<g>
			<path fill="#0000FF" d="M7339.7,6476.7c-12.5,0-37.1,15.4-63,31.8c-21.6,13.5-43.8,27.5-58.3,31.9c-11.8,3.5-23.5,5.4-35.8,5.4
				c-13.8,0-26.4-2.1-39.5-4.4c-14.8-2.4-30-4.9-46.9-4.3c-30.6,1.2-61.4,20.2-91.3,38.5c-25.7,16-52.7,32.6-78.6,36.6
				c-8.4,1.4-16.3,2-24.1,2c-17.1,0-30.3-3.2-43.1-6c-11.4-2.8-22.5-5.3-35.1-5.3c-5.3,0-10.5,0.4-16,1.3
				c-19.6,3.4-40.9,18.9-63.5,35.4c-26.9,19.6-54.8,39.9-82.8,42.5c-6.3,0.6-12.6,1-18.5,1c-17.1,0-30.8-2.5-42.7-4.5
				c-10.4-1.9-20.3-3.7-30.8-3.7c-8.4,0-16.5,1.2-25.2,3.3c-19.2,5.2-38,17.2-57.6,30.3c-26.4,17.2-53.9,35.2-83.2,34
				c-46.6-1.9-91.9-41.6-115.6-100.9c-21.5-54.2,16.4-138.8,34.4-156c1.5-1.4,2.8-2.9,2.1-4.4c0-0.5-0.6-1.3-2.1-1.3
				c-7.9,0-61.4,31.3-79.1,86.6c-18.6,57.3-38.1,81.5-54.2,100.8c-22.5,27.4-38.7,47.3-35.4,139.6c1.9,53.1,22.6,80.1,61.2,80.1
				c12.6,0,26.8-2.7,43.6-8.5c5.6-1.9,11.1-2.9,16.9-2.9c15.6,0,30,6.8,45.6,13.9c16,7.6,32.6,15.3,51.7,15.3c3.7,0,7.3-0.5,11-1
				c37-6.3,67.2-32,96.4-56.9c24.4-21,47.7-40.9,72.5-46.3c14.8-3.2,27.4-4.7,39.8-4.7c6.4,0,11.8,0.5,17.1,0.7
				c4.7,0.5,9.3,0.7,14.1,0.7c9.4,0,18.3-1.3,28.5-4.3c34.8-10.4,59.2-31.9,82.9-52.8c20.4-18,41.7-36.9,69.4-47.5
				c19.5-7.6,33-8.7,43.6-8.7c4.9,0,9.4,0.2,14.1,0.5c5.4,0.2,10.7,0.5,16.6,0.5c11.9,0,28.9-1,54.7-8.3c31.4-9,57.2-30.3,82-50.8
				c28-23.3,54.5-45.1,85.9-46.3l7.9-0.5c62.4-2.5,100-4.1,142.4-36.2c7.9-6,15.4-12,22.6-17.6c31.5-24.5,56.3-43.8,69.4-43.8
				c1,0,1.6-0.1,2.2-0.2c1.7-0.6,1.8-1.6,1.8-2C7347.6,6477.1,7343.2,6476.7,7339.7,6476.7z"/>
		</g>
	</g>
</g>
<g>
	<g>
		<g>
			<path fill="#0000FF" d="M9081.5,6476.7c-12.5,0-37.1,15.4-63,31.8c-21.6,13.5-43.8,27.5-58.3,31.9c-11.8,3.5-23.5,5.4-35.8,5.4
				c-13.8,0-26.4-2.1-39.5-4.4c-14.8-2.4-30-4.9-46.9-4.3c-30.6,1.2-61.4,20.2-91.3,38.5c-25.7,16-52.7,32.6-78.6,36.6
				c-8.4,1.4-16.3,2-24.1,2c-17.1,0-30.3-3.2-43.1-6c-11.4-2.8-22.5-5.3-35.1-5.3c-5.3,0-10.5,0.4-16,1.3
				c-19.6,3.4-40.9,18.9-63.5,35.4c-26.9,19.6-54.8,39.9-82.8,42.5c-6.3,0.6-12.6,1-18.5,1c-17.1,0-30.8-2.5-42.7-4.5
				c-10.4-1.9-20.3-3.7-30.8-3.7c-8.4,0-16.5,1.2-25.2,3.3c-19.2,5.2-38,17.2-57.6,30.3c-26.4,17.2-53.9,35.2-83.2,34
				c-46.6-1.9-91.9-41.6-115.6-100.9c-21.5-54.2,16.4-138.8,34.4-156c1.5-1.4,2.8-2.9,2.1-4.4c0-0.5-0.6-1.3-2.1-1.3
				c-7.9,0-61.4,31.3-79.1,86.6c-18.6,57.3-38.1,81.5-54.2,100.8c-22.5,27.4-38.7,47.3-35.4,139.6c1.9,53.1,22.6,80.1,61.2,80.1
				c12.6,0,26.8-2.7,43.6-8.5c5.6-1.9,11.1-2.9,16.9-2.9c15.6,0,30,6.8,45.6,13.9c16,7.6,32.6,15.3,51.7,15.3c3.7,0,7.3-0.5,11-1
				c37-6.3,67.2-32,96.4-56.9c24.4-21,47.7-40.9,72.5-46.3c14.8-3.2,27.4-4.7,39.8-4.7c6.4,0,11.8,0.5,17.1,0.7
				c4.7,0.5,9.3,0.7,14.1,0.7c9.4,0,18.3-1.3,28.5-4.3c34.8-10.4,59.2-31.9,82.9-52.8c20.4-18,41.7-36.9,69.4-47.5
				c19.5-7.6,33-8.7,43.6-8.7c4.8,0,9.4,0.2,14.1,0.5c5.4,0.2,10.7,0.5,16.6,0.5c11.9,0,28.9-1,54.7-8.3c31.4-9,57.2-30.3,82-50.8
				c28-23.3,54.5-45.1,85.9-46.3l7.9-0.5c62.4-2.5,100-4.1,142.4-36.2c7.9-6,15.4-12,22.6-17.6c31.5-24.5,56.3-43.8,69.4-43.8
				c1,0,1.6-0.1,2.2-0.2c1.7-0.6,1.8-1.6,1.8-2C9089.3,6477.1,9085,6476.7,9081.5,6476.7z"/>
		</g>
	</g>
</g>
<g>
	<g>
		<g>
			<path fill="#0000FF" d="M1429.3,8976.8c-12.5,0-37.1,15.4-63,31.8c-21.6,13.5-43.8,27.5-58.3,31.9c-11.8,3.5-23.5,5.4-35.8,5.4
				c-13.8,0-26.4-2.1-39.6-4.4c-14.8-2.4-30-4.9-46.9-4.3c-30.6,1.2-61.4,20.2-91.3,38.5c-25.7,16-52.7,32.6-78.6,36.6
				c-8.4,1.4-16.3,2-24.1,2c-17.1,0-30.3-3.2-43.1-6c-11.4-2.8-22.5-5.3-35.1-5.3c-5.3,0-10.5,0.4-16,1.3
				c-19.6,3.4-40.9,18.9-63.5,35.4c-26.9,19.6-54.8,39.9-82.8,42.5c-6.3,0.6-12.6,1-18.5,1c-17.1,0-30.8-2.5-42.7-4.5
				c-10.4-1.9-20.3-3.7-30.8-3.7c-8.4,0-16.5,1.2-25.2,3.3c-19.2,5.2-38,17.2-57.6,30.2c-26.4,17.2-53.9,35.2-83.2,34
				c-46.6-1.9-91.9-41.6-115.6-100.9c-21.5-54.2,16.4-138.8,34.4-156c1.5-1.4,2.8-2.9,2.1-4.4c0-0.5-0.6-1.3-2.1-1.3
				c-7.9,0-61.4,31.3-79.1,86.6c-18.6,57.3-38.1,81.5-54.2,100.8c-22.5,27.4-38.7,47.3-35.4,139.6c1.9,53.1,22.6,80.1,61.2,80.1
				c12.6,0,26.8-2.7,43.6-8.5c5.6-1.9,11.1-2.9,16.9-2.9c15.6,0,30,6.8,45.6,13.9c16,7.6,32.6,15.3,51.7,15.3c3.7,0,7.3-0.5,11-1
				c37-6.3,67.2-32,96.4-56.9c24.4-21,47.7-40.9,72.5-46.3c14.8-3.2,27.4-4.7,39.8-4.7c6.4,0,11.8,0.5,17.1,0.7
				c4.7,0.5,9.3,0.7,14.1,0.7c9.4,0,18.3-1.3,28.5-4.3c34.8-10.4,59.2-31.9,82.9-52.8c20.4-18,41.7-36.9,69.4-47.5
				c19.5-7.6,33-8.7,43.6-8.7c4.9,0,9.4,0.2,14.1,0.5c5.4,0.2,10.7,0.5,16.6,0.5c11.9,0,28.9-1,54.7-8.3c31.4-9,57.2-30.3,82-50.8
				c28-23.3,54.5-45.1,85.9-46.3l7.9-0.5c62.4-2.5,100-4.1,142.4-36.2c7.9-6,15.4-12,22.6-17.6c31.5-24.5,56.3-43.8,69.4-43.8
				c1,0,1.6-0.1,2.2-0.2c1.7-0.6,1.8-1.6,1.8-2C1437.1,8977.2,1432.8,8976.8,1429.3,8976.8z"/>
		</g>
	</g>
</g>
<g>
	<g>
		<g>
			<path fill="#0000FF" d="M3171.1,8976.8c-12.5,0-37.1,15.4-63,31.8c-21.6,13.5-43.8,27.5-58.3,31.9c-11.8,3.5-23.5,5.4-35.8,5.4
				c-13.8,0-26.4-2.1-39.6-4.4c-14.8-2.4-30-4.9-46.9-4.3c-30.6,1.2-61.4,20.2-91.3,38.5c-25.7,16-52.7,32.6-78.6,36.6
				c-8.4,1.4-16.3,2-24.1,2c-17.1,0-30.3-3.2-43.1-6c-11.4-2.8-22.5-5.3-35.1-5.3c-5.3,0-10.5,0.4-16,1.3
				c-19.6,3.4-40.9,18.9-63.5,35.4c-26.9,19.6-54.8,39.9-82.8,42.5c-6.3,0.6-12.6,1-18.5,1c-17.1,0-30.8-2.5-42.7-4.5
				c-10.4-1.9-20.3-3.7-30.8-3.7c-8.4,0-16.5,1.2-25.2,3.3c-19.2,5.2-38,17.2-57.6,30.2c-26.4,17.2-53.9,35.2-83.2,34
				c-46.6-1.9-91.9-41.6-115.6-100.9c-21.5-54.2,16.4-138.8,34.4-156c1.5-1.4,2.8-2.9,2.1-4.4c0-0.5-0.6-1.3-2.1-1.3
				c-7.9,0-61.4,31.3-79.1,86.6c-18.6,57.3-38.1,81.5-54.2,100.8c-22.5,27.4-38.7,47.3-35.4,139.6c1.9,53.1,22.6,80.1,61.2,80.1
				c12.6,0,26.8-2.7,43.6-8.5c5.6-1.9,11.1-2.9,16.9-2.9c15.6,0,30,6.8,45.6,13.9c16,7.6,32.6,15.3,51.7,15.3c3.7,0,7.3-0.5,11-1
				c37-6.3,67.2-32,96.4-56.9c24.4-21,47.7-40.9,72.5-46.3c14.8-3.2,27.4-4.7,39.8-4.7c6.4,0,11.8,0.5,17.1,0.7
				c4.7,0.5,9.3,0.7,14.1,0.7c9.4,0,18.3-1.3,28.5-4.3c34.8-10.4,59.2-31.9,82.9-52.8c20.4-18,41.7-36.9,69.4-47.5
				c19.5-7.6,33-8.7,43.6-8.7c4.9,0,9.4,0.2,14.1,0.5c5.4,0.2,10.7,0.5,16.6,0.5c11.9,0,28.9-1,54.7-8.3c31.4-9,57.2-30.3,82-50.8
				c28-23.3,54.5-45.1,85.9-46.3l7.9-0.5c62.4-2.5,100-4.1,142.4-36.2c7.9-6,15.4-12,22.6-17.6c31.5-24.5,56.3-43.8,69.4-43.8
				c1,0,1.6-0.1,2.2-0.2c1.7-0.6,1.8-1.6,1.8-2C3178.9,8977.2,3174.6,8976.8,3171.1,8976.8z"/>
		</g>
	</g>
</g>
<g>
	<g>
		<g>
			<path fill="#0000FF" d="M4912.8,8976.8c-12.5,0-37.1,15.4-63,31.8c-21.6,13.5-43.8,27.5-58.3,31.9c-11.8,3.5-23.5,5.4-35.8,5.4
				c-13.8,0-26.4-2.1-39.6-4.4c-14.8-2.4-30-4.9-46.9-4.3c-30.6,1.2-61.4,20.2-91.3,38.5c-25.7,16-52.7,32.6-78.6,36.6
				c-8.4,1.4-16.3,2-24.1,2c-17.1,0-30.3-3.2-43.1-6c-11.4-2.8-22.5-5.3-35.1-5.3c-5.3,0-10.5,0.4-16,1.3
				c-19.6,3.4-40.9,18.9-63.5,35.4c-26.9,19.6-54.8,39.9-82.8,42.5c-6.3,0.6-12.6,1-18.5,1c-17.1,0-30.8-2.5-42.7-4.5
				c-10.4-1.9-20.3-3.7-30.8-3.7c-8.4,0-16.5,1.2-25.2,3.3c-19.2,5.2-38,17.2-57.6,30.2c-26.4,17.2-53.9,35.2-83.2,34
				c-46.6-1.9-91.9-41.6-115.6-100.9c-21.5-54.2,16.4-138.8,34.4-156c1.5-1.4,2.8-2.9,2.1-4.4c0-0.5-0.6-1.3-2.1-1.3
				c-7.9,0-61.4,31.3-79.1,86.6c-18.6,57.3-38.1,81.5-54.2,100.8c-22.5,27.4-38.7,47.3-35.4,139.6c1.9,53.1,22.6,80.1,61.2,80.1
				c12.6,0,26.8-2.7,43.6-8.5c5.6-1.9,11.1-2.9,16.9-2.9c15.6,0,30,6.8,45.6,13.9c16,7.6,32.6,15.3,51.7,15.3c3.7,0,7.3-0.5,11-1
				c37-6.3,67.2-32,96.4-56.9c24.4-21,47.7-40.9,72.5-46.3c14.8-3.2,27.4-4.7,39.8-4.7c6.4,0,11.8,0.5,17.1,0.7
				c4.7,0.5,9.3,0.7,14.1,0.7c9.4,0,18.3-1.3,28.5-4.3c34.8-10.4,59.2-31.9,82.9-52.8c20.4-18,41.7-36.9,69.4-47.5
				c19.5-7.6,33-8.7,43.6-8.7c4.9,0,9.4,0.2,14.1,0.5c5.4,0.2,10.7,0.5,16.6,0.5c11.9,0,28.9-1,54.7-8.3c31.4-9,57.2-30.3,82-50.8
				c28-23.3,54.5-45.1,85.9-46.3l7.9-0.5c62.4-2.5,100-4.1,142.4-36.2c7.9-6,15.4-12,22.6-17.6c31.5-24.5,56.3-43.8,69.4-43.8
				c1,0,1.6-0.1,2.2-0.2c1.7-0.6,1.8-1.6,1.8-2C4920.6,8977.2,4916.3,8976.8,4912.8,8976.8z"/>
		</g>
	</g>
</g>
<g>
	<g>
		<g>
			<path fill="#0000FF" d="M6654.6,8976.8c-12.5,0-37.1,15.4-63,31.8c-21.6,13.5-43.8,27.5-58.3,31.9c-11.8,3.5-23.5,5.4-35.8,5.4
				c-13.8,0-26.4-2.1-39.5-4.4c-14.8-2.4-30-4.9-46.9-4.3c-30.6,1.2-61.4,20.2-91.3,38.5c-25.7,16-52.7,32.6-78.6,36.6
				c-8.4,1.4-16.3,2-24.1,2c-17.1,0-30.3-3.2-43.1-6c-11.4-2.8-22.5-5.3-35.1-5.3c-5.3,0-10.5,0.4-16,1.3
				c-19.6,3.4-40.9,18.9-63.5,35.4c-26.9,19.6-54.8,39.9-82.8,42.5c-6.3,0.6-12.6,1-18.5,1c-17.1,0-30.8-2.5-42.7-4.5
				c-10.4-1.9-20.3-3.7-30.8-3.7c-8.4,0-16.5,1.2-25.2,3.3c-19.2,5.2-38,17.2-57.6,30.2c-26.4,17.2-53.9,35.2-83.2,34
				c-46.6-1.9-91.9-41.6-115.6-100.9c-21.5-54.2,16.4-138.8,34.4-156c1.5-1.4,2.8-2.9,2.1-4.4c0-0.5-0.6-1.3-2.1-1.3
				c-7.9,0-61.4,31.3-79.1,86.6c-18.6,57.3-38.1,81.5-54.2,100.8c-22.5,27.4-38.7,47.3-35.4,139.6c1.9,53.1,22.6,80.1,61.2,80.1
				c12.6,0,26.8-2.7,43.6-8.5c5.6-1.9,11.1-2.9,16.9-2.9c15.6,0,30,6.8,45.6,13.9c16,7.6,32.6,15.3,51.7,15.3c3.7,0,7.3-0.5,11-1
				c37-6.3,67.2-32,96.4-56.9c24.4-21,47.7-40.9,72.5-46.3c14.8-3.2,27.4-4.7,39.8-4.7c6.4,0,11.8,0.5,17.1,0.7
				c4.7,0.5,9.3,0.7,14.1,0.7c9.4,0,18.3-1.3,28.5-4.3c34.8-10.4,59.2-31.9,82.9-52.8c20.4-18,41.7-36.9,69.4-47.5
				c19.5-7.6,33-8.7,43.6-8.7c4.9,0,9.4,0.2,14.1,0.5c5.4,0.2,10.7,0.5,16.6,0.5c11.9,0,28.9-1,54.7-8.3c31.4-9,57.2-30.3,82-50.8
				c28-23.3,54.5-45.1,85.9-46.3l7.9-0.5c62.4-2.5,100-4.1,142.4-36.2c7.9-6,15.4-12,22.6-17.6c31.5-24.5,56.3-43.8,69.4-43.8
				c1,0,1.6-0.1,2.2-0.2c1.7-0.6,1.8-1.6,1.8-2C6662.4,8977.2,6658.1,8976.8,6654.6,8976.8z"/>
		</g>
	</g>
</g>
<g>
	<g>
		<g>
			<path fill="#0000FF" d="M8396.3,8976.8c-12.5,0-37.1,15.4-63,31.8c-21.6,13.5-43.8,27.5-58.3,31.9c-11.8,3.5-23.5,5.4-35.8,5.4
				c-13.8,0-26.4-2.1-39.5-4.4c-14.8-2.4-30-4.9-46.9-4.3c-30.6,1.2-61.4,20.2-91.3,38.5c-25.7,16-52.7,32.6-78.6,36.6
				c-8.4,1.4-16.3,2-24.1,2c-17.1,0-30.3-3.2-43.1-6c-11.4-2.8-22.5-5.3-35.1-5.3c-5.3,0-10.5,0.4-16,1.3
				c-19.6,3.4-40.9,18.9-63.5,35.4c-26.9,19.6-54.8,39.9-82.8,42.5c-6.3,0.6-12.6,1-18.5,1c-17.1,0-30.8-2.5-42.7-4.5
				c-10.4-1.9-20.3-3.7-30.8-3.7c-8.4,0-16.5,1.2-25.2,3.3c-19.2,5.2-38,17.2-57.6,30.2c-26.4,17.2-53.9,35.2-83.2,34
				c-46.6-1.9-91.9-41.6-115.6-100.9c-21.5-54.2,16.4-138.8,34.4-156c1.5-1.4,2.8-2.9,2.1-4.4c0-0.5-0.6-1.3-2.1-1.3
				c-7.9,0-61.4,31.3-79.1,86.6c-18.6,57.3-38.1,81.5-54.2,100.8c-22.5,27.4-38.7,47.3-35.4,139.6c1.9,53.1,22.6,80.1,61.2,80.1
				c12.6,0,26.8-2.7,43.6-8.5c5.6-1.9,11.1-2.9,16.9-2.9c15.6,0,30,6.8,45.6,13.9c16,7.6,32.6,15.3,51.7,15.3c3.7,0,7.3-0.5,11-1
				c37-6.3,67.2-32,96.4-56.9c24.4-21,47.7-40.9,72.5-46.3c14.8-3.2,27.4-4.7,39.8-4.7c6.4,0,11.8,0.5,17.1,0.7
				c4.7,0.5,9.3,0.7,14.1,0.7c9.4,0,18.3-1.3,28.5-4.3c34.8-10.4,59.2-31.9,82.9-52.8c20.4-18,41.7-36.9,69.4-47.5
				c19.5-7.6,33-8.7,43.6-8.7c4.9,0,9.4,0.2,14.1,0.5c5.4,0.2,10.7,0.5,16.6,0.5c11.9,0,28.9-1,54.7-8.3c31.4-9,57.2-30.3,82-50.8
				c28-23.3,54.5-45.1,85.9-46.3l7.9-0.5c62.4-2.5,100-4.1,142.4-36.2c7.9-6,15.4-12,22.6-17.6c31.5-24.5,56.3-43.8,69.4-43.8
				c1,0,1.6-0.1,2.2-0.2c1.7-0.6,1.8-1.6,1.8-2C8404.2,8977.2,8399.8,8976.8,8396.3,8976.8z"/>
		</g>
	</g>
</g>
<g>
	<g>
		<g>
			<path fill="#0000FF" d="M10138.1,8976.8c-12.5,0-37.1,15.4-63,31.8c-21.6,13.5-43.8,27.5-58.3,31.9c-11.8,3.5-23.5,5.4-35.8,5.4
				c-13.8,0-26.4-2.1-39.5-4.4c-14.8-2.4-30-4.9-46.9-4.3c-30.6,1.2-61.4,20.2-91.3,38.5c-25.7,16-52.7,32.6-78.6,36.6
				c-8.4,1.4-16.3,2-24.1,2c-17.1,0-30.3-3.2-43.1-6c-11.4-2.8-22.5-5.3-35.1-5.3c-5.3,0-10.5,0.4-16,1.3
				c-19.6,3.4-40.9,18.9-63.5,35.4c-26.9,19.6-54.8,39.9-82.8,42.5c-6.3,0.6-12.6,1-18.5,1c-17.1,0-30.8-2.5-42.7-4.5
				c-10.4-1.9-20.3-3.7-30.8-3.7c-8.4,0-16.5,1.2-25.2,3.3c-19.2,5.2-38,17.2-57.6,30.2c-26.4,17.2-53.9,35.2-83.2,34
				c-46.6-1.9-91.9-41.6-115.6-100.9c-21.5-54.2,16.4-138.8,34.4-156c1.5-1.4,2.8-2.9,2.1-4.4c0-0.5-0.6-1.3-2.1-1.3
				c-7.9,0-61.4,31.3-79.1,86.6c-18.6,57.3-38.1,81.5-54.2,100.8c-22.5,27.4-38.7,47.3-35.4,139.6c1.9,53.1,22.6,80.1,61.2,80.1
				c12.6,0,26.8-2.7,43.6-8.5c5.6-1.9,11.1-2.9,16.9-2.9c15.6,0,30,6.8,45.6,13.9c16,7.6,32.6,15.3,51.7,15.3c3.7,0,7.3-0.5,11-1
				c37-6.3,67.2-32,96.4-56.9c24.4-21,47.7-40.9,72.5-46.3c14.8-3.2,27.4-4.7,39.8-4.7c6.4,0,11.8,0.5,17.1,0.7
				c4.7,0.5,9.3,0.7,14.1,0.7c9.4,0,18.3-1.3,28.5-4.3c34.8-10.4,59.2-31.9,82.9-52.8c20.4-18,41.7-36.9,69.4-47.5
				c19.5-7.6,33-8.7,43.6-8.7c4.9,0,9.4,0.2,14.1,0.5c5.4,0.2,10.7,0.5,16.6,0.5c11.9,0,28.9-1,54.7-8.3c31.4-9,57.2-30.3,82-50.8
				c28-23.3,54.5-45.1,85.9-46.3l7.9-0.5c62.4-2.5,100-4.1,142.4-36.2c7.9-6,15.4-12,22.6-17.6c31.5-24.5,56.3-43.8,69.4-43.8
				c1,0,1.6-0.1,2.2-0.2c1.7-0.6,1.8-1.6,1.8-2C10145.9,8977.2,10141.6,8976.8,10138.1,8976.8z"/>
		</g>
	</g>
</g>
<g>
	<g>
		<g>
			<path fill="#0000FF" d="M2114.5,8133.4c-12.5,0-37.1,15.4-63,31.8c-21.6,13.5-43.8,27.5-58.3,31.9c-11.8,3.5-23.5,5.4-35.8,5.4
				c-13.8,0-26.4-2.1-39.6-4.4c-14.8-2.4-30-4.9-46.9-4.3c-30.6,1.2-61.4,20.2-91.3,38.5c-25.7,16-52.7,32.6-78.6,36.6
				c-8.4,1.4-16.3,2-24.1,2c-17.1,0-30.3-3.2-43.1-6c-11.4-2.8-22.5-5.3-35.1-5.3c-5.3,0-10.5,0.4-16,1.3
				c-19.6,3.4-40.9,18.9-63.5,35.4c-26.9,19.6-54.8,39.9-82.8,42.5c-6.3,0.6-12.6,1-18.5,1c-17.1,0-30.8-2.5-42.7-4.5
				c-10.4-1.9-20.3-3.7-30.8-3.7c-8.4,0-16.5,1.2-25.2,3.3c-19.2,5.2-38,17.2-57.6,30.2c-26.4,17.2-53.9,35.2-83.2,34
				c-46.6-1.9-91.9-41.6-115.6-100.9c-21.5-54.2,16.4-138.8,34.4-156c1.5-1.4,2.8-2.9,2.1-4.4c0-0.5-0.6-1.3-2.1-1.3
				c-7.9,0-61.4,31.3-79.1,86.6c-18.6,57.3-38.1,81.5-54.2,100.8c-22.5,27.4-38.7,47.3-35.4,139.6c1.9,53.1,22.6,80.1,61.2,80.1
				c12.6,0,26.8-2.7,43.6-8.5c5.6-1.9,11.1-2.9,16.9-2.9c15.6,0,30,6.8,45.6,13.9c16,7.6,32.6,15.3,51.7,15.3c3.7,0,7.3-0.5,11-1
				c37-6.3,67.2-32,96.4-56.9c24.4-21,47.7-40.9,72.5-46.3c14.8-3.2,27.4-4.7,39.8-4.7c6.4,0,11.8,0.5,17.1,0.7
				c4.7,0.5,9.3,0.7,14.1,0.7c9.4,0,18.3-1.3,28.5-4.3c34.8-10.4,59.2-31.9,82.9-52.8c20.4-18,41.7-36.9,69.4-47.5
				c19.5-7.6,33-8.7,43.6-8.7c4.9,0,9.4,0.2,14.1,0.5c5.4,0.2,10.7,0.5,16.6,0.5c11.9,0,28.9-1,54.7-8.3c31.4-9,57.2-30.2,82-50.8
				c28-23.3,54.5-45.1,85.9-46.3l7.9-0.5c62.4-2.5,100-4.1,142.4-36.2c7.9-6,15.4-12,22.6-17.6c31.5-24.5,56.3-43.8,69.4-43.8
				c1,0,1.6-0.1,2.2-0.2c1.7-0.6,1.8-1.6,1.8-2C2122.3,8133.8,2118,8133.4,2114.5,8133.4z"/>
		</g>
	</g>
</g>
<g>
	<g>
		<g>
			<path fill="#0000FF" d="M3856.2,8133.4c-12.5,0-37.1,15.4-63,31.8c-21.6,13.5-43.8,27.5-58.3,31.9c-11.8,3.5-23.5,5.4-35.8,5.4
				c-13.8,0-26.4-2.1-39.6-4.4c-14.8-2.4-30-4.9-46.9-4.3c-30.6,1.2-61.4,20.2-91.3,38.5c-25.7,16-52.7,32.6-78.6,36.6
				c-8.4,1.4-16.3,2-24.1,2c-17.1,0-30.3-3.2-43.1-6c-11.4-2.8-22.5-5.3-35.1-5.3c-5.3,0-10.5,0.4-16,1.3
				c-19.6,3.4-40.9,18.9-63.5,35.4c-26.9,19.6-54.8,39.9-82.8,42.5c-6.3,0.6-12.6,1-18.5,1c-17.1,0-30.8-2.5-42.7-4.5
				c-10.4-1.9-20.3-3.7-30.8-3.7c-8.4,0-16.5,1.2-25.2,3.3c-19.2,5.2-38,17.2-57.6,30.2c-26.4,17.2-53.9,35.2-83.2,34
				c-46.6-1.9-91.9-41.6-115.6-100.9c-21.5-54.2,16.4-138.8,34.4-156c1.5-1.4,2.8-2.9,2.1-4.4c0-0.5-0.6-1.3-2.1-1.3
				c-7.9,0-61.4,31.3-79.1,86.6c-18.6,57.3-38.1,81.5-54.2,100.8c-22.5,27.4-38.7,47.3-35.4,139.6c1.9,53.1,22.6,80.1,61.2,80.1
				c12.6,0,26.8-2.7,43.6-8.5c5.6-1.9,11.1-2.9,16.9-2.9c15.6,0,30,6.8,45.6,13.9c16,7.6,32.6,15.3,51.7,15.3c3.7,0,7.3-0.5,11-1
				c37-6.3,67.2-32,96.4-56.9c24.4-21,47.7-40.9,72.5-46.3c14.8-3.2,27.4-4.7,39.8-4.7c6.4,0,11.8,0.5,17.1,0.7
				c4.7,0.5,9.3,0.7,14.1,0.7c9.4,0,18.3-1.3,28.5-4.3c34.8-10.4,59.2-31.9,82.9-52.8c20.4-18,41.7-36.9,69.4-47.5
				c19.5-7.6,33-8.7,43.6-8.7c4.9,0,9.4,0.2,14.1,0.5c5.4,0.2,10.7,0.5,16.6,0.5c11.9,0,28.9-1,54.7-8.3c31.4-9,57.2-30.2,82-50.8
				c28-23.3,54.5-45.1,85.9-46.3l7.9-0.5c62.4-2.5,100-4.1,142.4-36.2c7.9-6,15.4-12,22.6-17.6c31.5-24.5,56.3-43.8,69.4-43.8
				c1,0,1.6-0.1,2.2-0.2c1.7-0.6,1.8-1.6,1.8-2C3864,8133.8,3859.7,8133.4,3856.2,8133.4z"/>
		</g>
	</g>
</g>
<g>
	<g>
		<g>
			<path fill="#0000FF" d="M5598,8133.4c-12.5,0-37.1,15.4-63,31.8c-21.6,13.5-43.8,27.5-58.3,31.9c-11.8,3.5-23.5,5.4-35.8,5.4
				c-13.8,0-26.4-2.1-39.6-4.4c-14.8-2.4-30-4.9-46.9-4.3c-30.6,1.2-61.4,20.2-91.3,38.5c-25.7,16-52.7,32.6-78.6,36.6
				c-8.4,1.4-16.3,2-24.1,2c-17.1,0-30.3-3.2-43.1-6c-11.4-2.8-22.5-5.3-35.1-5.3c-5.3,0-10.5,0.4-16,1.3
				c-19.6,3.4-40.9,18.9-63.5,35.4c-26.9,19.6-54.8,39.9-82.8,42.5c-6.3,0.6-12.6,1-18.5,1c-17.1,0-30.8-2.5-42.7-4.5
				c-10.4-1.9-20.3-3.7-30.8-3.7c-8.4,0-16.5,1.2-25.2,3.3c-19.2,5.2-38,17.2-57.6,30.2c-26.4,17.2-53.9,35.2-83.2,34
				c-46.6-1.9-91.9-41.6-115.6-100.9c-21.5-54.2,16.4-138.8,34.4-156c1.5-1.4,2.8-2.9,2.1-4.4c0-0.5-0.6-1.3-2.1-1.3
				c-7.9,0-61.4,31.3-79.1,86.6c-18.6,57.3-38.1,81.5-54.2,100.8c-22.5,27.4-38.7,47.3-35.4,139.6c1.9,53.1,22.6,80.1,61.2,80.1
				c12.6,0,26.8-2.7,43.6-8.5c5.6-1.9,11.1-2.9,16.9-2.9c15.6,0,30,6.8,45.6,13.9c16,7.6,32.6,15.3,51.7,15.3c3.7,0,7.3-0.5,11-1
				c37-6.3,67.2-32,96.4-56.9c24.4-21,47.7-40.9,72.5-46.3c14.8-3.2,27.4-4.7,39.8-4.7c6.4,0,11.8,0.5,17.1,0.7
				c4.7,0.5,9.3,0.7,14.1,0.7c9.4,0,18.3-1.3,28.5-4.3c34.8-10.4,59.2-31.9,82.9-52.8c20.4-18,41.7-36.9,69.4-47.5
				c19.5-7.6,33-8.7,43.6-8.7c4.9,0,9.4,0.2,14.1,0.5c5.4,0.2,10.7,0.5,16.6,0.5c11.9,0,28.9-1,54.7-8.3c31.4-9,57.2-30.2,82-50.8
				c28-23.3,54.5-45.1,85.9-46.3l7.9-0.5c62.4-2.5,100-4.1,142.4-36.2c7.9-6,15.4-12,22.6-17.6c31.5-24.5,56.3-43.8,69.4-43.8
				c1,0,1.6-0.1,2.2-0.2c1.7-0.6,1.8-1.6,1.8-2C5605.8,8133.8,5601.5,8133.4,5598,8133.4z"/>
		</g>
	</g>
</g>
<g>
	<g>
		<g>
			<path fill="#0000FF" d="M7339.7,8133.4c-12.5,0-37.1,15.4-63,31.8c-21.6,13.5-43.8,27.5-58.3,31.9c-11.8,3.5-23.5,5.4-35.8,5.4
				c-13.8,0-26.4-2.1-39.5-4.4c-14.8-2.4-30-4.9-46.9-4.3c-30.6,1.2-61.4,20.2-91.3,38.5c-25.7,16-52.7,32.6-78.6,36.6
				c-8.4,1.4-16.3,2-24.1,2c-17.1,0-30.3-3.2-43.1-6c-11.4-2.8-22.5-5.3-35.1-5.3c-5.3,0-10.5,0.4-16,1.3
				c-19.6,3.4-40.9,18.9-63.5,35.4c-26.9,19.6-54.8,39.9-82.8,42.5c-6.3,0.6-12.6,1-18.5,1c-17.1,0-30.8-2.5-42.7-4.5
				c-10.4-1.9-20.3-3.7-30.8-3.7c-8.4,0-16.5,1.2-25.2,3.3c-19.2,5.2-38,17.2-57.6,30.2c-26.4,17.2-53.9,35.2-83.2,34
				c-46.6-1.9-91.9-41.6-115.6-100.9c-21.5-54.2,16.4-138.8,34.4-156c1.5-1.4,2.8-2.9,2.1-4.4c0-0.5-0.6-1.3-2.1-1.3
				c-7.9,0-61.4,31.3-79.1,86.6c-18.6,57.3-38.1,81.5-54.2,100.8c-22.5,27.4-38.7,47.3-35.4,139.6c1.9,53.1,22.6,80.1,61.2,80.1
				c12.6,0,26.8-2.7,43.6-8.5c5.6-1.9,11.1-2.9,16.9-2.9c15.6,0,30,6.8,45.6,13.9c16,7.6,32.6,15.3,51.7,15.3c3.7,0,7.3-0.5,11-1
				c37-6.3,67.2-32,96.4-56.9c24.4-21,47.7-40.9,72.5-46.3c14.8-3.2,27.4-4.7,39.8-4.7c6.4,0,11.8,0.5,17.1,0.7
				c4.7,0.5,9.3,0.7,14.1,0.7c9.4,0,18.3-1.3,28.5-4.3c34.8-10.4,59.2-31.9,82.9-52.8c20.4-18,41.7-36.9,69.4-47.5
				c19.5-7.6,33-8.7,43.6-8.7c4.9,0,9.4,0.2,14.1,0.5c5.4,0.2,10.7,0.5,16.6,0.5c11.9,0,28.9-1,54.7-8.3c31.4-9,57.2-30.2,82-50.8
				c28-23.3,54.5-45.1,85.9-46.3l7.9-0.5c62.4-2.5,100-4.1,142.4-36.2c7.9-6,15.4-12,22.6-17.6c31.5-24.5,56.3-43.8,69.4-43.8
				c1,0,1.6-0.1,2.2-0.2c1.7-0.6,1.8-1.6,1.8-2C7347.6,8133.8,7343.2,8133.4,7339.7,8133.4z"/>
		</g>
	</g>
</g>
<g>
	<g>
		<g>
			<path fill="#0000FF" d="M9081.5,8133.4c-12.5,0-37.1,15.4-63,31.8c-21.6,13.5-43.8,27.5-58.3,31.9c-11.8,3.5-23.5,5.4-35.8,5.4
				c-13.8,0-26.4-2.1-39.5-4.4c-14.8-2.4-30-4.9-46.9-4.3c-30.6,1.2-61.4,20.2-91.3,38.5c-25.7,16-52.7,32.6-78.6,36.6
				c-8.4,1.4-16.3,2-24.1,2c-17.1,0-30.3-3.2-43.1-6c-11.4-2.8-22.5-5.3-35.1-5.3c-5.3,0-10.5,0.4-16,1.3
				c-19.6,3.4-40.9,18.9-63.5,35.4c-26.9,19.6-54.8,39.9-82.8,42.5c-6.3,0.6-12.6,1-18.5,1c-17.1,0-30.8-2.5-42.7-4.5
				c-10.4-1.9-20.3-3.7-30.8-3.7c-8.4,0-16.5,1.2-25.2,3.3c-19.2,5.2-38,17.2-57.6,30.2c-26.4,17.2-53.9,35.2-83.2,34
				c-46.6-1.9-91.9-41.6-115.6-100.9c-21.5-54.2,16.4-138.8,34.4-156c1.5-1.4,2.8-2.9,2.1-4.4c0-0.5-0.6-1.3-2.1-1.3
				c-7.9,0-61.4,31.3-79.1,86.6c-18.6,57.3-38.1,81.5-54.2,100.8c-22.5,27.4-38.7,47.3-35.4,139.6c1.9,53.1,22.6,80.1,61.2,80.1
				c12.6,0,26.8-2.7,43.6-8.5c5.6-1.9,11.1-2.9,16.9-2.9c15.6,0,30,6.8,45.6,13.9c16,7.6,32.6,15.3,51.7,15.3c3.7,0,7.3-0.5,11-1
				c37-6.3,67.2-32,96.4-56.9c24.4-21,47.7-40.9,72.5-46.3c14.8-3.2,27.4-4.7,39.8-4.7c6.4,0,11.8,0.5,17.1,0.7
				c4.7,0.5,9.3,0.7,14.1,0.7c9.4,0,18.3-1.3,28.5-4.3c34.8-10.4,59.2-31.9,82.9-52.8c20.4-18,41.7-36.9,69.4-47.5
				c19.5-7.6,33-8.7,43.6-8.7c4.8,0,9.4,0.2,14.1,0.5c5.4,0.2,10.7,0.5,16.6,0.5c11.9,0,28.9-1,54.7-8.3c31.4-9,57.2-30.2,82-50.8
				c28-23.3,54.5-45.1,85.9-46.3l7.9-0.5c62.4-2.5,100-4.1,142.4-36.2c7.9-6,15.4-12,22.6-17.6c31.5-24.5,56.3-43.8,69.4-43.8
				c1,0,1.6-0.1,2.2-0.2c1.7-0.6,1.8-1.6,1.8-2C9089.3,8133.8,9085,8133.4,9081.5,8133.4z"/>
		</g>
	</g>
</g>
</svg>
