<?xml version="1.0" encoding="utf-8"?>
<!-- Generator: Adobe Illustrator 18.1.1, SVG Export Plug-In . SVG Version: 6.00 Build 0)  -->
<svg version="1.1" id="Layer_1" xmlns="http://www.w3.org/2000/svg" xmlns:xlink="http://www.w3.org/1999/xlink" x="0px" y="0px"
	 viewBox="0 0 784 295" enable-background="new 0 0 784 295" xml:space="preserve">
<g>
	<g>
		<path fill="#0000FF" d="M13.8,20.1C9.4,34,4.3,28.4,4.9,44.2c0.3,8.8,5.6,8.6,10.2,7c4.3-1.5,7.7,3.4,12.4,2.5
			c6.7-1.1,11.3-9.2,16.7-10.4c5.4-1.2,6.1,0.3,9.9-0.8c6.4-1.9,9.2-7.8,15.1-10.1c5.1-2,6.2,0.3,12.8-1.6
			c6.6-1.9,10.7-9.5,16.7-9.8c6.7-0.3,10.5-0.3,14.8-3.7c4.3-3.4,7.6-6.2,9.2-6.2c0.4,0,0.3-0.2-0.4-0.2c-2.2,0-8.8,5.4-12,6.4
			c-4.7,1.4-7.9-0.5-12.2-0.3c-5.7,0.2-11.3,6.7-16.8,7.5c-5.6,0.9-7.6-1.5-11.7-0.8c-4.2,0.7-9.3,7.3-14.5,7.8
			c-5.6,0.5-7.5-1.5-11.6-0.4c-4.6,1.2-9,6.7-14,6.5c-5.1-0.2-9.4-4.7-11.6-10.2c-2.2-5.5,1.7-14.1,3.4-15.8
			C22.8,10.4,15.8,13.6,13.8,20.1z"/>
		<path fill="#0000FF" d="M131.9,20.1c-4.4,13.9-9.4,8.3-8.9,24.1c0.3,8.8,5.6,8.6,10.2,7c4.3-1.5,7.7,3.4,12.4,2.5
			c6.7-1.1,11.3-9.2,16.7-10.4c5.4-1.2,6.1,0.3,9.9-0.8c6.4-1.9,9.2-7.8,15.1-10.1c5.1-2,6.2,0.3,12.8-1.6
			c6.6-1.9,10.7-9.5,16.7-9.8c6.7-0.3,10.5-0.3,14.8-3.7c4.3-3.4,7.6-6.2,9.2-6.2c0.4,0,0.3-0.2-0.4-0.2c-2.2,0-8.8,5.4-12,6.4
			c-4.7,1.4-7.9-0.5-12.2-0.3c-5.7,0.2-11.3,6.7-16.8,7.5s-7.6-1.5-11.7-0.8c-4.2,0.7-9.3,7.3-14.5,7.8c-5.6,0.5-7.5-1.5-11.6-0.4
			c-4.6,1.2-9,6.7-14,6.5c-5.1-0.2-9.4-4.7-11.6-10.2c-2.2-5.5,1.7-14.1,3.4-15.8C140.9,10.4,133.9,13.6,131.9,20.1z"/>
		<path fill="#0000FF" d="M250,20.1c-4.4,13.9-9.4,8.3-8.9,24.1c0.3,8.8,5.6,8.6,10.2,7c4.3-1.5,7.7,3.4,12.4,2.5
			c6.7-1.1,11.3-9.2,16.7-10.4c5.4-1.2,6.1,0.3,9.9-0.8c6.4-1.9,9.2-7.8,15.1-10.1c5.1-2,6.2,0.3,12.8-1.6
			c6.6-1.9,10.7-9.5,16.7-9.8c6.7-0.3,10.5-0.3,14.8-3.7c4.3-3.4,7.6-6.2,9.2-6.2c0.4,0,0.3-0.2-0.4-0.2c-2.2,0-8.8,5.4-12,6.4
			c-4.7,1.4-7.9-0.5-12.2-0.3c-5.7,0.2-11.3,6.7-16.8,7.5c-5.6,0.9-7.6-1.5-11.7-0.8c-4.2,0.7-9.3,7.3-14.5,7.8
			c-5.6,0.5-7.5-1.5-11.6-0.4c-4.6,1.2-9,6.7-14,6.5c-5.1-0.2-9.4-4.7-11.6-10.2c-2.2-5.5,1.7-14.1,3.4-15.8
			C259,10.4,252.1,13.6,250,20.1z"/>
		<path fill="#0000FF" d="M368.1,20.1c-4.4,13.9-9.4,8.3-8.9,24.1c0.3,8.8,5.6,8.6,10.2,7c4.3-1.5,7.7,3.4,12.4,2.5
			c6.7-1.1,11.3-9.2,16.7-10.4c5.4-1.2,6.1,0.4,9.9-0.8c6.4-1.9,9.2-7.8,15.1-10.1c5.1-2,6.2,0.3,12.8-1.6
			c6.6-1.9,10.7-9.5,16.7-9.8c6.7-0.3,10.5-0.3,14.8-3.7c4.3-3.4,7.6-6.2,9.2-6.2c0.4,0,0.3-0.2-0.4-0.2c-2.2,0-8.8,5.4-12,6.4
			c-4.7,1.4-7.9-0.5-12.2-0.3c-5.7,0.2-11.3,6.7-16.8,7.5s-7.6-1.5-11.7-0.8c-4.2,0.7-9.3,7.3-14.5,7.8c-5.6,0.5-7.5-1.5-11.6-0.4
			c-4.6,1.2-9,6.7-14,6.5c-5.1-0.2-9.4-4.7-11.6-10.2c-2.2-5.5,1.7-14.1,3.4-15.8C377.1,10.4,370.2,13.6,368.1,20.1z"/>
	</g>
	<g>
		<path fill="#0000FF" d="M-10.4,165.5c-4.4,13.9-9.4,8.3-8.9,24.1c0.3,8.8,5.6,8.6,10.2,7c4.3-1.5,7.7,3.4,12.4,2.5
			c6.7-1.1,11.3-9.2,16.7-10.4c5.4-1.2,6.1,0.4,9.9-0.8c6.4-1.9,9.2-7.8,15.1-10.1c5.1-2,6.2,0.3,12.8-1.6
			c6.6-1.9,10.7-9.5,16.7-9.8c6.7-0.3,10.5-0.3,14.8-3.7c4.3-3.4,7.6-6.2,9.2-6.2c0.4,0,0.3-0.2-0.4-0.2c-2.2,0-8.8,5.4-12,6.4
			c-4.7,1.4-7.9-0.5-12.2-0.3c-5.7,0.2-11.3,6.7-16.8,7.5c-5.6,0.9-7.6-1.5-11.7-0.8c-4.2,0.7-9.3,7.3-14.5,7.8
			c-5.6,0.5-7.5-1.5-11.6-0.4c-4.6,1.2-9,6.7-14,6.5c-5.1-0.2-9.4-4.7-11.6-10.2c-2.2-5.5,1.7-14.1,3.4-15.8
			C-1.4,155.8-8.4,159-10.4,165.5z"/>
		<path fill="#0000FF" d="M107.7,165.5c-4.4,13.9-9.4,8.3-8.9,24.1c0.3,8.8,5.6,8.6,10.2,7c4.3-1.5,7.7,3.4,12.4,2.5
			c6.7-1.1,11.3-9.2,16.7-10.4c5.4-1.2,6.1,0.4,9.9-0.8c6.4-1.9,9.2-7.8,15.1-10.1c5.1-2,6.2,0.3,12.8-1.6
			c6.6-1.9,10.7-9.5,16.7-9.8c6.7-0.3,10.5-0.3,14.8-3.7c4.3-3.4,7.6-6.2,9.2-6.2c0.4,0,0.3-0.2-0.4-0.2c-2.2,0-8.8,5.4-12,6.4
			c-4.7,1.4-7.9-0.5-12.2-0.3c-5.7,0.2-11.3,6.7-16.8,7.5c-5.6,0.9-7.6-1.5-11.7-0.8c-4.2,0.7-9.3,7.3-14.5,7.8
			c-5.6,0.5-7.5-1.5-11.6-0.4c-4.6,1.2-9,6.7-14,6.5c-5.1-0.2-9.4-4.7-11.6-10.2c-2.2-5.5,1.7-14.1,3.4-15.8
			C116.7,155.8,109.7,159,107.7,165.5z"/>
		<path fill="#0000FF" d="M225.8,165.5c-4.4,13.9-9.4,8.3-8.9,24.1c0.3,8.8,5.6,8.6,10.2,7c4.3-1.5,7.7,3.4,12.4,2.5
			c6.7-1.1,11.3-9.2,16.7-10.4c5.4-1.2,6.1,0.4,9.9-0.8c6.4-1.9,9.2-7.8,15.1-10.1c5.1-2,6.2,0.3,12.8-1.6
			c6.6-1.9,10.7-9.5,16.7-9.8c6.7-0.3,10.5-0.3,14.8-3.7c4.3-3.4,7.6-6.2,9.2-6.2c0.4,0,0.3-0.2-0.4-0.2c-2.2,0-8.8,5.4-12,6.4
			c-4.7,1.4-7.9-0.5-12.2-0.3c-5.7,0.2-11.3,6.7-16.8,7.5c-5.6,0.9-7.6-1.5-11.7-0.8c-4.2,0.7-9.3,7.3-14.5,7.8
			c-5.6,0.5-7.5-1.5-11.6-0.4c-4.6,1.2-9,6.7-14,6.5c-5.1-0.2-9.4-4.7-11.6-10.2c-2.2-5.5,1.7-14.1,3.4-15.8
			C234.8,155.8,227.9,159,225.8,165.5z"/>
		<path fill="#0000FF" d="M343.9,165.5c-4.4,13.9-9.4,8.3-8.9,24.1c0.3,8.8,5.6,8.6,10.2,7c4.3-1.5,7.7,3.4,12.4,2.5
			c6.7-1.1,11.3-9.2,16.7-10.4c5.4-1.2,6.1,0.4,9.9-0.8c6.4-1.9,9.2-7.8,15.1-10.1c5.1-2,6.2,0.3,12.8-1.6
			c6.6-1.9,10.7-9.5,16.7-9.8c6.7-0.3,10.5-0.3,14.8-3.7c4.3-3.4,7.6-6.2,9.2-6.2c0.4,0,0.3-0.2-0.4-0.2c-2.2,0-8.8,5.4-12,6.4
			c-4.7,1.4-7.9-0.5-12.2-0.3c-5.7,0.2-11.3,6.7-16.8,7.5c-5.6,0.9-7.6-1.5-11.7-0.8c-4.2,0.7-9.3,7.3-14.5,7.8
			c-5.6,0.5-7.5-1.5-11.6-0.4c-4.6,1.2-9,6.7-14,6.5c-5.1-0.2-9.4-4.7-11.6-10.2c-2.2-5.5,1.7-14.1,3.4-15.8
			C352.9,155.8,346,159,343.9,165.5z"/>
	</g>
	<g>
		<path fill="#0000FF" d="M-61.4,235c-4.4,13.9-9.4,8.3-8.9,24.1c0.3,8.8,5.6,8.6,10.2,7c4.3-1.5,7.7,3.4,12.4,2.5
			c6.7-1.1,11.3-9.2,16.7-10.4c5.4-1.2,6.1,0.4,9.9-0.8c6.4-1.9,9.2-7.8,15.1-10.1c5.1-2,6.2,0.3,12.8-1.6
			c6.6-1.9,10.7-9.5,16.7-9.8c6.7-0.3,10.5-0.3,14.8-3.7c4.3-3.4,7.6-6.2,9.2-6.2c0.4,0,0.3-0.2-0.4-0.2c-2.2,0-8.8,5.4-12,6.4
			c-4.7,1.4-7.9-0.5-12.2-0.3c-5.7,0.2-11.3,6.7-16.8,7.5c-5.6,0.9-7.6-1.5-11.7-0.8c-4.2,0.7-9.3,7.3-14.5,7.8
			c-5.6,0.5-7.5-1.5-11.6-0.4c-4.6,1.2-9,6.7-14,6.5c-5.1-0.2-9.4-4.7-11.6-10.2c-2.2-5.5,1.7-14.1,3.4-15.8
			C-52.4,225.3-59.3,228.5-61.4,235z"/>
		<path fill="#0000FF" d="M56.7,235c-4.4,13.9-9.4,8.3-8.9,24.1c0.3,8.8,5.6,8.6,10.2,7c4.3-1.5,7.7,3.4,12.4,2.5
			c6.7-1.1,11.3-9.2,16.7-10.4c5.4-1.2,6.1,0.4,9.9-0.8c6.4-1.9,9.2-7.8,15.1-10.1c5.1-2,6.2,0.3,12.8-1.6
			c6.6-1.9,10.7-9.5,16.7-9.8c6.7-0.3,10.5-0.3,14.8-3.7c4.3-3.4,7.6-6.2,9.2-6.2c0.4,0,0.3-0.2-0.4-0.2c-2.2,0-8.8,5.4-12,6.4
			c-4.7,1.4-7.9-0.5-12.2-0.3c-5.7,0.2-11.3,6.7-16.8,7.5c-5.6,0.9-7.6-1.5-11.7-0.8c-4.2,0.7-9.3,7.3-14.5,7.8
			c-5.6,0.5-7.5-1.5-11.6-0.4c-4.6,1.2-9,6.7-14,6.5c-5.1-0.2-9.4-4.7-11.6-10.2c-2.2-5.5,1.7-14.1,3.4-15.8
			C65.8,225.3,58.8,228.5,56.7,235z"/>
		<path fill="#0000FF" d="M174.9,235c-4.4,13.9-9.4,8.3-8.9,24.1c0.3,8.8,5.6,8.6,10.2,7c4.3-1.5,7.7,3.4,12.4,2.5
			c6.7-1.1,11.3-9.2,16.7-10.4c5.4-1.2,6.1,0.4,9.9-0.8c6.4-1.9,9.2-7.8,15.1-10.1c5.1-2,6.2,0.3,12.8-1.6
			c6.6-1.9,10.7-9.5,16.7-9.8c6.7-0.3,10.5-0.3,14.8-3.7c4.3-3.4,7.6-6.2,9.2-6.2c0.4,0,0.3-0.2-0.4-0.2c-2.2,0-8.8,5.4-12,6.4
			c-4.7,1.4-7.9-0.5-12.2-0.3c-5.6,0.2-11.3,6.7-16.8,7.5c-5.6,0.9-7.6-1.5-11.7-0.8c-4.2,0.7-9.3,7.3-14.5,7.8
			c-5.6,0.5-7.5-1.5-11.6-0.4c-4.6,1.2-9,6.7-14,6.5c-5.1-0.2-9.4-4.7-11.6-10.2c-2.2-5.5,1.7-14.1,3.4-15.8
			C183.9,225.3,176.9,228.5,174.9,235z"/>
		<path fill="#0000FF" d="M293,235c-4.4,13.9-9.4,8.3-8.9,24.1c0.3,8.8,5.6,8.6,10.2,7c4.3-1.5,7.7,3.4,12.4,2.5
			c6.7-1.1,11.3-9.2,16.7-10.4c5.4-1.2,6.1,0.4,9.9-0.8c6.4-1.9,9.2-7.8,15.1-10.1c5.1-2,6.2,0.3,12.8-1.6
			c6.6-1.9,10.7-9.5,16.7-9.8c6.7-0.3,10.5-0.3,14.8-3.7c4.3-3.4,7.6-6.2,9.2-6.2c0.4,0,0.3-0.2-0.4-0.2c-2.2,0-8.8,5.4-12,6.4
			c-4.7,1.4-7.9-0.5-12.2-0.3c-5.7,0.2-11.3,6.7-16.8,7.5c-5.6,0.9-7.6-1.5-11.7-0.8c-4.2,0.7-9.3,7.3-14.5,7.8
			c-5.6,0.5-7.5-1.5-11.6-0.4c-4.6,1.2-9,6.7-14,6.5c-5.1-0.2-9.4-4.7-11.6-10.2c-2.2-5.5,1.7-14.1,3.4-15.8
			C302,225.3,295,228.5,293,235z"/>
	</g>
	<g>
		<path fill="#0000FF" d="M-61.4,94.5c-4.4,13.9-9.4,8.3-8.9,24.1c0.3,8.8,5.6,8.6,10.2,7c4.3-1.5,7.7,3.4,12.4,2.5
			c6.7-1.1,11.3-9.2,16.7-10.4c5.4-1.2,6.1,0.3,9.9-0.8c6.4-1.9,9.2-7.8,15.1-10.1c5.1-2,6.2,0.3,12.8-1.6
			c6.6-1.9,10.7-9.5,16.7-9.8c6.7-0.3,10.5-0.3,14.8-3.7c4.3-3.4,7.6-6.2,9.2-6.2c0.4,0,0.3-0.2-0.4-0.2c-2.2,0-8.8,5.4-12,6.4
			c-4.7,1.4-7.9-0.5-12.2-0.3c-5.7,0.2-11.3,6.7-16.8,7.5c-5.6,0.9-7.6-1.5-11.7-0.8c-4.2,0.7-9.3,7.3-14.5,7.8
			c-5.6,0.5-7.5-1.5-11.6-0.4c-4.6,1.2-9,6.7-14,6.5c-5.1-0.2-9.4-4.7-11.6-10.2c-2.2-5.5,1.7-14.1,3.4-15.8
			C-52.4,84.9-59.3,88-61.4,94.5z"/>
		<path fill="#0000FF" d="M56.7,94.5c-4.4,13.9-9.4,8.3-8.9,24.1c0.3,8.8,5.6,8.6,10.2,7c4.3-1.5,7.7,3.4,12.4,2.5
			c6.7-1.1,11.3-9.2,16.7-10.4c5.4-1.2,6.1,0.3,9.9-0.8c6.4-1.9,9.2-7.8,15.1-10.1c5.1-2,6.2,0.3,12.8-1.6
			c6.6-1.9,10.7-9.5,16.7-9.8c6.7-0.3,10.5-0.3,14.8-3.7c4.3-3.4,7.6-6.2,9.2-6.2c0.4,0,0.3-0.2-0.4-0.2c-2.2,0-8.8,5.4-12,6.4
			c-4.7,1.4-7.9-0.5-12.2-0.3c-5.7,0.2-11.3,6.7-16.8,7.5c-5.6,0.9-7.6-1.5-11.7-0.8c-4.2,0.7-9.3,7.3-14.5,7.8
			c-5.6,0.5-7.5-1.5-11.6-0.4c-4.6,1.2-9,6.7-14,6.5c-5.1-0.2-9.4-4.7-11.6-10.2c-2.2-5.5,1.7-14.1,3.4-15.8
			C65.8,84.9,58.8,88,56.7,94.5z"/>
		<path fill="#0000FF" d="M174.9,94.5c-4.4,13.9-9.4,8.3-8.9,24.1c0.3,8.8,5.6,8.6,10.2,7c4.3-1.5,7.7,3.4,12.4,2.5
			c6.7-1.1,11.3-9.2,16.7-10.4c5.4-1.2,6.1,0.3,9.9-0.8c6.4-1.9,9.2-7.8,15.1-10.1c5.1-2,6.2,0.3,12.8-1.6
			c6.6-1.9,10.7-9.5,16.7-9.8c6.7-0.3,10.5-0.3,14.8-3.7c4.3-3.4,7.6-6.2,9.2-6.2c0.4,0,0.3-0.2-0.4-0.2c-2.2,0-8.8,5.4-12,6.4
			c-4.7,1.4-7.9-0.5-12.2-0.3c-5.6,0.2-11.3,6.7-16.8,7.5c-5.6,0.9-7.6-1.5-11.7-0.8c-4.2,0.7-9.3,7.3-14.5,7.8
			c-5.6,0.5-7.5-1.5-11.6-0.4c-4.6,1.2-9,6.7-14,6.5c-5.1-0.2-9.4-4.7-11.6-10.2s1.7-14.1,3.4-15.8C183.9,84.9,176.9,88,174.9,94.5z
			"/>
		<path fill="#0000FF" d="M293,94.5c-4.4,13.9-9.4,8.3-8.9,24.1c0.3,8.8,5.6,8.6,10.2,7c4.3-1.5,7.7,3.4,12.4,2.5
			c6.7-1.1,11.3-9.2,16.7-10.4c5.4-1.2,6.1,0.3,9.9-0.8c6.4-1.9,9.2-7.8,15.1-10.1c5.1-2,6.2,0.3,12.8-1.6
			c6.6-1.9,10.7-9.5,16.7-9.8c6.7-0.3,10.5-0.3,14.8-3.7c4.3-3.4,7.6-6.2,9.2-6.2c0.4,0,0.3-0.2-0.4-0.2c-2.2,0-8.8,5.4-12,6.4
			c-4.7,1.4-7.9-0.5-12.2-0.3c-5.7,0.2-11.3,6.7-16.8,7.5c-5.6,0.9-7.6-1.5-11.7-0.8c-4.2,0.7-9.3,7.3-14.5,7.8
			c-5.6,0.5-7.5-1.5-11.6-0.4c-4.6,1.2-9,6.7-14,6.5c-5.1-0.2-9.4-4.7-11.6-10.2c-2.2-5.5,1.7-14.1,3.4-15.8
			C302,84.9,295,88,293,94.5z"/>
	</g>
</g>
<g>
	<g>
		<path fill="#0000FF" d="M491.8,20.1c-4.4,13.9-9.4,8.3-8.9,24.1c0.3,8.8,5.6,8.6,10.2,7c4.3-1.5,7.7,3.4,12.4,2.5
			c6.7-1.1,11.3-9.2,16.7-10.4c5.4-1.2,6.1,0.3,9.9-0.8c6.4-1.9,9.2-7.8,15.1-10.1c5.1-2,6.2,0.3,12.8-1.6
			c6.6-1.9,10.7-9.5,16.7-9.8c6.7-0.3,10.5-0.3,14.8-3.7c4.3-3.4,7.6-6.2,9.2-6.2c0.4,0,0.3-0.2-0.4-0.2c-2.2,0-8.8,5.4-12,6.4
			c-4.7,1.4-7.9-0.5-12.2-0.3c-5.7,0.2-11.3,6.7-16.8,7.5c-5.6,0.9-7.6-1.5-11.7-0.8c-4.2,0.7-9.3,7.3-14.5,7.8
			c-5.6,0.5-7.5-1.5-11.6-0.4c-4.6,1.2-9,6.7-14,6.5c-5.1-0.2-9.4-4.7-11.6-10.2c-2.2-5.5,1.7-14.1,3.4-15.8
			C500.8,10.4,493.9,13.6,491.8,20.1z"/>
		<path fill="#0000FF" d="M609.9,20.1c-4.4,13.9-9.4,8.3-8.9,24.1c0.3,8.8,5.6,8.6,10.2,7c4.3-1.5,7.7,3.4,12.4,2.5
			c6.7-1.1,11.3-9.2,16.7-10.4c5.4-1.2,6.1,0.3,9.9-0.8c6.4-1.9,9.2-7.8,15.1-10.1c5.1-2,6.2,0.3,12.8-1.6
			c6.6-1.9,10.7-9.5,16.7-9.8c6.7-0.3,10.5-0.3,14.8-3.7c4.3-3.4,7.6-6.2,9.2-6.2c0.4,0,0.3-0.2-0.4-0.2c-2.2,0-8.8,5.4-12,6.4
			c-4.7,1.4-7.9-0.5-12.2-0.3c-5.7,0.2-11.3,6.7-16.8,7.5c-5.6,0.9-7.6-1.5-11.7-0.8c-4.2,0.7-9.3,7.3-14.5,7.8
			c-5.6,0.5-7.5-1.5-11.6-0.4c-4.6,1.2-9,6.7-14,6.5c-5.1-0.2-9.4-4.7-11.6-10.2c-2.2-5.5,1.7-14.1,3.4-15.8
			C618.9,10.4,612,13.6,609.9,20.1z"/>
		<path fill="#0000FF" d="M728.1,20.1c-4.4,13.9-9.4,8.3-8.9,24.1c0.3,8.8,5.6,8.6,10.2,7c4.3-1.5,7.7,3.4,12.4,2.5
			c6.7-1.1,11.3-9.2,16.7-10.4c5.4-1.2,6.1,0.3,9.9-0.8c6.4-1.9,9.2-7.8,15.1-10.1c5.1-2,6.2,0.3,12.8-1.6
			c6.6-1.9,10.7-9.5,16.7-9.8c6.7-0.3,10.5-0.3,14.8-3.7c4.3-3.4,7.6-6.2,9.2-6.2c0.4,0,0.3-0.2-0.4-0.2c-2.2,0-8.8,5.4-12,6.4
			c-4.7,1.4-7.9-0.5-12.2-0.3c-5.7,0.2-11.3,6.7-16.8,7.5c-5.6,0.9-7.6-1.5-11.7-0.8c-4.2,0.7-9.3,7.3-14.5,7.8
			c-5.6,0.5-7.5-1.5-11.6-0.4c-4.6,1.2-9,6.7-14,6.5c-5.1-0.2-9.4-4.7-11.6-10.2c-2.2-5.5,1.7-14.1,3.4-15.8
			C737.1,10.4,730.1,13.6,728.1,20.1z"/>
		<path fill="#0000FF" d="M846.2,20.1c-4.4,13.9-9.4,8.3-8.9,24.1c0.3,8.8,5.6,8.6,10.2,7c4.3-1.5,7.7,3.4,12.4,2.5
			c6.7-1.1,11.3-9.2,16.7-10.4c5.4-1.2,6.1,0.4,9.9-0.8c6.4-1.9,9.2-7.8,15.1-10.1c5.1-2,6.2,0.3,12.8-1.6
			c6.6-1.9,10.7-9.5,16.7-9.8c6.7-0.3,10.5-0.3,14.8-3.7c4.3-3.4,7.6-6.2,9.2-6.2c0.4,0,0.3-0.2-0.4-0.2c-2.2,0-8.8,5.4-12,6.4
			c-4.7,1.4-7.9-0.5-12.2-0.3c-5.7,0.2-11.3,6.7-16.8,7.5s-7.6-1.5-11.7-0.8c-4.2,0.7-9.3,7.3-14.5,7.8c-5.6,0.5-7.5-1.5-11.6-0.4
			c-4.6,1.2-9,6.7-14,6.5c-5.1-0.2-9.4-4.7-11.6-10.2c-2.2-5.5,1.7-14.1,3.4-15.8C855.2,10.4,848.2,13.6,846.2,20.1z"/>
	</g>
	<g>
		<path fill="#0000FF" d="M467.6,165.5c-4.4,13.9-9.4,8.3-8.9,24.1c0.3,8.8,5.6,8.6,10.2,7c4.3-1.5,7.7,3.4,12.4,2.5
			c6.7-1.1,11.3-9.2,16.7-10.4c5.4-1.2,6.1,0.4,9.9-0.8c6.4-1.9,9.2-7.8,15.1-10.1c5.1-2,6.2,0.3,12.8-1.6
			c6.6-1.9,10.7-9.5,16.7-9.8c6.7-0.3,10.5-0.3,14.8-3.7c4.3-3.4,7.6-6.2,9.2-6.2c0.4,0,0.3-0.2-0.4-0.2c-2.2,0-8.8,5.4-12,6.4
			c-4.7,1.4-7.9-0.5-12.2-0.3c-5.7,0.2-11.3,6.7-16.8,7.5c-5.6,0.9-7.6-1.5-11.7-0.8c-4.2,0.7-9.3,7.3-14.5,7.8
			c-5.6,0.5-7.5-1.5-11.6-0.4c-4.6,1.2-9,6.7-14,6.5c-5.1-0.2-9.4-4.7-11.6-10.2c-2.2-5.5,1.7-14.1,3.4-15.8
			C476.6,155.8,469.7,159,467.6,165.5z"/>
		<path fill="#0000FF" d="M585.7,165.5c-4.4,13.9-9.4,8.3-8.9,24.1c0.3,8.8,5.6,8.6,10.2,7c4.3-1.5,7.7,3.4,12.4,2.5
			c6.7-1.1,11.3-9.2,16.7-10.4c5.4-1.2,6.1,0.4,9.9-0.8c6.4-1.9,9.2-7.8,15.1-10.1c5.1-2,6.2,0.3,12.8-1.6
			c6.6-1.9,10.7-9.5,16.7-9.8c6.7-0.3,10.5-0.3,14.8-3.7c4.3-3.4,7.6-6.2,9.2-6.2c0.4,0,0.3-0.2-0.4-0.2c-2.2,0-8.8,5.4-12,6.4
			c-4.7,1.4-7.9-0.5-12.2-0.3c-5.7,0.2-11.3,6.7-16.8,7.5c-5.6,0.9-7.6-1.5-11.7-0.8c-4.2,0.7-9.3,7.3-14.5,7.8
			c-5.6,0.5-7.5-1.5-11.6-0.4c-4.6,1.2-9,6.7-14,6.5c-5.1-0.2-9.4-4.7-11.6-10.2c-2.2-5.5,1.7-14.1,3.4-15.8
			C594.7,155.8,587.8,159,585.7,165.5z"/>
		<path fill="#0000FF" d="M703.9,165.5c-4.4,13.9-9.4,8.3-8.9,24.1c0.3,8.8,5.6,8.6,10.2,7c4.3-1.5,7.7,3.4,12.4,2.5
			c6.7-1.1,11.3-9.2,16.7-10.4c5.4-1.2,6.1,0.4,9.9-0.8c6.4-1.9,9.2-7.8,15.1-10.1c5.1-2,6.2,0.3,12.8-1.6
			c6.6-1.9,10.7-9.5,16.7-9.8c6.7-0.3,10.5-0.3,14.8-3.7c4.3-3.4,7.6-6.2,9.2-6.2c0.4,0,0.3-0.2-0.4-0.2c-2.2,0-8.8,5.4-12,6.4
			c-4.7,1.4-7.9-0.5-12.2-0.3c-5.7,0.2-11.3,6.7-16.8,7.5c-5.6,0.9-7.6-1.5-11.7-0.8c-4.2,0.7-9.3,7.3-14.5,7.8
			c-5.6,0.5-7.5-1.5-11.6-0.4c-4.6,1.2-9,6.7-14,6.5c-5.1-0.2-9.4-4.7-11.6-10.2c-2.2-5.5,1.7-14.1,3.4-15.8
			C712.9,155.8,705.9,159,703.9,165.5z"/>
		<path fill="#0000FF" d="M822,165.5c-4.4,13.9-9.4,8.3-8.9,24.1c0.3,8.8,5.6,8.6,10.2,7c4.3-1.5,7.7,3.4,12.4,2.5
			c6.7-1.1,11.3-9.2,16.7-10.4c5.4-1.2,6.1,0.4,9.9-0.8c6.4-1.9,9.2-7.8,15.1-10.1c5.1-2,6.2,0.3,12.8-1.6
			c6.6-1.9,10.7-9.5,16.7-9.8c6.7-0.3,10.5-0.3,14.8-3.7c4.3-3.4,7.6-6.2,9.2-6.2c0.4,0,0.3-0.2-0.4-0.2c-2.2,0-8.8,5.4-12,6.4
			c-4.7,1.4-7.9-0.5-12.2-0.3c-5.7,0.2-11.3,6.7-16.8,7.5c-5.6,0.9-7.6-1.5-11.7-0.8c-4.2,0.7-9.3,7.3-14.5,7.8
			c-5.6,0.5-7.5-1.5-11.6-0.4c-4.6,1.2-9,6.7-14,6.5c-5.1-0.2-9.4-4.7-11.6-10.2c-2.2-5.5,1.7-14.1,3.4-15.8
			C831,155.8,824,159,822,165.5z"/>
	</g>
	<g>
		<path fill="#0000FF" d="M416.7,235c-4.4,13.9-9.4,8.3-8.9,24.1c0.3,8.8,5.6,8.6,10.2,7c4.3-1.5,7.7,3.4,12.4,2.5
			c6.7-1.1,11.3-9.2,16.7-10.4c5.4-1.2,6.1,0.4,9.9-0.8c6.4-1.9,9.2-7.8,15.1-10.1c5.1-2,6.2,0.3,12.8-1.6
			c6.6-1.9,10.7-9.5,16.7-9.8c6.7-0.3,10.5-0.3,14.8-3.7c4.3-3.4,7.6-6.2,9.2-6.2c0.4,0,0.3-0.2-0.4-0.2c-2.2,0-8.8,5.4-12,6.4
			c-4.7,1.4-7.9-0.5-12.2-0.3c-5.7,0.2-11.3,6.7-16.8,7.5c-5.6,0.9-7.6-1.5-11.7-0.8c-4.2,0.7-9.3,7.3-14.5,7.8
			c-5.6,0.5-7.5-1.5-11.6-0.4c-4.6,1.2-9,6.7-14,6.5c-5.1-0.2-9.4-4.7-11.6-10.2c-2.2-5.5,1.7-14.1,3.4-15.8
			C425.7,225.3,418.7,228.5,416.7,235z"/>
		<path fill="#0000FF" d="M534.8,235c-4.4,13.9-9.4,8.3-8.9,24.1c0.3,8.8,5.6,8.6,10.2,7c4.3-1.5,7.7,3.4,12.4,2.5
			c6.7-1.1,11.3-9.2,16.7-10.4c5.4-1.2,6.1,0.4,9.9-0.8c6.4-1.9,9.2-7.8,15.1-10.1c5.1-2,6.2,0.3,12.8-1.6
			c6.6-1.9,10.7-9.5,16.7-9.8c6.7-0.3,10.5-0.3,14.8-3.7c4.3-3.4,7.6-6.2,9.2-6.2c0.4,0,0.3-0.2-0.4-0.2c-2.2,0-8.8,5.4-12,6.4
			c-4.7,1.4-7.9-0.5-12.2-0.3c-5.7,0.2-11.3,6.7-16.8,7.5c-5.6,0.9-7.6-1.5-11.7-0.8c-4.2,0.7-9.3,7.3-14.5,7.8
			c-5.6,0.5-7.5-1.5-11.6-0.4c-4.6,1.2-9,6.7-14,6.5c-5.1-0.2-9.4-4.7-11.6-10.2c-2.2-5.5,1.7-14.1,3.4-15.8
			C543.8,225.3,536.8,228.5,534.8,235z"/>
		<path fill="#0000FF" d="M652.9,235c-4.4,13.9-9.4,8.3-8.9,24.1c0.3,8.8,5.6,8.6,10.2,7c4.3-1.5,7.7,3.4,12.4,2.5
			c6.7-1.1,11.3-9.2,16.7-10.4c5.4-1.2,6.1,0.4,9.9-0.8c6.4-1.9,9.2-7.8,15.1-10.1c5.1-2,6.2,0.3,12.8-1.6
			c6.6-1.9,10.7-9.5,16.7-9.8c6.7-0.3,10.5-0.3,14.8-3.7c4.3-3.4,7.6-6.2,9.2-6.2c0.4,0,0.3-0.2-0.4-0.2c-2.2,0-8.8,5.4-12,6.4
			c-4.7,1.4-7.9-0.5-12.2-0.3c-5.6,0.2-11.3,6.7-16.8,7.5c-5.6,0.9-7.6-1.5-11.7-0.8c-4.2,0.7-9.3,7.3-14.5,7.8
			c-5.6,0.5-7.5-1.5-11.6-0.4c-4.6,1.2-9,6.7-14,6.5c-5.1-0.2-9.4-4.7-11.6-10.2c-2.2-5.5,1.7-14.1,3.4-15.8
			C661.9,225.3,655,228.5,652.9,235z"/>
		<path fill="#0000FF" d="M771,235c-4.4,13.9-9.4,8.3-8.9,24.1c0.3,8.8,5.6,8.6,10.2,7c4.3-1.5,7.7,3.4,12.4,2.5
			c6.7-1.1,11.3-9.2,16.7-10.4c5.4-1.2,6.1,0.4,9.9-0.8c6.4-1.9,9.2-7.8,15.1-10.1c5.1-2,6.2,0.3,12.8-1.6
			c6.6-1.9,10.7-9.5,16.7-9.8c6.7-0.3,10.5-0.3,14.8-3.7c4.3-3.4,7.6-6.2,9.2-6.2c0.4,0,0.3-0.2-0.4-0.2c-2.2,0-8.8,5.4-12,6.4
			c-4.7,1.4-7.9-0.5-12.2-0.3c-5.7,0.2-11.3,6.7-16.8,7.5c-5.6,0.9-7.6-1.5-11.7-0.8c-4.2,0.7-9.3,7.3-14.5,7.8
			c-5.6,0.5-7.5-1.5-11.6-0.4c-4.6,1.2-9,6.7-14,6.5c-5.1-0.2-9.4-4.7-11.6-10.2c-2.2-5.5,1.7-14.1,3.4-15.8
			C780,225.3,773.1,228.5,771,235z"/>
	</g>
	<g>
		<path fill="#0000FF" d="M416.7,94.5c-4.4,13.9-9.4,8.3-8.9,24.1c0.3,8.8,5.6,8.6,10.2,7c4.3-1.5,7.7,3.4,12.4,2.5
			c6.7-1.1,11.3-9.2,16.7-10.4c5.4-1.2,6.1,0.3,9.9-0.8c6.4-1.9,9.2-7.8,15.1-10.1c5.1-2,6.2,0.3,12.8-1.6
			c6.6-1.9,10.7-9.5,16.7-9.8c6.7-0.3,10.5-0.3,14.8-3.7c4.3-3.4,7.6-6.2,9.2-6.2c0.4,0,0.3-0.2-0.4-0.2c-2.2,0-8.8,5.4-12,6.4
			c-4.7,1.4-7.9-0.5-12.2-0.3c-5.7,0.2-11.3,6.7-16.8,7.5c-5.6,0.9-7.6-1.5-11.7-0.8c-4.2,0.7-9.3,7.3-14.5,7.8
			c-5.6,0.5-7.5-1.5-11.6-0.4c-4.6,1.2-9,6.7-14,6.5c-5.1-0.2-9.4-4.7-11.6-10.2c-2.2-5.5,1.7-14.1,3.4-15.8
			C425.7,84.9,418.7,88,416.7,94.5z"/>
		<path fill="#0000FF" d="M534.8,94.5c-4.4,13.9-9.4,8.3-8.9,24.1c0.3,8.8,5.6,8.6,10.2,7c4.3-1.5,7.7,3.4,12.4,2.5
			c6.7-1.1,11.3-9.2,16.7-10.4c5.4-1.2,6.1,0.3,9.9-0.8c6.4-1.9,9.2-7.8,15.1-10.1c5.1-2,6.2,0.3,12.8-1.6
			c6.6-1.9,10.7-9.5,16.7-9.8c6.7-0.3,10.5-0.3,14.8-3.7c4.3-3.4,7.6-6.2,9.2-6.2c0.4,0,0.3-0.2-0.4-0.2c-2.2,0-8.8,5.4-12,6.4
			c-4.7,1.4-7.9-0.5-12.2-0.3c-5.7,0.2-11.3,6.7-16.8,7.5c-5.6,0.9-7.6-1.5-11.7-0.8c-4.2,0.7-9.3,7.3-14.5,7.8
			c-5.6,0.5-7.5-1.5-11.6-0.4c-4.6,1.2-9,6.7-14,6.5c-5.1-0.2-9.4-4.7-11.6-10.2c-2.2-5.5,1.7-14.1,3.4-15.8
			C543.8,84.9,536.8,88,534.8,94.5z"/>
		<path fill="#0000FF" d="M652.9,94.5c-4.4,13.9-9.4,8.3-8.9,24.1c0.3,8.8,5.6,8.6,10.2,7c4.3-1.5,7.7,3.4,12.4,2.5
			c6.7-1.1,11.3-9.2,16.7-10.4c5.4-1.2,6.1,0.3,9.9-0.8c6.4-1.9,9.2-7.8,15.1-10.1c5.1-2,6.2,0.3,12.8-1.6
			c6.6-1.9,10.7-9.5,16.7-9.8c6.7-0.3,10.5-0.3,14.8-3.7c4.3-3.4,7.6-6.2,9.2-6.2c0.4,0,0.3-0.2-0.4-0.2c-2.2,0-8.8,5.4-12,6.4
			c-4.7,1.4-7.9-0.5-12.2-0.3c-5.6,0.2-11.3,6.7-16.8,7.5c-5.6,0.9-7.6-1.5-11.7-0.8c-4.2,0.7-9.3,7.3-14.5,7.8
			c-5.6,0.5-7.5-1.5-11.6-0.4c-4.6,1.2-9,6.7-14,6.5c-5.1-0.2-9.4-4.7-11.6-10.2s1.7-14.1,3.4-15.8C661.9,84.9,655,88,652.9,94.5z"
			/>
		<path fill="#0000FF" d="M771,94.5c-4.4,13.9-9.4,8.3-8.9,24.1c0.3,8.8,5.6,8.6,10.2,7c4.3-1.5,7.7,3.4,12.4,2.5
			c6.7-1.1,11.3-9.2,16.7-10.4c5.4-1.2,6.1,0.3,9.9-0.8c6.4-1.9,9.2-7.8,15.1-10.1c5.1-2,6.2,0.3,12.8-1.6
			c6.6-1.9,10.7-9.5,16.7-9.8c6.7-0.3,10.5-0.3,14.8-3.7c4.3-3.4,7.6-6.2,9.2-6.2c0.4,0,0.3-0.2-0.4-0.2c-2.2,0-8.8,5.4-12,6.4
			c-4.7,1.4-7.9-0.5-12.2-0.3c-5.7,0.2-11.3,6.7-16.8,7.5c-5.6,0.9-7.6-1.5-11.7-0.8c-4.2,0.7-9.3,7.3-14.5,7.8
			c-5.6,0.5-7.5-1.5-11.6-0.4c-4.6,1.2-9,6.7-14,6.5c-5.1-0.2-9.4-4.7-11.6-10.2s1.7-14.1,3.4-15.8C780,84.9,773.1,88,771,94.5z"/>
	</g>
</g>
</svg>
